<?xml version="1.0" encoding="utf-8"?>
<!-- Generator: Adobe Illustrator 17.0.0, SVG Export Plug-In . SVG Version: 6.00 Build 0)  -->
<!DOCTYPE svg PUBLIC "-//W3C//DTD SVG 1.1//EN" "http://www.w3.org/Graphics/SVG/1.1/DTD/svg11.dtd">
<svg version="1.1" xmlns="http://www.w3.org/2000/svg" xmlns:xlink="http://www.w3.org/1999/xlink" x="0px" y="0px"
	 width="21.967px" height="16px" viewBox="1.989 2.724 21.967 16" enable-background="new 1.989 2.724 21.967 16"
	 xml:space="preserve">
<g id="Layer_2_2_" display="none">
	<rect x="0" y="0" display="inline" width="26.662" height="22.625"/>
</g>
<g id="Layer_1">
	<g id="Layer_2_1_" display="none">
		<rect x="-3.703" y="-0.758" display="inline" width="22.5" height="20"/>
	</g>
	<g id="Layer_4" display="none">
		<rect x="4.415" y="1.326" display="inline" fill="#B4B9BE" width="28" height="22"/>
	</g>
	<g id="Layer_5" display="none">
	</g>
	<g>
		<polygon fill="#0073AA" points="6.846,18.724 1.989,13.874 6.846,9.023 11.702,13.874 		"/>
		<polygon opacity="0.6" fill="#04597A" enable-background="new    " points="6.843,13.907 6.843,18.724 11.669,13.907 		"/>
		<g>
			<polygon fill="#0073AA" points="19.133,18.724 14.276,13.874 19.133,9.023 23.989,13.874 			"/>
		</g>
		<polygon opacity="0.6" fill="#04597A" enable-background="new    " points="19.13,13.907 19.13,18.724 23.956,13.907 		"/>
		<polygon fill="#FFFFFF" points="12.989,12.427 8.133,7.576 12.989,2.724 17.846,7.576 		"/>
		<polygon fill="#C6C6C6" points="12.989,2.724 12.978,2.737 12.978,12.415 12.989,12.427 17.846,7.576 		"/>
	</g>
	<g id="Layer_3" display="none">
	</g>
</g>
</svg>
