<svg width="760" height="80" viewBox="0 0 760 80" fill="none" xmlns="http://www.w3.org/2000/svg">
<rect width="760" height="80" rx="8" fill="#1AE4A1"/>
<rect width="760" height="80" rx="8" fill="url(#paint0_linear)"/>
<g filter="url(#filter0_d)">
<rect x="616" y="20" width="124" height="40" rx="3" fill="url(#paint1_linear)"/>
</g>
<path d="M630.012 45V35.0469H633.423C634.549 35.0469 635.405 35.2725 635.993 35.7236C636.581 36.1748 636.875 36.847 636.875 37.7402C636.875 38.196 636.752 38.6061 636.506 38.9707C636.26 39.3353 635.9 39.6178 635.426 39.8184C635.964 39.9642 636.378 40.2399 636.67 40.6455C636.966 41.0465 637.114 41.5296 637.114 42.0947C637.114 43.029 636.813 43.7467 636.212 44.248C635.615 44.7493 634.758 45 633.642 45H630.012ZM631.741 40.5088V43.6191H633.662C634.204 43.6191 634.628 43.4847 634.934 43.2158C635.239 42.9469 635.392 42.5732 635.392 42.0947C635.392 41.0602 634.863 40.5316 633.806 40.5088H631.741ZM631.741 39.2373H633.437C633.974 39.2373 634.394 39.1165 634.694 38.875C635 38.6289 635.152 38.2826 635.152 37.8359C635.152 37.3438 635.011 36.9883 634.729 36.7695C634.451 36.5508 634.015 36.4414 633.423 36.4414H631.741V39.2373ZM642.416 39.1211C642.197 39.0846 641.971 39.0664 641.739 39.0664C640.978 39.0664 640.465 39.3581 640.201 39.9414V45H638.54V37.6035H640.126L640.167 38.4307C640.568 37.7881 641.124 37.4668 641.835 37.4668C642.072 37.4668 642.268 37.4987 642.422 37.5625L642.416 39.1211ZM645.092 45H643.431V37.6035H645.092V45ZM643.328 35.6826C643.328 35.4274 643.408 35.2155 643.568 35.0469C643.732 34.8783 643.964 34.7939 644.265 34.7939C644.566 34.7939 644.798 34.8783 644.962 35.0469C645.126 35.2155 645.208 35.4274 645.208 35.6826C645.208 35.9333 645.126 36.1429 644.962 36.3115C644.798 36.4756 644.566 36.5576 644.265 36.5576C643.964 36.5576 643.732 36.4756 643.568 36.3115C643.408 36.1429 643.328 35.9333 643.328 35.6826ZM648.309 37.6035L648.356 38.458C648.903 37.7972 649.621 37.4668 650.51 37.4668C652.05 37.4668 652.834 38.3486 652.861 40.1123V45H651.2V40.208C651.2 39.7386 651.098 39.3923 650.892 39.1689C650.692 38.9411 650.362 38.8271 649.901 38.8271C649.231 38.8271 648.732 39.1302 648.404 39.7363V45H646.743V37.6035H648.309ZM654.129 41.2471C654.129 40.0986 654.398 39.1826 654.936 38.499C655.478 37.8109 656.196 37.4668 657.089 37.4668C657.933 37.4668 658.596 37.7607 659.079 38.3486L659.154 37.6035H660.651V44.7744C660.651 45.7451 660.348 46.5107 659.742 47.0713C659.14 47.6318 658.327 47.9121 657.301 47.9121C656.759 47.9121 656.228 47.7982 655.709 47.5703C655.194 47.347 654.802 47.0531 654.533 46.6885L655.319 45.6904C655.829 46.2965 656.458 46.5996 657.206 46.5996C657.757 46.5996 658.192 46.4492 658.511 46.1484C658.83 45.8522 658.99 45.4147 658.99 44.8359V44.3369C658.511 44.8701 657.873 45.1367 657.076 45.1367C656.21 45.1367 655.501 44.7926 654.95 44.1045C654.403 43.4163 654.129 42.4639 654.129 41.2471ZM655.784 41.3906C655.784 42.1335 655.934 42.7191 656.235 43.1475C656.54 43.5713 656.962 43.7832 657.5 43.7832C658.169 43.7832 658.666 43.4961 658.99 42.9219V39.668C658.675 39.1074 658.183 38.8271 657.513 38.8271C656.966 38.8271 656.54 39.0436 656.235 39.4766C655.934 39.9095 655.784 40.5475 655.784 41.3906ZM667.651 35.8057V37.6035H668.957V38.834H667.651V42.9629C667.651 43.2454 667.706 43.4505 667.815 43.5781C667.929 43.7012 668.13 43.7627 668.417 43.7627C668.608 43.7627 668.802 43.7399 668.998 43.6943V44.9795C668.62 45.0843 668.255 45.1367 667.904 45.1367C666.628 45.1367 665.99 44.4326 665.99 43.0244V38.834H664.773V37.6035H665.99V35.8057H667.651ZM671.729 38.4102C672.271 37.7812 672.957 37.4668 673.787 37.4668C675.363 37.4668 676.163 38.3669 676.186 40.167V45H674.525V40.2285C674.525 39.7181 674.413 39.3581 674.19 39.1484C673.971 38.9342 673.648 38.8271 673.219 38.8271C672.554 38.8271 672.057 39.1234 671.729 39.7158V45H670.068V34.5H671.729V38.4102ZM680.988 45.1367C679.936 45.1367 679.081 44.8063 678.425 44.1455C677.773 43.4801 677.447 42.596 677.447 41.4932V41.2881C677.447 40.5498 677.589 39.8913 677.871 39.3125C678.158 38.7292 678.559 38.2757 679.074 37.9521C679.589 37.6286 680.164 37.4668 680.797 37.4668C681.804 37.4668 682.581 37.7881 683.128 38.4307C683.679 39.0732 683.955 39.9824 683.955 41.1582V41.8281H679.122C679.172 42.4388 679.375 42.9219 679.731 43.2773C680.091 43.6328 680.542 43.8105 681.084 43.8105C681.845 43.8105 682.465 43.5029 682.943 42.8877L683.839 43.7422C683.543 44.1842 683.146 44.5283 682.65 44.7744C682.157 45.016 681.604 45.1367 680.988 45.1367ZM680.79 38.7998C680.334 38.7998 679.965 38.9593 679.683 39.2783C679.405 39.5973 679.227 40.0417 679.15 40.6113H682.315V40.4883C682.278 39.9323 682.13 39.513 681.87 39.2305C681.61 38.9434 681.25 38.7998 680.79 38.7998ZM686.673 37.6035L686.72 38.376C687.24 37.7699 687.951 37.4668 688.853 37.4668C689.842 37.4668 690.519 37.8451 690.884 38.6016C691.421 37.8451 692.178 37.4668 693.153 37.4668C693.969 37.4668 694.575 37.6924 694.971 38.1436C695.372 38.5947 695.578 39.2601 695.587 40.1396V45H693.926V40.1875C693.926 39.7181 693.823 39.374 693.618 39.1553C693.413 38.9365 693.073 38.8271 692.599 38.8271C692.221 38.8271 691.911 38.9297 691.67 39.1348C691.433 39.3353 691.266 39.5996 691.171 39.9277L691.178 45H689.516V40.1328C689.494 39.2624 689.049 38.8271 688.183 38.8271C687.518 38.8271 687.046 39.0983 686.768 39.6406V45H685.107V37.6035H686.673ZM702.136 38.4102C702.678 37.7812 703.364 37.4668 704.193 37.4668C705.77 37.4668 706.57 38.3669 706.593 40.167V45H704.932V40.2285C704.932 39.7181 704.82 39.3581 704.597 39.1484C704.378 38.9342 704.054 38.8271 703.626 38.8271C702.961 38.8271 702.464 39.1234 702.136 39.7158V45H700.475V34.5H702.136V38.4102ZM711.395 45.1367C710.342 45.1367 709.488 44.8063 708.832 44.1455C708.18 43.4801 707.854 42.596 707.854 41.4932V41.2881C707.854 40.5498 707.995 39.8913 708.278 39.3125C708.565 38.7292 708.966 38.2757 709.481 37.9521C709.996 37.6286 710.57 37.4668 711.204 37.4668C712.211 37.4668 712.988 37.7881 713.535 38.4307C714.086 39.0732 714.362 39.9824 714.362 41.1582V41.8281H709.529C709.579 42.4388 709.782 42.9219 710.137 43.2773C710.497 43.6328 710.949 43.8105 711.491 43.8105C712.252 43.8105 712.872 43.5029 713.35 42.8877L714.246 43.7422C713.95 44.1842 713.553 44.5283 713.056 44.7744C712.564 45.016 712.01 45.1367 711.395 45.1367ZM711.197 38.7998C710.741 38.7998 710.372 38.9593 710.09 39.2783C709.812 39.5973 709.634 40.0417 709.556 40.6113H712.721V40.4883C712.685 39.9323 712.537 39.513 712.277 39.2305C712.017 38.9434 711.657 38.7998 711.197 38.7998ZM719.39 39.1211C719.171 39.0846 718.946 39.0664 718.713 39.0664C717.952 39.0664 717.439 39.3581 717.175 39.9414V45H715.514V37.6035H717.1L717.141 38.4307C717.542 37.7881 718.098 37.4668 718.809 37.4668C719.046 37.4668 719.242 37.4987 719.397 37.5625L719.39 39.1211ZM723.42 45.1367C722.367 45.1367 721.513 44.8063 720.856 44.1455C720.205 43.4801 719.879 42.596 719.879 41.4932V41.2881C719.879 40.5498 720.02 39.8913 720.303 39.3125C720.59 38.7292 720.991 38.2757 721.506 37.9521C722.021 37.6286 722.595 37.4668 723.228 37.4668C724.236 37.4668 725.013 37.7881 725.56 38.4307C726.111 39.0732 726.387 39.9824 726.387 41.1582V41.8281H721.554C721.604 42.4388 721.807 42.9219 722.162 43.2773C722.522 43.6328 722.973 43.8105 723.516 43.8105C724.277 43.8105 724.896 43.5029 725.375 42.8877L726.27 43.7422C725.974 44.1842 725.578 44.5283 725.081 44.7744C724.589 45.016 724.035 45.1367 723.42 45.1367ZM723.222 38.7998C722.766 38.7998 722.397 38.9593 722.114 39.2783C721.836 39.5973 721.658 40.0417 721.581 40.6113H724.746V40.4883C724.71 39.9323 724.561 39.513 724.302 39.2305C724.042 38.9434 723.682 38.7998 723.222 38.7998Z" fill="white"/>
<path d="M155.398 35H151.883L145.039 23.7734V35H141.523V17.9375H145.039L151.895 29.1875V17.9375H155.398V35ZM163.842 35.2344C161.983 35.2344 160.467 34.6641 159.295 33.5234C158.131 32.3828 157.549 30.8633 157.549 28.9648V28.6367C157.549 27.3633 157.795 26.2266 158.287 25.2266C158.78 24.2188 159.475 23.4453 160.373 22.9062C161.28 22.3594 162.311 22.0859 163.467 22.0859C165.201 22.0859 166.565 22.6328 167.557 23.7266C168.557 24.8203 169.057 26.3711 169.057 28.3789V29.7617H160.983C161.092 30.5898 161.42 31.2539 161.967 31.7539C162.522 32.2539 163.221 32.5039 164.065 32.5039C165.369 32.5039 166.389 32.0312 167.123 31.0859L168.787 32.9492C168.28 33.668 167.592 34.2305 166.725 34.6367C165.858 35.0352 164.897 35.2344 163.842 35.2344ZM163.455 24.8281C162.783 24.8281 162.237 25.0547 161.815 25.5078C161.401 25.9609 161.135 26.6094 161.018 27.4531H165.729V27.1836C165.713 26.4336 165.51 25.8555 165.119 25.4492C164.729 25.0352 164.174 24.8281 163.455 24.8281ZM176.586 35.2344C174.727 35.2344 173.211 34.6641 172.04 33.5234C170.875 32.3828 170.293 30.8633 170.293 28.9648V28.6367C170.293 27.3633 170.54 26.2266 171.032 25.2266C171.524 24.2188 172.219 23.4453 173.118 22.9062C174.024 22.3594 175.055 22.0859 176.211 22.0859C177.946 22.0859 179.309 22.6328 180.301 23.7266C181.301 24.8203 181.801 26.3711 181.801 28.3789V29.7617H173.727C173.836 30.5898 174.165 31.2539 174.711 31.7539C175.266 32.2539 175.965 32.5039 176.809 32.5039C178.114 32.5039 179.133 32.0312 179.868 31.0859L181.532 32.9492C181.024 33.668 180.336 34.2305 179.469 34.6367C178.602 35.0352 177.641 35.2344 176.586 35.2344ZM176.2 24.8281C175.528 24.8281 174.981 25.0547 174.559 25.5078C174.145 25.9609 173.879 26.6094 173.762 27.4531H178.473V27.1836C178.458 26.4336 178.254 25.8555 177.864 25.4492C177.473 25.0352 176.918 24.8281 176.2 24.8281ZM182.967 28.5664C182.967 26.5898 183.409 25.0156 184.292 23.8438C185.182 22.6719 186.397 22.0859 187.936 22.0859C189.171 22.0859 190.19 22.5469 190.995 23.4688V17H194.393V35H191.335L191.171 33.6523C190.327 34.707 189.241 35.2344 187.913 35.2344C186.421 35.2344 185.221 34.6484 184.315 33.4766C183.417 32.2969 182.967 30.6602 182.967 28.5664ZM186.354 28.8125C186.354 30 186.561 30.9102 186.975 31.543C187.389 32.1758 187.991 32.4922 188.78 32.4922C189.827 32.4922 190.565 32.0508 190.995 31.168V26.1641C190.573 25.2812 189.842 24.8398 188.803 24.8398C187.171 24.8398 186.354 26.1641 186.354 28.8125ZM205.691 22.3203L205.796 23.7383C206.695 22.6367 207.909 22.0859 209.441 22.0859C211.073 22.0859 212.195 22.7305 212.804 24.0195C213.695 22.7305 214.964 22.0859 216.613 22.0859C217.988 22.0859 219.011 22.4883 219.683 23.293C220.355 24.0898 220.691 25.293 220.691 26.9023V35H217.292V26.9141C217.292 26.1953 217.152 25.6719 216.87 25.3438C216.589 25.0078 216.093 24.8398 215.382 24.8398C214.366 24.8398 213.663 25.3242 213.273 26.293L213.284 35H209.898V26.9258C209.898 26.1914 209.753 25.6602 209.464 25.332C209.175 25.0039 208.683 24.8398 207.988 24.8398C207.027 24.8398 206.331 25.2383 205.902 26.0352V35H202.515V22.3203H205.691ZM222.537 28.543C222.537 27.2852 222.779 26.1641 223.263 25.1797C223.747 24.1953 224.443 23.4336 225.349 22.8945C226.263 22.3555 227.322 22.0859 228.525 22.0859C230.236 22.0859 231.63 22.6094 232.708 23.6562C233.794 24.7031 234.4 26.125 234.525 27.9219L234.548 28.7891C234.548 30.7344 234.005 32.2969 232.919 33.4766C231.833 34.6484 230.376 35.2344 228.548 35.2344C226.72 35.2344 225.259 34.6484 224.165 33.4766C223.08 32.3047 222.537 30.7109 222.537 28.6953V28.543ZM225.923 28.7891C225.923 29.9922 226.15 30.9141 226.603 31.5547C227.056 32.1875 227.705 32.5039 228.548 32.5039C229.369 32.5039 230.009 32.1914 230.47 31.5664C230.931 30.9336 231.162 29.9258 231.162 28.543C231.162 27.3633 230.931 26.4492 230.47 25.8008C230.009 25.1523 229.361 24.8281 228.525 24.8281C227.697 24.8281 227.056 25.1523 226.603 25.8008C226.15 26.4414 225.923 27.4375 225.923 28.7891ZM243.519 25.4961C243.058 25.4336 242.652 25.4023 242.3 25.4023C241.019 25.4023 240.179 25.8359 239.781 26.7031V35H236.394V22.3203H239.593L239.687 23.832C240.367 22.668 241.308 22.0859 242.511 22.0859C242.886 22.0859 243.238 22.1367 243.566 22.2383L243.519 25.4961ZM250.521 35.2344C248.662 35.2344 247.146 34.6641 245.975 33.5234C244.81 32.3828 244.228 30.8633 244.228 28.9648V28.6367C244.228 27.3633 244.475 26.2266 244.967 25.2266C245.459 24.2188 246.154 23.4453 247.053 22.9062C247.959 22.3594 248.99 22.0859 250.146 22.0859C251.881 22.0859 253.244 22.6328 254.236 23.7266C255.236 24.8203 255.736 26.3711 255.736 28.3789V29.7617H247.662C247.771 30.5898 248.1 31.2539 248.646 31.7539C249.201 32.2539 249.9 32.5039 250.744 32.5039C252.049 32.5039 253.068 32.0312 253.803 31.0859L255.467 32.9492C254.959 33.668 254.271 34.2305 253.404 34.6367C252.537 35.0352 251.576 35.2344 250.521 35.2344ZM250.135 24.8281C249.463 24.8281 248.916 25.0547 248.494 25.5078C248.08 25.9609 247.814 26.6094 247.697 27.4531H252.408V27.1836C252.393 26.4336 252.189 25.8555 251.799 25.4492C251.408 25.0352 250.853 24.8281 250.135 24.8281ZM274.58 28.7773C274.58 30.7305 274.135 32.2969 273.245 33.4766C272.362 34.6484 271.166 35.2344 269.659 35.2344C268.377 35.2344 267.342 34.7891 266.553 33.8984V39.875H263.166V22.3203H266.307L266.424 23.5625C267.245 22.5781 268.315 22.0859 269.635 22.0859C271.198 22.0859 272.413 22.6641 273.28 23.8203C274.147 24.9766 274.58 26.5703 274.58 28.6016V28.7773ZM271.194 28.5312C271.194 27.3516 270.983 26.4414 270.561 25.8008C270.147 25.1602 269.541 24.8398 268.745 24.8398C267.682 24.8398 266.952 25.2461 266.553 26.0586V31.25C266.967 32.0859 267.705 32.5039 268.768 32.5039C270.385 32.5039 271.194 31.1797 271.194 28.5312ZM275.923 28.543C275.923 27.2852 276.165 26.1641 276.649 25.1797C277.133 24.1953 277.829 23.4336 278.735 22.8945C279.649 22.3555 280.708 22.0859 281.911 22.0859C283.622 22.0859 285.016 22.6094 286.094 23.6562C287.18 24.7031 287.786 26.125 287.911 27.9219L287.934 28.7891C287.934 30.7344 287.391 32.2969 286.305 33.4766C285.219 34.6484 283.762 35.2344 281.934 35.2344C280.106 35.2344 278.645 34.6484 277.551 33.4766C276.465 32.3047 275.923 30.7109 275.923 28.6953V28.543ZM279.309 28.7891C279.309 29.9922 279.536 30.9141 279.989 31.5547C280.442 32.1875 281.09 32.5039 281.934 32.5039C282.755 32.5039 283.395 32.1914 283.856 31.5664C284.317 30.9336 284.548 29.9258 284.548 28.543C284.548 27.3633 284.317 26.4492 283.856 25.8008C283.395 25.1523 282.747 24.8281 281.911 24.8281C281.083 24.8281 280.442 25.1523 279.989 25.8008C279.536 26.4414 279.309 27.4375 279.309 28.7891ZM301.194 28.7773C301.194 30.7305 300.749 32.2969 299.858 33.4766C298.975 34.6484 297.78 35.2344 296.272 35.2344C294.991 35.2344 293.956 34.7891 293.167 33.8984V39.875H289.78V22.3203H292.921L293.038 23.5625C293.858 22.5781 294.929 22.0859 296.249 22.0859C297.811 22.0859 299.026 22.6641 299.893 23.8203C300.761 24.9766 301.194 26.5703 301.194 28.6016V28.7773ZM297.807 28.5312C297.807 27.3516 297.597 26.4414 297.175 25.8008C296.761 25.1602 296.155 24.8398 295.358 24.8398C294.296 24.8398 293.565 25.2461 293.167 26.0586V31.25C293.581 32.0859 294.319 32.5039 295.382 32.5039C296.999 32.5039 297.807 31.1797 297.807 28.5312ZM310.657 33.7109C309.821 34.7266 308.665 35.2344 307.189 35.2344C305.829 35.2344 304.79 34.8438 304.071 34.0625C303.36 33.2812 302.997 32.1367 302.982 30.6289V22.3203H306.368V30.5117C306.368 31.832 306.97 32.4922 308.173 32.4922C309.321 32.4922 310.11 32.0938 310.54 31.2969V22.3203H313.939V35H310.751L310.657 33.7109ZM327.667 28.7773C327.667 30.7305 327.222 32.2969 326.331 33.4766C325.449 34.6484 324.253 35.2344 322.745 35.2344C321.464 35.2344 320.429 34.7891 319.64 33.8984V39.875H316.253V22.3203H319.394L319.511 23.5625C320.331 22.5781 321.402 22.0859 322.722 22.0859C324.285 22.0859 325.499 22.6641 326.367 23.8203C327.234 24.9766 327.667 26.5703 327.667 28.6016V28.7773ZM324.281 28.5312C324.281 27.3516 324.07 26.4414 323.648 25.8008C323.234 25.1602 322.628 24.8398 321.831 24.8398C320.769 24.8398 320.038 25.2461 319.64 26.0586V31.25C320.054 32.0859 320.792 32.5039 321.855 32.5039C323.472 32.5039 324.281 31.1797 324.281 28.5312ZM339.328 19.2031V22.3203H341.496V24.8047H339.328V31.1328C339.328 31.6016 339.418 31.9375 339.598 32.1406C339.777 32.3438 340.121 32.4453 340.629 32.4453C341.004 32.4453 341.336 32.418 341.625 32.3633V34.9297C340.961 35.1328 340.277 35.2344 339.574 35.2344C337.199 35.2344 335.988 34.0352 335.941 31.6367V24.8047H334.09V22.3203H335.941V19.2031H339.328ZM348.979 35.2344C347.119 35.2344 345.604 34.6641 344.432 33.5234C343.268 32.3828 342.686 30.8633 342.686 28.9648V28.6367C342.686 27.3633 342.932 26.2266 343.424 25.2266C343.916 24.2188 344.611 23.4453 345.51 22.9062C346.416 22.3594 347.447 22.0859 348.604 22.0859C350.338 22.0859 351.701 22.6328 352.693 23.7266C353.693 24.8203 354.193 26.3711 354.193 28.3789V29.7617H346.119C346.229 30.5898 346.557 31.2539 347.104 31.7539C347.658 32.2539 348.357 32.5039 349.201 32.5039C350.506 32.5039 351.525 32.0312 352.26 31.0859L353.924 32.9492C353.416 33.668 352.729 34.2305 351.861 34.6367C350.994 35.0352 350.033 35.2344 348.979 35.2344ZM348.592 24.8281C347.92 24.8281 347.373 25.0547 346.951 25.5078C346.537 25.9609 346.272 26.6094 346.154 27.4531H350.865V27.1836C350.85 26.4336 350.647 25.8555 350.256 25.4492C349.865 25.0352 349.311 24.8281 348.592 24.8281ZM359.063 22.3203L359.168 23.7383C360.067 22.6367 361.282 22.0859 362.813 22.0859C364.446 22.0859 365.567 22.7305 366.176 24.0195C367.067 22.7305 368.336 22.0859 369.985 22.0859C371.36 22.0859 372.383 22.4883 373.055 23.293C373.727 24.0898 374.063 25.293 374.063 26.9023V35H370.664V26.9141C370.664 26.1953 370.524 25.6719 370.243 25.3438C369.961 25.0078 369.465 24.8398 368.754 24.8398C367.739 24.8398 367.035 25.3242 366.645 26.293L366.657 35H363.27V26.9258C363.27 26.1914 363.125 25.6602 362.836 25.332C362.547 25.0039 362.055 24.8398 361.36 24.8398C360.399 24.8398 359.703 25.2383 359.274 26.0352V35H355.887V22.3203H359.063ZM387.85 28.7773C387.85 30.7305 387.405 32.2969 386.514 33.4766C385.631 34.6484 384.436 35.2344 382.928 35.2344C381.647 35.2344 380.612 34.7891 379.823 33.8984V39.875H376.436V22.3203H379.577L379.694 23.5625C380.514 22.5781 381.585 22.0859 382.905 22.0859C384.467 22.0859 385.682 22.6641 386.549 23.8203C387.417 24.9766 387.85 26.5703 387.85 28.6016V28.7773ZM384.463 28.5312C384.463 27.3516 384.253 26.4414 383.831 25.8008C383.417 25.1602 382.811 24.8398 382.014 24.8398C380.952 24.8398 380.221 25.2461 379.823 26.0586V31.25C380.237 32.0859 380.975 32.5039 382.038 32.5039C383.655 32.5039 384.463 31.1797 384.463 28.5312ZM393.294 35H389.895V17H393.294V35ZM403.202 35C403.046 34.6953 402.933 34.3164 402.862 33.8633C402.042 34.7773 400.976 35.2344 399.663 35.2344C398.421 35.2344 397.39 34.875 396.569 34.1562C395.757 33.4375 395.351 32.5312 395.351 31.4375C395.351 30.0938 395.847 29.0625 396.839 28.3438C397.839 27.625 399.28 27.2617 401.163 27.2539H402.722V26.5273C402.722 25.9414 402.569 25.4727 402.265 25.1211C401.968 24.7695 401.495 24.5938 400.847 24.5938C400.276 24.5938 399.827 24.7305 399.499 25.0039C399.179 25.2773 399.019 25.6523 399.019 26.1289H395.632C395.632 25.3945 395.858 24.7148 396.312 24.0898C396.765 23.4648 397.405 22.9766 398.233 22.625C399.062 22.2656 399.991 22.0859 401.023 22.0859C402.585 22.0859 403.823 22.4805 404.737 23.2695C405.659 24.0508 406.12 25.1523 406.12 26.5742V32.0703C406.128 33.2734 406.296 34.1836 406.624 34.8008V35H403.202ZM400.401 32.6445C400.901 32.6445 401.362 32.5352 401.784 32.3164C402.206 32.0898 402.519 31.7891 402.722 31.4141V29.2344H401.456C399.761 29.2344 398.858 29.8203 398.749 30.9922L398.737 31.1914C398.737 31.6133 398.886 31.9609 399.183 32.2344C399.48 32.5078 399.886 32.6445 400.401 32.6445ZM412.536 19.2031V22.3203H414.704V24.8047H412.536V31.1328C412.536 31.6016 412.626 31.9375 412.806 32.1406C412.986 32.3438 413.329 32.4453 413.837 32.4453C414.212 32.4453 414.544 32.418 414.833 32.3633V34.9297C414.169 35.1328 413.486 35.2344 412.783 35.2344C410.408 35.2344 409.197 34.0352 409.15 31.6367V24.8047H407.298V22.3203H409.15V19.2031H412.536ZM422.187 35.2344C420.328 35.2344 418.812 34.6641 417.64 33.5234C416.476 32.3828 415.894 30.8633 415.894 28.9648V28.6367C415.894 27.3633 416.14 26.2266 416.632 25.2266C417.125 24.2188 417.82 23.4453 418.718 22.9062C419.625 22.3594 420.656 22.0859 421.812 22.0859C423.546 22.0859 424.91 22.6328 425.902 23.7266C426.902 24.8203 427.402 26.3711 427.402 28.3789V29.7617H419.328C419.437 30.5898 419.765 31.2539 420.312 31.7539C420.867 32.2539 421.566 32.5039 422.41 32.5039C423.714 32.5039 424.734 32.0312 425.468 31.0859L427.132 32.9492C426.625 33.668 425.937 34.2305 425.07 34.6367C424.203 35.0352 423.242 35.2344 422.187 35.2344ZM421.8 24.8281C421.128 24.8281 420.582 25.0547 420.16 25.5078C419.746 25.9609 419.48 26.6094 419.363 27.4531H424.074V27.1836C424.058 26.4336 423.855 25.8555 423.464 25.4492C423.074 25.0352 422.519 24.8281 421.8 24.8281ZM435.963 31.4961C435.963 31.082 435.756 30.7578 435.342 30.5234C434.935 30.2812 434.279 30.0664 433.373 29.8789C430.357 29.2461 428.849 27.9648 428.849 26.0352C428.849 24.9102 429.314 23.9727 430.244 23.2227C431.181 22.4648 432.404 22.0859 433.912 22.0859C435.521 22.0859 436.806 22.4648 437.767 23.2227C438.736 23.9805 439.22 24.9648 439.22 26.1758H435.834C435.834 25.6914 435.677 25.293 435.365 24.9805C435.052 24.6602 434.564 24.5 433.9 24.5C433.33 24.5 432.888 24.6289 432.576 24.8867C432.263 25.1445 432.107 25.4727 432.107 25.8711C432.107 26.2461 432.283 26.5508 432.635 26.7852C432.994 27.0117 433.595 27.2109 434.439 27.3828C435.283 27.5469 435.994 27.7344 436.572 27.9453C438.361 28.6016 439.256 29.7383 439.256 31.3555C439.256 32.5117 438.76 33.4492 437.767 34.168C436.775 34.8789 435.494 35.2344 433.924 35.2344C432.861 35.2344 431.916 35.0469 431.088 34.6719C430.267 34.2891 429.623 33.7695 429.154 33.1133C428.685 32.4492 428.451 31.7344 428.451 30.9688H431.662C431.693 31.5703 431.916 32.0312 432.33 32.3516C432.744 32.6719 433.299 32.832 433.994 32.832C434.642 32.832 435.131 32.7109 435.459 32.4688C435.795 32.2188 435.963 31.8945 435.963 31.4961ZM447.869 35V24.8047H445.983V22.3203H447.869V21.2422C447.869 19.8203 448.276 18.7188 449.088 17.9375C449.908 17.1484 451.053 16.7539 452.522 16.7539C452.99 16.7539 453.565 16.832 454.244 16.9883L454.209 19.6133C453.928 19.543 453.584 19.5078 453.178 19.5078C451.905 19.5078 451.268 20.1055 451.268 21.3008V22.3203H453.787V24.8047H451.268V35H447.869ZM454.778 28.543C454.778 27.2852 455.02 26.1641 455.504 25.1797C455.989 24.1953 456.684 23.4336 457.59 22.8945C458.504 22.3555 459.563 22.0859 460.766 22.0859C462.477 22.0859 463.872 22.6094 464.95 23.6562C466.036 24.7031 466.641 26.125 466.766 27.9219L466.79 28.7891C466.79 30.7344 466.247 32.2969 465.161 33.4766C464.075 34.6484 462.618 35.2344 460.79 35.2344C458.961 35.2344 457.5 34.6484 456.407 33.4766C455.321 32.3047 454.778 30.7109 454.778 28.6953V28.543ZM458.165 28.7891C458.165 29.9922 458.391 30.9141 458.844 31.5547C459.297 32.1875 459.946 32.5039 460.79 32.5039C461.61 32.5039 462.25 32.1914 462.711 31.5664C463.172 30.9336 463.403 29.9258 463.403 28.543C463.403 27.3633 463.172 26.4492 462.711 25.8008C462.25 25.1523 461.602 24.8281 460.766 24.8281C459.938 24.8281 459.297 25.1523 458.844 25.8008C458.391 26.4414 458.165 27.4375 458.165 28.7891ZM475.76 25.4961C475.3 25.4336 474.893 25.4023 474.542 25.4023C473.26 25.4023 472.421 25.8359 472.022 26.7031V35H468.635V22.3203H471.835L471.928 23.832C472.608 22.668 473.55 22.0859 474.753 22.0859C475.128 22.0859 475.479 22.1367 475.807 22.2383L475.76 25.4961ZM490.855 30.5117C490.855 29.8711 490.675 29.3633 490.316 28.9883C489.964 28.6055 489.363 28.2539 488.511 27.9336C487.659 27.6133 486.925 27.2969 486.308 26.9844C485.691 26.6641 485.159 26.3008 484.714 25.8945C484.277 25.4805 483.933 24.9961 483.683 24.4414C483.441 23.8867 483.32 23.2266 483.32 22.4609C483.32 21.1406 483.741 20.0586 484.585 19.2148C485.429 18.3711 486.55 17.8789 487.948 17.7383V15.2305H489.823V17.7734C491.206 17.9688 492.288 18.5469 493.07 19.5078C493.851 20.4609 494.241 21.6992 494.241 23.2227H490.855C490.855 22.2852 490.659 21.5859 490.269 21.125C489.886 20.6562 489.37 20.4219 488.722 20.4219C488.081 20.4219 487.585 20.6055 487.234 20.9727C486.882 21.332 486.706 21.832 486.706 22.4727C486.706 23.0664 486.878 23.543 487.222 23.9023C487.566 24.2617 488.202 24.6289 489.132 25.0039C490.07 25.3789 490.839 25.7344 491.441 26.0703C492.042 26.3984 492.55 26.7734 492.964 27.1953C493.378 27.6094 493.695 28.0859 493.913 28.625C494.132 29.1562 494.241 29.7773 494.241 30.4883C494.241 31.8164 493.827 32.8945 492.999 33.7227C492.171 34.5508 491.03 35.0391 489.577 35.1875V37.5195H487.714V35.1992C486.113 35.0273 484.87 34.4609 483.988 33.5C483.113 32.5312 482.675 31.2461 482.675 29.6445H486.062C486.062 30.5742 486.28 31.2891 486.718 31.7891C487.163 32.2812 487.8 32.5273 488.628 32.5273C489.316 32.5273 489.859 32.3477 490.257 31.9883C490.655 31.6211 490.855 31.1289 490.855 30.5117ZM504.525 35H501.138V21.9453L497.095 23.1992V20.4453L504.162 17.9141H504.525V35ZM511.047 36.4648H508.527L514.808 17.9375H517.328L511.047 36.4648ZM530.131 28.7773C530.131 30.7305 529.685 32.2969 528.795 33.4766C527.912 34.6484 526.717 35.2344 525.209 35.2344C523.928 35.2344 522.893 34.7891 522.103 33.8984V39.875H518.717V22.3203H521.857L521.975 23.5625C522.795 22.5781 523.865 22.0859 525.185 22.0859C526.748 22.0859 527.963 22.6641 528.83 23.8203C529.697 24.9766 530.131 26.5703 530.131 28.6016V28.7773ZM526.744 28.5312C526.744 27.3516 526.533 26.4414 526.111 25.8008C525.697 25.1602 525.092 24.8398 524.295 24.8398C523.232 24.8398 522.502 25.2461 522.103 26.0586V31.25C522.518 32.0859 523.256 32.5039 524.318 32.5039C525.935 32.5039 526.744 31.1797 526.744 28.5312ZM535.574 35H532.176V22.3203H535.574V35ZM531.977 19.0391C531.977 18.5312 532.145 18.1133 532.481 17.7852C532.824 17.457 533.289 17.293 533.875 17.293C534.453 17.293 534.914 17.457 535.258 17.7852C535.602 18.1133 535.774 18.5312 535.774 19.0391C535.774 19.5547 535.598 19.9766 535.246 20.3047C534.902 20.6328 534.445 20.7969 533.875 20.7969C533.305 20.7969 532.844 20.6328 532.492 20.3047C532.149 19.9766 531.977 19.5547 531.977 19.0391ZM543.971 35.2344C542.112 35.2344 540.596 34.6641 539.424 33.5234C538.26 32.3828 537.678 30.8633 537.678 28.9648V28.6367C537.678 27.3633 537.924 26.2266 538.416 25.2266C538.909 24.2188 539.604 23.4453 540.502 22.9062C541.409 22.3594 542.44 22.0859 543.596 22.0859C545.33 22.0859 546.694 22.6328 547.686 23.7266C548.686 24.8203 549.186 26.3711 549.186 28.3789V29.7617H541.112C541.221 30.5898 541.549 31.2539 542.096 31.7539C542.651 32.2539 543.35 32.5039 544.194 32.5039C545.498 32.5039 546.518 32.0312 547.252 31.0859L548.916 32.9492C548.409 33.668 547.721 34.2305 546.854 34.6367C545.987 35.0352 545.026 35.2344 543.971 35.2344ZM543.584 24.8281C542.913 24.8281 542.366 25.0547 541.944 25.5078C541.53 25.9609 541.264 26.6094 541.147 27.4531H545.858V27.1836C545.842 26.4336 545.639 25.8555 545.248 25.4492C544.858 25.0352 544.303 24.8281 543.584 24.8281ZM556.153 32.5039C556.778 32.5039 557.286 32.332 557.676 31.9883C558.067 31.6445 558.27 31.1875 558.286 30.6172H561.462C561.454 31.4766 561.219 32.2656 560.758 32.9844C560.298 33.6953 559.665 34.25 558.86 34.6484C558.063 35.0391 557.18 35.2344 556.212 35.2344C554.399 35.2344 552.969 34.6602 551.923 33.5117C550.876 32.3555 550.352 30.7617 550.352 28.7305V28.5078C550.352 26.5547 550.872 24.9961 551.911 23.832C552.95 22.668 554.376 22.0859 556.188 22.0859C557.774 22.0859 559.044 22.5391 559.997 23.4453C560.958 24.3438 561.446 25.543 561.462 27.043H558.286C558.27 26.3867 558.067 25.8555 557.676 25.4492C557.286 25.0352 556.77 24.8281 556.13 24.8281C555.34 24.8281 554.743 25.1172 554.337 25.6953C553.938 26.2656 553.739 27.1953 553.739 28.4844V28.8359C553.739 30.1406 553.938 31.0781 554.337 31.6484C554.735 32.2188 555.34 32.5039 556.153 32.5039ZM568.991 35.2344C567.132 35.2344 565.616 34.6641 564.444 33.5234C563.28 32.3828 562.698 30.8633 562.698 28.9648V28.6367C562.698 27.3633 562.944 26.2266 563.436 25.2266C563.929 24.2188 564.624 23.4453 565.522 22.9062C566.429 22.3594 567.46 22.0859 568.616 22.0859C570.35 22.0859 571.714 22.6328 572.706 23.7266C573.706 24.8203 574.206 26.3711 574.206 28.3789V29.7617H566.132C566.241 30.5898 566.569 31.2539 567.116 31.7539C567.671 32.2539 568.37 32.5039 569.214 32.5039C570.518 32.5039 571.538 32.0312 572.272 31.0859L573.936 32.9492C573.429 33.668 572.741 34.2305 571.874 34.6367C571.007 35.0352 570.046 35.2344 568.991 35.2344ZM568.604 24.8281C567.932 24.8281 567.386 25.0547 566.964 25.5078C566.55 25.9609 566.284 26.6094 566.167 27.4531H570.878V27.1836C570.862 26.4336 570.659 25.8555 570.268 25.4492C569.878 25.0352 569.323 24.8281 568.604 24.8281ZM578.665 29.7617C578.665 28.668 578.798 27.7969 579.064 27.1484C579.329 26.5 579.814 25.8633 580.517 25.2383C581.228 24.6055 581.7 24.0938 581.935 23.7031C582.169 23.3047 582.286 22.8867 582.286 22.4492C582.286 21.1289 581.677 20.4688 580.458 20.4688C579.88 20.4688 579.415 20.6484 579.064 21.0078C578.72 21.3594 578.54 21.8477 578.525 22.4727H575.126C575.142 20.9805 575.622 19.8125 576.568 18.9688C577.521 18.125 578.818 17.7031 580.458 17.7031C582.114 17.7031 583.4 18.1055 584.314 18.9102C585.228 19.707 585.685 20.8359 585.685 22.2969C585.685 22.9609 585.536 23.5898 585.239 24.1836C584.943 24.7695 584.423 25.4219 583.681 26.1406L582.732 27.043C582.138 27.6133 581.798 28.2812 581.712 29.0469L581.665 29.7617H578.665ZM578.325 33.3594C578.325 32.8359 578.501 32.4062 578.853 32.0703C579.212 31.7266 579.669 31.5547 580.224 31.5547C580.778 31.5547 581.232 31.7266 581.583 32.0703C581.943 32.4062 582.122 32.8359 582.122 33.3594C582.122 33.875 581.946 34.3008 581.595 34.6367C581.251 34.9727 580.794 35.1406 580.224 35.1406C579.653 35.1406 579.193 34.9727 578.841 34.6367C578.497 34.3008 578.325 33.875 578.325 33.3594Z" fill="white"/>
<path d="M151.326 56.4146C150.917 57.0011 150.344 57.4411 149.608 57.7344C148.877 58.0221 148.025 58.166 147.051 58.166C146.066 58.166 145.192 57.9364 144.428 57.4771C143.665 57.0122 143.072 56.3537 142.652 55.5015C142.237 54.6493 142.024 53.6615 142.013 52.5381V51.4839C142.013 49.6632 142.436 48.2521 143.283 47.2505C144.135 46.2489 145.33 45.748 146.869 45.748C148.13 45.748 149.146 46.0718 149.915 46.7192C150.684 47.3612 151.155 48.2743 151.326 49.4585H149.732C149.434 47.8592 148.482 47.0596 146.877 47.0596C145.809 47.0596 144.998 47.4359 144.445 48.1885C143.897 48.9355 143.62 50.0202 143.615 51.4424V52.4302C143.615 53.786 143.925 54.8651 144.544 55.6675C145.164 56.4644 146.003 56.8628 147.06 56.8628C147.657 56.8628 148.18 56.7964 148.628 56.6636C149.077 56.5308 149.447 56.3066 149.741 55.9912V53.2769H146.943V51.9819H151.326V56.4146ZM157.477 58.166C156.26 58.166 155.269 57.7676 154.505 56.9707C153.742 56.1683 153.36 55.0975 153.36 53.7583V53.4761C153.36 52.5851 153.529 51.791 153.866 51.0938C154.209 50.391 154.685 49.8431 155.294 49.4502C155.908 49.0518 156.572 48.8525 157.286 48.8525C158.454 48.8525 159.361 49.2371 160.009 50.0063C160.656 50.7756 160.98 51.8768 160.98 53.3101V53.9492H154.896C154.918 54.8346 155.175 55.5513 155.667 56.0991C156.166 56.6414 156.796 56.9126 157.56 56.9126C158.102 56.9126 158.562 56.8019 158.938 56.5806C159.314 56.3592 159.644 56.0659 159.926 55.7007L160.864 56.4312C160.111 57.5877 158.982 58.166 157.477 58.166ZM157.286 50.1143C156.666 50.1143 156.146 50.3411 155.726 50.7949C155.305 51.2432 155.045 51.874 154.945 52.6875H159.444V52.5713C159.4 51.791 159.19 51.1878 158.813 50.7617C158.437 50.3301 157.928 50.1143 157.286 50.1143ZM164.848 46.8438V49.0186H166.525V50.2056H164.848V55.7754C164.848 56.1351 164.923 56.4062 165.072 56.5889C165.222 56.766 165.476 56.8545 165.836 56.8545C166.013 56.8545 166.257 56.8213 166.566 56.7549V58C166.162 58.1107 165.77 58.166 165.388 58.166C164.701 58.166 164.184 57.9585 163.835 57.5435C163.487 57.1284 163.312 56.5391 163.312 55.7754V50.2056H161.677V49.0186H163.312V46.8438H164.848ZM173.987 49.0186L174.029 50.0146C174.687 49.2399 175.576 48.8525 176.693 48.8525C177.95 48.8525 178.805 49.334 179.258 50.2969C179.557 49.8652 179.944 49.5166 180.42 49.251C180.902 48.9854 181.469 48.8525 182.122 48.8525C184.092 48.8525 185.094 49.8957 185.127 51.9819V58H183.591V52.0732C183.591 51.4313 183.445 50.9526 183.151 50.6372C182.858 50.3162 182.366 50.1558 181.674 50.1558C181.104 50.1558 180.631 50.3273 180.254 50.6704C179.878 51.008 179.66 51.4645 179.599 52.04V58H178.055V52.1147C178.055 50.8088 177.416 50.1558 176.137 50.1558C175.13 50.1558 174.441 50.5846 174.07 51.4424V58H172.535V49.0186H173.987ZM187.044 53.4263C187.044 52.5464 187.216 51.755 187.559 51.0522C187.908 50.3494 188.389 49.8071 189.003 49.4253C189.623 49.0435 190.329 48.8525 191.12 48.8525C192.343 48.8525 193.331 49.2759 194.083 50.1226C194.842 50.9692 195.221 52.0954 195.221 53.501V53.6089C195.221 54.4832 195.052 55.269 194.714 55.9663C194.382 56.658 193.904 57.1976 193.278 57.585C192.659 57.9723 191.945 58.166 191.137 58.166C189.919 58.166 188.931 57.7427 188.173 56.896C187.421 56.0493 187.044 54.9287 187.044 53.5342V53.4263ZM188.588 53.6089C188.588 54.605 188.818 55.4046 189.277 56.0078C189.742 56.611 190.362 56.9126 191.137 56.9126C191.917 56.9126 192.537 56.6082 192.996 55.9995C193.455 55.3853 193.685 54.5275 193.685 53.4263C193.685 52.4412 193.45 51.6444 192.979 51.0356C192.515 50.4214 191.895 50.1143 191.12 50.1143C190.362 50.1143 189.75 50.4159 189.286 51.019C188.821 51.6222 188.588 52.4855 188.588 53.6089ZM201.488 50.3965C201.255 50.3577 201.004 50.3384 200.732 50.3384C199.725 50.3384 199.042 50.7673 198.682 51.625V58H197.146V49.0186H198.641L198.666 50.0562C199.169 49.2537 199.883 48.8525 200.807 48.8525C201.106 48.8525 201.333 48.8913 201.488 48.9688V50.3965ZM206.468 58.166C205.251 58.166 204.26 57.7676 203.497 56.9707C202.733 56.1683 202.351 55.0975 202.351 53.7583V53.4761C202.351 52.5851 202.52 51.791 202.857 51.0938C203.201 50.391 203.676 49.8431 204.285 49.4502C204.899 49.0518 205.563 48.8525 206.277 48.8525C207.445 48.8525 208.353 49.2371 209 50.0063C209.647 50.7756 209.971 51.8768 209.971 53.3101V53.9492H203.887C203.909 54.8346 204.166 55.5513 204.659 56.0991C205.157 56.6414 205.788 56.9126 206.551 56.9126C207.094 56.9126 207.553 56.8019 207.929 56.5806C208.306 56.3592 208.635 56.0659 208.917 55.7007L209.855 56.4312C209.102 57.5877 207.973 58.166 206.468 58.166ZM206.277 50.1143C205.658 50.1143 205.137 50.3411 204.717 50.7949C204.296 51.2432 204.036 51.874 203.937 52.6875H208.436V52.5713C208.391 51.791 208.181 51.1878 207.805 50.7617C207.428 50.3301 206.919 50.1143 206.277 50.1143ZM221.518 58C221.429 57.8229 221.357 57.5075 221.302 57.0537C220.588 57.7952 219.736 58.166 218.745 58.166C217.86 58.166 217.132 57.917 216.562 57.4189C215.998 56.9154 215.715 56.279 215.715 55.5098C215.715 54.5745 216.069 53.8496 216.778 53.335C217.492 52.8148 218.493 52.5547 219.783 52.5547H221.277V51.8491C221.277 51.3123 221.116 50.8862 220.795 50.5708C220.474 50.2498 220.001 50.0894 219.376 50.0894C218.828 50.0894 218.369 50.2277 217.998 50.5044C217.627 50.7811 217.442 51.1159 217.442 51.5088H215.898C215.898 51.0605 216.056 50.6289 216.371 50.2139C216.692 49.7933 217.124 49.4613 217.666 49.2178C218.214 48.9743 218.814 48.8525 219.467 48.8525C220.502 48.8525 221.313 49.1126 221.899 49.6328C222.486 50.1475 222.79 50.8586 222.812 51.7661V55.8999C222.812 56.7244 222.918 57.3802 223.128 57.8672V58H221.518ZM218.969 56.8296C219.451 56.8296 219.907 56.7051 220.339 56.4561C220.771 56.207 221.083 55.8833 221.277 55.4849V53.6421H220.073C218.192 53.6421 217.251 54.1927 217.251 55.2939C217.251 55.7754 217.411 56.1517 217.732 56.4229C218.053 56.694 218.466 56.8296 218.969 56.8296ZM233.172 55.8833L234.898 49.0186H236.434L233.819 58H232.574L230.391 51.1934L228.266 58H227.021L224.415 49.0186H225.942L227.71 55.7422L229.802 49.0186H231.039L233.172 55.8833ZM241.73 58.166C240.513 58.166 239.522 57.7676 238.758 56.9707C237.995 56.1683 237.613 55.0975 237.613 53.7583V53.4761C237.613 52.5851 237.782 51.791 238.119 51.0938C238.462 50.391 238.938 49.8431 239.547 49.4502C240.161 49.0518 240.825 48.8525 241.539 48.8525C242.707 48.8525 243.614 49.2371 244.262 50.0063C244.909 50.7756 245.233 51.8768 245.233 53.3101V53.9492H239.148C239.171 54.8346 239.428 55.5513 239.92 56.0991C240.418 56.6414 241.049 56.9126 241.813 56.9126C242.355 56.9126 242.815 56.8019 243.191 56.5806C243.567 56.3592 243.896 56.0659 244.179 55.7007L245.117 56.4312C244.364 57.5877 243.235 58.166 241.73 58.166ZM241.539 50.1143C240.919 50.1143 240.399 50.3411 239.979 50.7949C239.558 51.2432 239.298 51.874 239.198 52.6875H243.697V52.5713C243.653 51.791 243.443 51.1878 243.066 50.7617C242.69 50.3301 242.181 50.1143 241.539 50.1143ZM252.247 55.6177C252.247 55.2026 252.089 54.8817 251.774 54.6548C251.464 54.4224 250.919 54.2231 250.139 54.0571C249.364 53.8911 248.747 53.6919 248.288 53.4595C247.834 53.2271 247.496 52.9504 247.275 52.6294C247.059 52.3084 246.951 51.9266 246.951 51.4839C246.951 50.7479 247.261 50.1253 247.881 49.6162C248.506 49.1071 249.303 48.8525 250.271 48.8525C251.29 48.8525 252.114 49.1154 252.745 49.6411C253.382 50.1668 253.7 50.8392 253.7 51.6582H252.156C252.156 51.2376 251.976 50.8752 251.616 50.5708C251.262 50.2664 250.814 50.1143 250.271 50.1143C249.713 50.1143 249.275 50.236 248.96 50.4795C248.645 50.723 248.487 51.0412 248.487 51.4341C248.487 51.8049 248.633 52.0843 248.927 52.2725C249.22 52.4606 249.749 52.6405 250.512 52.812C251.281 52.9836 251.904 53.1883 252.38 53.4263C252.856 53.6642 253.207 53.952 253.434 54.2896C253.667 54.6216 253.783 55.0283 253.783 55.5098C253.783 56.3122 253.462 56.9569 252.82 57.4438C252.178 57.9253 251.345 58.166 250.321 58.166C249.602 58.166 248.965 58.0387 248.412 57.7842C247.859 57.5296 247.424 57.1755 247.109 56.7217C246.799 56.2624 246.644 55.7671 246.644 55.2358H248.18C248.207 55.7505 248.412 56.16 248.794 56.4644C249.181 56.7632 249.69 56.9126 250.321 56.9126C250.902 56.9126 251.367 56.7964 251.716 56.564C252.07 56.326 252.247 56.0106 252.247 55.6177ZM255.376 53.4263C255.376 52.5464 255.548 51.755 255.891 51.0522C256.24 50.3494 256.721 49.8071 257.335 49.4253C257.955 49.0435 258.661 48.8525 259.452 48.8525C260.675 48.8525 261.663 49.2759 262.416 50.1226C263.174 50.9692 263.553 52.0954 263.553 53.501V53.6089C263.553 54.4832 263.384 55.269 263.046 55.9663C262.714 56.658 262.236 57.1976 261.61 57.585C260.991 57.9723 260.277 58.166 259.469 58.166C258.251 58.166 257.264 57.7427 256.505 56.896C255.753 56.0493 255.376 54.9287 255.376 53.5342V53.4263ZM256.92 53.6089C256.92 54.605 257.15 55.4046 257.609 56.0078C258.074 56.611 258.694 56.9126 259.469 56.9126C260.249 56.9126 260.869 56.6082 261.328 55.9995C261.787 55.3853 262.017 54.5275 262.017 53.4263C262.017 52.4412 261.782 51.6444 261.312 51.0356C260.847 50.4214 260.227 50.1143 259.452 50.1143C258.694 50.1143 258.083 50.4159 257.618 51.019C257.153 51.6222 256.92 52.4855 256.92 53.6089ZM266.923 49.0186L266.964 50.0146C267.623 49.2399 268.511 48.8525 269.629 48.8525C270.885 48.8525 271.74 49.334 272.194 50.2969C272.493 49.8652 272.88 49.5166 273.356 49.251C273.837 48.9854 274.405 48.8525 275.058 48.8525C277.028 48.8525 278.029 49.8957 278.062 51.9819V58H276.527V52.0732C276.527 51.4313 276.38 50.9526 276.087 50.6372C275.794 50.3162 275.301 50.1558 274.609 50.1558C274.039 50.1558 273.566 50.3273 273.19 50.6704C272.814 51.008 272.595 51.4645 272.534 52.04V58H270.99V52.1147C270.99 50.8088 270.351 50.1558 269.073 50.1558C268.066 50.1558 267.377 50.5846 267.006 51.4424V58H265.47V49.0186H266.923ZM284.114 58.166C282.896 58.166 281.906 57.7676 281.142 56.9707C280.378 56.1683 279.997 55.0975 279.997 53.7583V53.4761C279.997 52.5851 280.165 51.791 280.503 51.0938C280.846 50.391 281.322 49.8431 281.931 49.4502C282.545 49.0518 283.209 48.8525 283.923 48.8525C285.09 48.8525 285.998 49.2371 286.646 50.0063C287.293 50.7756 287.617 51.8768 287.617 53.3101V53.9492H281.532C281.554 54.8346 281.812 55.5513 282.304 56.0991C282.802 56.6414 283.433 56.9126 284.197 56.9126C284.739 56.9126 285.198 56.8019 285.575 56.5806C285.951 56.3592 286.28 56.0659 286.562 55.7007L287.5 56.4312C286.748 57.5877 285.619 58.166 284.114 58.166ZM283.923 50.1143C283.303 50.1143 282.783 50.3411 282.362 50.7949C281.942 51.2432 281.682 51.874 281.582 52.6875H286.081V52.5713C286.037 51.791 285.826 51.1878 285.45 50.7617C285.074 50.3301 284.565 50.1143 283.923 50.1143ZM301.205 53.6089C301.205 54.9757 300.892 56.077 300.267 56.9126C299.642 57.7482 298.795 58.166 297.727 58.166C296.637 58.166 295.779 57.8201 295.154 57.1284V61.4531H293.618V49.0186H295.021L295.096 50.0146C295.721 49.2399 296.59 48.8525 297.702 48.8525C298.781 48.8525 299.633 49.2593 300.259 50.0728C300.89 50.8862 301.205 52.0179 301.205 53.4678V53.6089ZM299.669 53.4346C299.669 52.4219 299.454 51.6222 299.022 51.0356C298.59 50.4491 297.998 50.1558 297.246 50.1558C296.316 50.1558 295.619 50.568 295.154 51.3926V55.6841C295.613 56.5031 296.316 56.9126 297.262 56.9126C297.998 56.9126 298.582 56.6221 299.014 56.041C299.451 55.4544 299.669 54.5856 299.669 53.4346ZM302.757 53.4263C302.757 52.5464 302.929 51.755 303.272 51.0522C303.621 50.3494 304.102 49.8071 304.716 49.4253C305.336 49.0435 306.042 48.8525 306.833 48.8525C308.056 48.8525 309.044 49.2759 309.796 50.1226C310.555 50.9692 310.934 52.0954 310.934 53.501V53.6089C310.934 54.4832 310.765 55.269 310.427 55.9663C310.095 56.658 309.617 57.1976 308.991 57.585C308.371 57.9723 307.658 58.166 306.85 58.166C305.632 58.166 304.644 57.7427 303.886 56.896C303.134 56.0493 302.757 54.9287 302.757 53.5342V53.4263ZM304.301 53.6089C304.301 54.605 304.531 55.4046 304.99 56.0078C305.455 56.611 306.075 56.9126 306.85 56.9126C307.63 56.9126 308.25 56.6082 308.709 55.9995C309.168 55.3853 309.398 54.5275 309.398 53.4263C309.398 52.4412 309.163 51.6444 308.692 51.0356C308.228 50.4214 307.608 50.1143 306.833 50.1143C306.075 50.1143 305.463 50.4159 304.999 51.019C304.534 51.6222 304.301 52.4855 304.301 53.6089ZM320.446 53.6089C320.446 54.9757 320.134 56.077 319.508 56.9126C318.883 57.7482 318.036 58.166 316.968 58.166C315.878 58.166 315.02 57.8201 314.395 57.1284V61.4531H312.859V49.0186H314.262L314.337 50.0146C314.962 49.2399 315.831 48.8525 316.943 48.8525C318.022 48.8525 318.875 49.2593 319.5 50.0728C320.131 50.8862 320.446 52.0179 320.446 53.4678V53.6089ZM318.911 53.4346C318.911 52.4219 318.695 51.6222 318.263 51.0356C317.832 50.4491 317.239 50.1558 316.487 50.1558C315.557 50.1558 314.86 50.568 314.395 51.3926V55.6841C314.854 56.5031 315.557 56.9126 316.503 56.9126C317.239 56.9126 317.823 56.6221 318.255 56.041C318.692 55.4544 318.911 54.5856 318.911 53.4346ZM327.95 57.1118C327.353 57.8146 326.475 58.166 325.319 58.166C324.361 58.166 323.631 57.8893 323.127 57.3359C322.629 56.777 322.378 55.9525 322.372 54.8623V49.0186H323.908V54.8208C323.908 56.1821 324.461 56.8628 325.568 56.8628C326.741 56.8628 327.521 56.4256 327.909 55.5513V49.0186H329.444V58H327.983L327.95 57.1118ZM339.372 53.6089C339.372 54.9757 339.059 56.077 338.434 56.9126C337.809 57.7482 336.962 58.166 335.894 58.166C334.804 58.166 333.946 57.8201 333.321 57.1284V61.4531H331.785V49.0186H333.188L333.263 50.0146C333.888 49.2399 334.757 48.8525 335.869 48.8525C336.948 48.8525 337.8 49.2593 338.426 50.0728C339.057 50.8862 339.372 52.0179 339.372 53.4678V53.6089ZM337.836 53.4346C337.836 52.4219 337.621 51.6222 337.189 51.0356C336.757 50.4491 336.165 50.1558 335.413 50.1558C334.483 50.1558 333.786 50.568 333.321 51.3926V55.6841C333.78 56.5031 334.483 56.9126 335.429 56.9126C336.165 56.9126 336.749 56.6221 337.181 56.041C337.618 55.4544 337.836 54.5856 337.836 53.4346ZM347.631 46.8438V49.0186H349.308V50.2056H347.631V55.7754C347.631 56.1351 347.706 56.4062 347.855 56.5889C348.005 56.766 348.259 56.8545 348.619 56.8545C348.796 56.8545 349.04 56.8213 349.35 56.7549V58C348.946 58.1107 348.553 58.166 348.171 58.166C347.485 58.166 346.967 57.9585 346.619 57.5435C346.27 57.1284 346.096 56.5391 346.096 55.7754V50.2056H344.46V49.0186H346.096V46.8438H347.631ZM354.836 58.166C353.619 58.166 352.628 57.7676 351.865 56.9707C351.101 56.1683 350.719 55.0975 350.719 53.7583V53.4761C350.719 52.5851 350.888 51.791 351.226 51.0938C351.569 50.391 352.045 49.8431 352.653 49.4502C353.268 49.0518 353.932 48.8525 354.646 48.8525C355.813 48.8525 356.721 49.2371 357.368 50.0063C358.016 50.7756 358.339 51.8768 358.339 53.3101V53.9492H352.255C352.277 54.8346 352.534 55.5513 353.027 56.0991C353.525 56.6414 354.156 56.9126 354.919 56.9126C355.462 56.9126 355.921 56.8019 356.297 56.5806C356.674 56.3592 357.003 56.0659 357.285 55.7007L358.223 56.4312C357.471 57.5877 356.342 58.166 354.836 58.166ZM354.646 50.1143C354.026 50.1143 353.506 50.3411 353.085 50.7949C352.664 51.2432 352.404 51.874 352.305 52.6875H356.804V52.5713C356.759 51.791 356.549 51.1878 356.173 50.7617C355.797 50.3301 355.287 50.1143 354.646 50.1143ZM361.568 49.0186L361.61 50.0146C362.268 49.2399 363.157 48.8525 364.274 48.8525C365.531 48.8525 366.386 49.334 366.839 50.2969C367.138 49.8652 367.526 49.5166 368.001 49.251C368.483 48.9854 369.05 48.8525 369.703 48.8525C371.673 48.8525 372.675 49.8957 372.708 51.9819V58H371.172V52.0732C371.172 51.4313 371.026 50.9526 370.732 50.6372C370.439 50.3162 369.947 50.1558 369.255 50.1558C368.685 50.1558 368.212 50.3273 367.835 50.6704C367.459 51.008 367.241 51.4645 367.18 52.04V58H365.636V52.1147C365.636 50.8088 364.997 50.1558 363.718 50.1558C362.711 50.1558 362.022 50.5846 361.651 51.4424V58H360.116V49.0186H361.568ZM382.619 53.6089C382.619 54.9757 382.306 56.077 381.681 56.9126C381.056 57.7482 380.209 58.166 379.141 58.166C378.051 58.166 377.193 57.8201 376.568 57.1284V61.4531H375.032V49.0186H376.435L376.51 50.0146C377.135 49.2399 378.004 48.8525 379.116 48.8525C380.195 48.8525 381.048 49.2593 381.673 50.0728C382.304 50.8862 382.619 52.0179 382.619 53.4678V53.6089ZM381.083 53.4346C381.083 52.4219 380.868 51.6222 380.436 51.0356C380.004 50.4491 379.412 50.1558 378.66 50.1558C377.73 50.1558 377.033 50.568 376.568 51.3926V55.6841C377.027 56.5031 377.73 56.9126 378.676 56.9126C379.412 56.9126 379.996 56.6221 380.428 56.041C380.865 55.4544 381.083 54.5856 381.083 53.4346ZM386.247 58H384.711V45.25H386.247V58ZM394.257 58C394.168 57.8229 394.096 57.5075 394.041 57.0537C393.327 57.7952 392.475 58.166 391.484 58.166C390.599 58.166 389.871 57.917 389.301 57.4189C388.737 56.9154 388.455 56.279 388.455 55.5098C388.455 54.5745 388.809 53.8496 389.517 53.335C390.231 52.8148 391.233 52.5547 392.522 52.5547H394.016V51.8491C394.016 51.3123 393.856 50.8862 393.535 50.5708C393.214 50.2498 392.741 50.0894 392.115 50.0894C391.567 50.0894 391.108 50.2277 390.737 50.5044C390.367 50.7811 390.181 51.1159 390.181 51.5088H388.637C388.637 51.0605 388.795 50.6289 389.11 50.2139C389.431 49.7933 389.863 49.4613 390.405 49.2178C390.953 48.9743 391.554 48.8525 392.207 48.8525C393.241 48.8525 394.052 49.1126 394.639 49.6328C395.225 50.1475 395.53 50.8586 395.552 51.7661V55.8999C395.552 56.7244 395.657 57.3802 395.867 57.8672V58H394.257ZM391.708 56.8296C392.19 56.8296 392.646 56.7051 393.078 56.4561C393.51 56.207 393.822 55.8833 394.016 55.4849V53.6421H392.812C390.931 53.6421 389.99 54.1927 389.99 55.2939C389.99 55.7754 390.151 56.1517 390.472 56.4229C390.793 56.694 391.205 56.8296 391.708 56.8296ZM400.042 46.8438V49.0186H401.719V50.2056H400.042V55.7754C400.042 56.1351 400.117 56.4062 400.267 56.5889C400.416 56.766 400.671 56.8545 401.03 56.8545C401.207 56.8545 401.451 56.8213 401.761 56.7549V58C401.357 58.1107 400.964 58.166 400.582 58.166C399.896 58.166 399.378 57.9585 399.03 57.5435C398.681 57.1284 398.507 56.5391 398.507 55.7754V50.2056H396.872V49.0186H398.507V46.8438H400.042ZM407.248 58.166C406.03 58.166 405.04 57.7676 404.276 56.9707C403.512 56.1683 403.13 55.0975 403.13 53.7583V53.4761C403.13 52.5851 403.299 51.791 403.637 51.0938C403.98 50.391 404.456 49.8431 405.064 49.4502C405.679 49.0518 406.343 48.8525 407.057 48.8525C408.224 48.8525 409.132 49.2371 409.779 50.0063C410.427 50.7756 410.75 51.8768 410.75 53.3101V53.9492H404.666C404.688 54.8346 404.945 55.5513 405.438 56.0991C405.936 56.6414 406.567 56.9126 407.331 56.9126C407.873 56.9126 408.332 56.8019 408.708 56.5806C409.085 56.3592 409.414 56.0659 409.696 55.7007L410.634 56.4312C409.882 57.5877 408.753 58.166 407.248 58.166ZM407.057 50.1143C406.437 50.1143 405.917 50.3411 405.496 50.7949C405.076 51.2432 404.815 51.874 404.716 52.6875H409.215V52.5713C409.171 51.791 408.96 51.1878 408.584 50.7617C408.208 50.3301 407.699 50.1143 407.057 50.1143ZM424.355 53.6089C424.355 54.9813 424.04 56.0853 423.409 56.9209C422.778 57.751 421.932 58.166 420.869 58.166C419.735 58.166 418.858 57.7648 418.238 56.9624L418.163 58H416.752V45.25H418.288V50.0063C418.907 49.2371 419.762 48.8525 420.853 48.8525C421.943 48.8525 422.798 49.2648 423.417 50.0894C424.043 50.9139 424.355 52.0428 424.355 53.4761V53.6089ZM422.82 53.4346C422.82 52.3887 422.618 51.5807 422.214 51.0107C421.81 50.4408 421.229 50.1558 420.471 50.1558C419.458 50.1558 418.73 50.6261 418.288 51.5669V55.4517C418.758 56.3924 419.491 56.8628 420.487 56.8628C421.223 56.8628 421.796 56.5778 422.206 56.0078C422.615 55.4378 422.82 54.5801 422.82 53.4346ZM431.843 57.1118C431.245 57.8146 430.368 58.166 429.211 58.166C428.254 58.166 427.524 57.8893 427.02 57.3359C426.522 56.777 426.27 55.9525 426.265 54.8623V49.0186H427.8V54.8208C427.8 56.1821 428.354 56.8628 429.46 56.8628C430.634 56.8628 431.414 56.4256 431.801 55.5513V49.0186H433.337V58H431.876L431.843 57.1118ZM437.13 49.0186L437.18 50.1475C437.866 49.2842 438.763 48.8525 439.87 48.8525C441.768 48.8525 442.725 49.9233 442.742 52.0649V58H441.206V52.0566C441.201 51.4092 441.051 50.9305 440.758 50.6206C440.47 50.3107 440.019 50.1558 439.405 50.1558C438.907 50.1558 438.47 50.2886 438.093 50.5542C437.717 50.8198 437.424 51.1685 437.213 51.6001V58H435.678V49.0186H437.13ZM444.684 53.4346C444.684 52.0566 445.011 50.9499 445.664 50.1143C446.317 49.2731 447.172 48.8525 448.229 48.8525C449.28 48.8525 450.113 49.2122 450.727 49.9316V45.25H452.263V58H450.852L450.777 57.0371C450.163 57.7897 449.308 58.166 448.212 58.166C447.172 58.166 446.322 57.7399 445.664 56.8877C445.011 56.0355 444.684 54.9232 444.684 53.5508V53.4346ZM446.22 53.6089C446.22 54.6271 446.43 55.424 446.851 55.9995C447.271 56.575 447.852 56.8628 448.594 56.8628C449.568 56.8628 450.279 56.4256 450.727 55.5513V51.4258C450.268 50.5791 449.562 50.1558 448.61 50.1558C447.858 50.1558 447.271 50.4463 446.851 51.0273C446.43 51.6084 446.22 52.4689 446.22 53.6089ZM456.322 58H454.786V45.25H456.322V58ZM462.514 58.166C461.297 58.166 460.306 57.7676 459.542 56.9707C458.779 56.1683 458.397 55.0975 458.397 53.7583V53.4761C458.397 52.5851 458.566 51.791 458.903 51.0938C459.246 50.391 459.722 49.8431 460.331 49.4502C460.945 49.0518 461.609 48.8525 462.323 48.8525C463.491 48.8525 464.398 49.2371 465.046 50.0063C465.693 50.7756 466.017 51.8768 466.017 53.3101V53.9492H459.933C459.955 54.8346 460.212 55.5513 460.705 56.0991C461.203 56.6414 461.833 56.9126 462.597 56.9126C463.139 56.9126 463.599 56.8019 463.975 56.5806C464.351 56.3592 464.681 56.0659 464.963 55.7007L465.901 56.4312C465.148 57.5877 464.019 58.166 462.514 58.166ZM462.323 50.1143C461.703 50.1143 461.183 50.3411 460.763 50.7949C460.342 51.2432 460.082 51.874 459.982 52.6875H464.481V52.5713C464.437 51.791 464.227 51.1878 463.851 50.7617C463.474 50.3301 462.965 50.1143 462.323 50.1143ZM473.031 55.6177C473.031 55.2026 472.874 54.8817 472.558 54.6548C472.248 54.4224 471.703 54.2231 470.923 54.0571C470.148 53.8911 469.531 53.6919 469.072 53.4595C468.618 53.2271 468.28 52.9504 468.059 52.6294C467.843 52.3084 467.735 51.9266 467.735 51.4839C467.735 50.7479 468.045 50.1253 468.665 49.6162C469.29 49.1071 470.087 48.8525 471.056 48.8525C472.074 48.8525 472.898 49.1154 473.529 49.6411C474.166 50.1668 474.484 50.8392 474.484 51.6582H472.94C472.94 51.2376 472.76 50.8752 472.4 50.5708C472.046 50.2664 471.598 50.1143 471.056 50.1143C470.497 50.1143 470.06 50.236 469.744 50.4795C469.429 50.723 469.271 51.0412 469.271 51.4341C469.271 51.8049 469.418 52.0843 469.711 52.2725C470.004 52.4606 470.533 52.6405 471.296 52.812C472.066 52.9836 472.688 53.1883 473.164 53.4263C473.64 53.6642 473.991 53.952 474.218 54.2896C474.451 54.6216 474.567 55.0283 474.567 55.5098C474.567 56.3122 474.246 56.9569 473.604 57.4438C472.962 57.9253 472.129 58.166 471.105 58.166C470.386 58.166 469.75 58.0387 469.196 57.7842C468.643 57.5296 468.208 57.1755 467.893 56.7217C467.583 56.2624 467.428 55.7671 467.428 55.2358H468.964C468.992 55.7505 469.196 56.16 469.578 56.4644C469.965 56.7632 470.475 56.9126 471.105 56.9126C471.687 56.9126 472.151 56.7964 472.5 56.564C472.854 56.326 473.031 56.0106 473.031 55.6177ZM486.329 58C486.241 57.8229 486.169 57.5075 486.113 57.0537C485.399 57.7952 484.547 58.166 483.557 58.166C482.671 58.166 481.944 57.917 481.374 57.4189C480.809 56.9154 480.527 56.279 480.527 55.5098C480.527 54.5745 480.881 53.8496 481.589 53.335C482.303 52.8148 483.305 52.5547 484.594 52.5547H486.088V51.8491C486.088 51.3123 485.928 50.8862 485.607 50.5708C485.286 50.2498 484.813 50.0894 484.188 50.0894C483.64 50.0894 483.18 50.2277 482.81 50.5044C482.439 50.7811 482.253 51.1159 482.253 51.5088H480.709C480.709 51.0605 480.867 50.6289 481.183 50.2139C481.504 49.7933 481.935 49.4613 482.478 49.2178C483.025 48.9743 483.626 48.8525 484.279 48.8525C485.314 48.8525 486.124 49.1126 486.711 49.6328C487.298 50.1475 487.602 50.8586 487.624 51.7661V55.8999C487.624 56.7244 487.729 57.3802 487.939 57.8672V58H486.329ZM483.781 56.8296C484.262 56.8296 484.719 56.7051 485.15 56.4561C485.582 56.207 485.895 55.8833 486.088 55.4849V53.6421H484.885C483.003 53.6421 482.062 54.1927 482.062 55.2939C482.062 55.7754 482.223 56.1517 482.544 56.4229C482.865 56.694 483.277 56.8296 483.781 56.8296ZM492.115 46.8438V49.0186H493.792V50.2056H492.115V55.7754C492.115 56.1351 492.189 56.4062 492.339 56.5889C492.488 56.766 492.743 56.8545 493.103 56.8545C493.28 56.8545 493.523 56.8213 493.833 56.7549V58C493.429 58.1107 493.036 58.166 492.654 58.166C491.968 58.166 491.451 57.9585 491.102 57.5435C490.753 57.1284 490.579 56.5391 490.579 55.7754V50.2056H488.944V49.0186H490.579V46.8438H492.115ZM508.94 54.165C508.791 55.4434 508.318 56.4312 507.521 57.1284C506.73 57.8201 505.675 58.166 504.358 58.166C502.931 58.166 501.785 57.6541 500.922 56.6304C500.064 55.6066 499.635 54.237 499.635 52.5215V51.3594C499.635 50.236 499.834 49.2482 500.233 48.396C500.637 47.5438 501.207 46.8908 501.943 46.437C502.679 45.9777 503.531 45.748 504.5 45.748C505.783 45.748 506.813 46.1077 507.587 46.8271C508.362 47.541 508.813 48.5316 508.94 49.7988H507.338C507.2 48.8359 506.898 48.1387 506.434 47.707C505.974 47.2754 505.33 47.0596 504.5 47.0596C503.481 47.0596 502.682 47.4359 502.101 48.1885C501.525 48.9411 501.237 50.0119 501.237 51.4009V52.5713C501.237 53.8828 501.511 54.9259 502.059 55.7007C502.607 56.4754 503.373 56.8628 504.358 56.8628C505.244 56.8628 505.922 56.6636 506.392 56.2651C506.868 55.8612 507.183 55.1611 507.338 54.165H508.94ZM515.224 50.3965C514.992 50.3577 514.74 50.3384 514.469 50.3384C513.462 50.3384 512.778 50.7673 512.418 51.625V58H510.883V49.0186H512.377L512.402 50.0562C512.905 49.2537 513.619 48.8525 514.543 48.8525C514.842 48.8525 515.069 48.8913 515.224 48.9688V50.3965ZM516.071 53.4263C516.071 52.5464 516.242 51.755 516.585 51.0522C516.934 50.3494 517.416 49.8071 518.03 49.4253C518.65 49.0435 519.355 48.8525 520.146 48.8525C521.369 48.8525 522.357 49.2759 523.11 50.1226C523.868 50.9692 524.247 52.0954 524.247 53.501V53.6089C524.247 54.4832 524.078 55.269 523.741 55.9663C523.409 56.658 522.93 57.1976 522.305 57.585C521.685 57.9723 520.971 58.166 520.163 58.166C518.946 58.166 517.958 57.7427 517.2 56.896C516.447 56.0493 516.071 54.9287 516.071 53.5342V53.4263ZM517.615 53.6089C517.615 54.605 517.844 55.4046 518.304 56.0078C518.769 56.611 519.388 56.9126 520.163 56.9126C520.943 56.9126 521.563 56.6082 522.022 55.9995C522.482 55.3853 522.711 54.5275 522.711 53.4263C522.711 52.4412 522.476 51.6444 522.006 51.0356C521.541 50.4214 520.921 50.1143 520.146 50.1143C519.388 50.1143 518.777 50.4159 518.312 51.019C517.847 51.6222 517.615 52.4855 517.615 53.6089ZM529.775 56.9126C530.323 56.9126 530.802 56.7466 531.211 56.4146C531.621 56.0825 531.848 55.6675 531.892 55.1694H533.345C533.317 55.6841 533.14 56.1738 532.813 56.6387C532.487 57.1035 532.05 57.4743 531.502 57.751C530.96 58.0277 530.384 58.166 529.775 58.166C528.552 58.166 527.578 57.7593 526.854 56.9458C526.134 56.1268 525.774 55.009 525.774 53.5923V53.335C525.774 52.4606 525.935 51.6831 526.256 51.0024C526.577 50.3218 527.036 49.7933 527.634 49.417C528.237 49.0407 528.948 48.8525 529.767 48.8525C530.774 48.8525 531.61 49.1541 532.274 49.7573C532.944 50.3605 533.3 51.1436 533.345 52.1064H531.892C531.848 51.5254 531.626 51.0495 531.228 50.6787C530.835 50.3024 530.348 50.1143 529.767 50.1143C528.987 50.1143 528.381 50.3965 527.949 50.9609C527.523 51.5199 527.31 52.3306 527.31 53.3931V53.6836C527.31 54.7184 527.523 55.5153 527.949 56.0742C528.375 56.6331 528.984 56.9126 529.775 56.9126ZM534.665 53.4263C534.665 52.5464 534.836 51.755 535.179 51.0522C535.528 50.3494 536.009 49.8071 536.624 49.4253C537.243 49.0435 537.949 48.8525 538.74 48.8525C539.963 48.8525 540.951 49.2759 541.704 50.1226C542.462 50.9692 542.841 52.0954 542.841 53.501V53.6089C542.841 54.4832 542.672 55.269 542.334 55.9663C542.002 56.658 541.524 57.1976 540.898 57.585C540.279 57.9723 539.565 58.166 538.757 58.166C537.539 58.166 536.552 57.7427 535.793 56.896C535.041 56.0493 534.665 54.9287 534.665 53.5342V53.4263ZM536.208 53.6089C536.208 54.605 536.438 55.4046 536.897 56.0078C537.362 56.611 537.982 56.9126 538.757 56.9126C539.537 56.9126 540.157 56.6082 540.616 55.9995C541.076 55.3853 541.305 54.5275 541.305 53.4263C541.305 52.4412 541.07 51.6444 540.6 51.0356C540.135 50.4214 539.515 50.1143 538.74 50.1143C537.982 50.1143 537.371 50.4159 536.906 51.019C536.441 51.6222 536.208 52.4855 536.208 53.6089ZM545.007 58V45.9141H548.958C550.27 45.9141 551.255 46.1852 551.914 46.7275C552.578 47.2699 552.91 48.0723 552.91 49.1348C552.91 49.6992 552.749 50.2 552.428 50.6372C552.107 51.0688 551.67 51.4036 551.117 51.6416C551.77 51.8242 552.284 52.1729 552.661 52.6875C553.042 53.1966 553.233 53.8053 553.233 54.5137C553.233 55.5983 552.882 56.4505 552.179 57.0703C551.476 57.6901 550.483 58 549.199 58H545.007ZM546.601 52.3472V56.6968H549.232C549.974 56.6968 550.558 56.5059 550.984 56.124C551.416 55.7367 551.631 55.2054 551.631 54.5303C551.631 53.0749 550.84 52.3472 549.257 52.3472H546.601ZM546.601 51.0688H549.008C549.706 51.0688 550.262 50.8945 550.677 50.5459C551.097 50.1973 551.308 49.7241 551.308 49.1265C551.308 48.4624 551.114 47.981 550.727 47.6821C550.339 47.3778 549.75 47.2256 548.958 47.2256H546.601V51.0688ZM557.027 58H555.491V45.25H557.027V58ZM559.085 53.4263C559.085 52.5464 559.257 51.755 559.6 51.0522C559.949 50.3494 560.43 49.8071 561.044 49.4253C561.664 49.0435 562.37 48.8525 563.161 48.8525C564.384 48.8525 565.372 49.2759 566.125 50.1226C566.883 50.9692 567.262 52.0954 567.262 53.501V53.6089C567.262 54.4832 567.093 55.269 566.755 55.9663C566.423 56.658 565.945 57.1976 565.319 57.585C564.7 57.9723 563.986 58.166 563.178 58.166C561.96 58.166 560.972 57.7427 560.214 56.896C559.462 56.0493 559.085 54.9287 559.085 53.5342V53.4263ZM560.629 53.6089C560.629 54.605 560.859 55.4046 561.318 56.0078C561.783 56.611 562.403 56.9126 563.178 56.9126C563.958 56.9126 564.578 56.6082 565.037 55.9995C565.496 55.3853 565.726 54.5275 565.726 53.4263C565.726 52.4412 565.491 51.6444 565.021 51.0356C564.556 50.4214 563.936 50.1143 563.161 50.1143C562.403 50.1143 561.792 50.4159 561.327 51.019C560.862 51.6222 560.629 52.4855 560.629 53.6089ZM572.79 56.9126C573.338 56.9126 573.817 56.7466 574.226 56.4146C574.636 56.0825 574.862 55.6675 574.907 55.1694H576.359C576.332 55.6841 576.155 56.1738 575.828 56.6387C575.502 57.1035 575.064 57.4743 574.517 57.751C573.974 58.0277 573.399 58.166 572.79 58.166C571.567 58.166 570.593 57.7593 569.868 56.9458C569.149 56.1268 568.789 55.009 568.789 53.5923V53.335C568.789 52.4606 568.95 51.6831 569.271 51.0024C569.591 50.3218 570.051 49.7933 570.648 49.417C571.252 49.0407 571.963 48.8525 572.782 48.8525C573.789 48.8525 574.625 49.1541 575.289 49.7573C575.958 50.3605 576.315 51.1436 576.359 52.1064H574.907C574.862 51.5254 574.641 51.0495 574.243 50.6787C573.85 50.3024 573.363 50.1143 572.782 50.1143C572.001 50.1143 571.396 50.3965 570.964 50.9609C570.538 51.5199 570.325 52.3306 570.325 53.3931V53.6836C570.325 54.7184 570.538 55.5153 570.964 56.0742C571.39 56.6331 571.999 56.9126 572.79 56.9126ZM580.593 53.8413L579.63 54.8457V58H578.094V45.25H579.63V52.9614L580.452 51.9736L583.249 49.0186H585.117L581.622 52.7705L585.523 58H583.722L580.593 53.8413ZM588.42 54.5884H587.034L586.926 45.9141H588.537L588.42 54.5884ZM586.868 57.228C586.868 56.979 586.943 56.7715 587.092 56.6055C587.247 56.4339 587.474 56.3481 587.773 56.3481C588.072 56.3481 588.299 56.4339 588.454 56.6055C588.609 56.7715 588.686 56.979 588.686 57.228C588.686 57.4771 588.609 57.6846 588.454 57.8506C588.299 58.0111 588.072 58.0913 587.773 58.0913C587.474 58.0913 587.247 58.0111 587.092 57.8506C586.943 57.6846 586.868 57.4771 586.868 57.228Z" fill="white"/>
<g filter="url(#filter1_i)">
<path d="M40.7205 24.7399C42.0627 24.7399 43.1507 23.6791 43.1507 22.3706C43.1507 21.0622 42.0627 20.0013 40.7205 20.0013C40.7183 20.0013 40.7162 20.0016 40.714 20.0016C35.3486 20.005 31 24.2466 31 29.4785C31 34.7126 35.3521 38.9556 40.7205 38.9556C42.0627 38.9556 43.1507 37.8947 43.1507 36.5863C43.1507 35.2778 42.0627 34.217 40.7205 34.217L40.7183 34.2171C38.0351 34.2159 35.8602 32.0948 35.8602 29.4785C35.8602 26.8615 38.0362 24.7399 40.7205 24.7399Z" fill="#34D7A1"/>
<path d="M88.6469 24.8751L88.649 24.8753C89.9912 24.8753 91.0792 23.8146 91.0792 22.506C91.0792 21.1974 89.9912 20.1367 88.649 20.1367C83.2804 20.1367 78.9285 24.3798 78.9285 29.6137C78.9285 34.8456 83.2771 39.0872 88.6425 39.0906C88.6447 39.0906 88.6468 39.0909 88.649 39.0909C89.9912 39.0909 91.0792 38.0301 91.0792 36.7216C91.0792 35.4132 89.9912 34.3523 88.649 34.3523C85.9647 34.3523 83.7887 32.2308 83.7887 29.6137C83.7887 26.9973 85.9636 24.8762 88.6469 24.8751Z" fill="#34D7A1"/>
<path d="M54.255 20C48.8865 20 44.5344 24.2431 44.5344 29.4772V36.5851C44.5344 37.8936 45.6223 38.9544 46.9645 38.9544C48.3067 38.9544 49.3947 37.8937 49.3947 36.5851V29.4772C49.3947 26.8601 51.5707 24.7386 54.255 24.7386C55.5972 24.7386 56.6852 23.6779 56.6852 22.3693C56.6852 21.0607 55.5972 20 54.255 20Z" fill="#34D7A1"/>
<path d="M67.7943 20.0026C62.4257 20.0026 58.0738 24.2457 58.0738 29.4796C58.0738 34.6794 62.3695 38.8991 67.6896 38.9542C69.0319 38.9542 70.1198 37.8935 70.1198 36.5849C70.1198 35.2763 69.0319 34.2156 67.6896 34.2156C65.054 34.1611 62.9341 32.0625 62.9341 29.4796C62.9341 26.8626 65.1102 24.741 67.7945 24.741C70.4787 24.741 72.6548 26.8626 72.6548 29.4796C72.6548 30.5516 72.2874 31.5386 71.6715 32.3324C71.266 32.7557 71.0159 33.3225 71.0159 33.9474C71.0159 35.2559 72.1038 36.3167 73.4461 36.3167C74.2103 36.3167 74.8912 35.9722 75.3367 35.4344C75.3367 35.4344 75.3373 35.4409 75.3378 35.4517C76.6977 33.8217 77.5151 31.7446 77.5151 29.4796C77.515 24.2457 73.1629 20.0026 67.7943 20.0026Z" fill="#34D7A1"/>
<path d="M102.188 20.138C96.8197 20.138 92.4678 24.3811 92.4678 29.615C92.4678 34.8147 96.7635 39.0345 102.084 39.0896C103.426 39.0896 104.514 38.0289 104.514 36.7203C104.514 35.4117 103.426 34.351 102.084 34.351H102.082C99.4471 34.2957 97.3281 32.1974 97.3281 29.6152C97.3281 26.9981 99.5041 24.8766 102.188 24.8766C104.873 24.8766 107.049 26.9981 107.049 29.6152C107.049 30.6872 106.681 31.6742 106.065 32.4679C105.66 32.8912 105.41 33.458 105.41 34.0829C105.41 35.3914 106.498 36.4522 107.84 36.4522C108.604 36.4522 109.285 36.1077 109.731 35.5699C109.731 35.5699 109.731 35.5764 109.732 35.5873C111.092 33.9572 111.909 31.8801 111.909 29.6152C111.909 24.3811 107.557 20.138 102.188 20.138Z" fill="#34D7A1"/>
</g>
<g filter="url(#filter2_i)">
<path d="M61.3003 41.6917C61.2995 41.3178 60.9865 41.015 60.6001 41.015C60.2137 41.015 59.9007 41.3179 59.8999 41.6917L59.8997 59.3209C59.8997 59.6953 60.2132 59.999 60.6001 59.999C60.9868 59.999 61.3005 59.6955 61.3005 59.3209L61.3003 41.6917Z" fill="white"/>
<path d="M50.7307 46.438C48.4396 46.438 46.4058 47.5034 45.1283 49.1501V41.5849C45.1275 41.211 44.8143 40.9082 44.4279 40.9082C44.0415 40.9082 43.7285 41.2111 43.7277 41.5849L43.7275 53.2185C43.7275 56.9633 46.863 59.999 50.7307 59.999C54.5984 59.999 57.7339 56.9633 57.7339 53.2185C57.7339 49.4738 54.5984 46.438 50.7307 46.438ZM50.7307 58.6428C47.6366 58.6428 45.1283 56.2143 45.1283 53.2185C45.1283 50.2228 47.6366 47.7942 50.7307 47.7942C53.8249 47.7942 56.3332 50.2228 56.3332 53.2185C56.3332 56.2143 53.8249 58.6428 50.7307 58.6428Z" fill="white"/>
<path d="M70.2461 46.4378C66.3784 46.4378 63.243 49.4736 63.243 53.2184C63.243 56.9631 66.3784 59.9989 70.2461 59.9989C74.1139 59.9989 77.2494 56.9631 77.2494 53.2184C77.2492 49.4736 74.1139 46.4378 70.2461 46.4378ZM70.2461 58.6427C67.152 58.6427 64.6437 56.2141 64.6437 53.2184C64.6437 50.2226 67.152 47.794 70.2461 47.794C73.3403 47.794 75.8486 50.2226 75.8486 53.2184C75.8486 56.2141 73.3403 58.6427 70.2461 58.6427Z" fill="white"/>
<path d="M86.2133 58.6427C83.1192 58.6427 80.6109 56.2141 80.6109 53.2184C80.6109 50.2226 83.1192 47.794 86.2133 47.794C86.6 47.794 86.9137 47.4905 86.9137 47.1159C86.9137 46.7414 86.6002 46.4378 86.2133 46.4378C82.3456 46.4378 79.2101 49.4736 79.2101 53.2184C79.2101 56.9631 82.3456 59.9989 86.2133 59.9989C86.6 59.9989 86.9137 59.6953 86.9137 59.3208C86.9137 58.9462 86.6 58.6427 86.2133 58.6427Z" fill="white"/>
<path d="M99.9813 58.9564L95.3705 51.9825L99.887 47.6096C100.159 47.3447 100.159 46.916 99.886 46.6515C99.6129 46.3871 99.1703 46.3868 98.8967 46.6508L91.4605 53.8502V41.6917C91.4597 41.3178 91.1465 41.015 90.7601 41.015C90.3737 41.015 90.0607 41.3179 90.0599 41.6917L90.0597 59.3209C90.0597 59.6953 90.3732 59.999 90.7601 59.999C91.1468 59.999 91.4605 59.6955 91.4605 59.3209V55.7682L94.3565 52.9643L98.8017 59.6876C99.0104 60.0021 99.4431 60.0938 99.7685 59.892C100.094 59.6902 100.189 59.2717 99.9813 58.9564Z" fill="white"/>
</g>
<defs>
<filter id="filter0_d" x="606" y="14" width="144" height="60" filterUnits="userSpaceOnUse" color-interpolation-filters="sRGB">
<feFlood flood-opacity="0" result="BackgroundImageFix"/>
<feColorMatrix in="SourceAlpha" type="matrix" values="0 0 0 0 0 0 0 0 0 0 0 0 0 0 0 0 0 0 127 0"/>
<feOffset dy="4"/>
<feGaussianBlur stdDeviation="5"/>
<feColorMatrix type="matrix" values="0 0 0 0 0.568627 0 0 0 0 0.145098 0 0 0 0 0.94902 0 0 0 0.5 0"/>
<feBlend mode="normal" in2="BackgroundImageFix" result="effect1_dropShadow"/>
<feBlend mode="normal" in="SourceGraphic" in2="effect1_dropShadow" result="shape"/>
</filter>
<filter id="filter1_i" x="31" y="20" width="80.9091" height="19.0909" filterUnits="userSpaceOnUse" color-interpolation-filters="sRGB">
<feFlood flood-opacity="0" result="BackgroundImageFix"/>
<feBlend mode="normal" in="SourceGraphic" in2="BackgroundImageFix" result="shape"/>
<feColorMatrix in="SourceAlpha" type="matrix" values="0 0 0 0 0 0 0 0 0 0 0 0 0 0 0 0 0 0 127 0" result="hardAlpha"/>
<feOffset/>
<feGaussianBlur stdDeviation="4"/>
<feComposite in2="hardAlpha" operator="arithmetic" k2="-1" k3="1"/>
<feColorMatrix type="matrix" values="0 0 0 0 1 0 0 0 0 1 0 0 0 0 1 0 0 0 0.8 0"/>
<feBlend mode="overlay" in2="shape" result="effect1_innerShadow"/>
</filter>
<filter id="filter2_i" x="43.7275" y="40.9082" width="56.3636" height="19.0909" filterUnits="userSpaceOnUse" color-interpolation-filters="sRGB">
<feFlood flood-opacity="0" result="BackgroundImageFix"/>
<feBlend mode="normal" in="SourceGraphic" in2="BackgroundImageFix" result="shape"/>
<feColorMatrix in="SourceAlpha" type="matrix" values="0 0 0 0 0 0 0 0 0 0 0 0 0 0 0 0 0 0 127 0" result="hardAlpha"/>
<feOffset/>
<feGaussianBlur stdDeviation="4"/>
<feComposite in2="hardAlpha" operator="arithmetic" k2="-1" k3="1"/>
<feColorMatrix type="matrix" values="0 0 0 0 1 0 0 0 0 1 0 0 0 0 1 0 0 0 0.8 0"/>
<feBlend mode="overlay" in2="shape" result="effect1_innerShadow"/>
</filter>
<linearGradient id="paint0_linear" x1="0" y1="0" x2="760" y2="-5.97374e-05" gradientUnits="userSpaceOnUse">
<stop stop-color="#617BE5"/>
<stop offset="0.936571" stop-color="#07FFF0" stop-opacity="0.28"/>
</linearGradient>
<linearGradient id="paint1_linear" x1="615.964" y1="47.2274" x2="740.018" y2="47.2002" gradientUnits="userSpaceOnUse">
<stop stop-color="#C920FF"/>
<stop offset="1" stop-color="#8627EE"/>
</linearGradient>
</defs>
</svg>
