<svg width="20" height="19" viewBox="0 0 20 19" fill="currentColor" xmlns="http://www.w3.org/2000/svg">
<path d="M13.624 0.254C14.815 0.423 15.883 0.677 16.827 1.016C17.77 1.355 18.536 1.771 19.122 2.266C19.708 2.761 20.001 3.34 20.001 4.004C20.001 4.655 19.708 5.232 19.122 5.733C18.536 6.234 17.77 6.651 16.827 6.983C15.883 7.315 14.815 7.569 13.624 7.745C12.433 7.921 11.225 8.009 10 8.009C8.775 8.009 7.568 7.921 6.377 7.745C5.186 7.569 4.118 7.315 3.174 6.983C2.23 6.651 1.465 6.234 0.879 5.733C0.293 5.232 0 4.656 0 4.004C0 3.34 0.293 2.761 0.879 2.266C1.465 1.771 2.23 1.355 3.174 1.016C4.118 0.677 5.186 0.423 6.377 0.254C7.568 0.0849997 8.776 0 10 0C11.224 0 12.433 0.0849997 13.624 0.254ZM13.663 6.485C14.75 6.302 15.668 6.075 16.417 5.801C17.165 5.528 17.741 5.228 18.146 4.903C18.549 4.578 18.751 4.278 18.751 4.005C18.751 3.719 18.549 3.416 18.146 3.097C17.742 2.778 17.163 2.482 16.408 2.208C15.652 1.935 14.734 1.707 13.654 1.524C12.573 1.341 11.355 1.251 10.001 1.251C8.647 1.251 7.429 1.342 6.349 1.524C5.268 1.707 4.35 1.934 3.595 2.208C2.84 2.481 2.26 2.777 1.857 3.097C1.453 3.416 1.252 3.719 1.252 4.005C1.252 4.278 1.454 4.578 1.857 4.903C2.26 5.228 2.84 5.528 3.595 5.801C4.35 6.074 5.268 6.302 6.349 6.485C7.43 6.668 8.647 6.758 10.001 6.758C11.355 6.758 12.575 6.667 13.663 6.485ZM16.134 8.555C16.251 8.464 16.394 8.431 16.564 8.457C16.733 8.483 16.877 8.561 16.994 8.691C17.098 8.808 17.137 8.958 17.111 9.14C17.085 9.323 17.007 9.466 16.877 9.57C16.512 9.843 16.082 10.094 15.588 10.322C15.093 10.55 14.549 10.742 13.957 10.898C13.364 11.054 12.732 11.171 12.062 11.25C11.391 11.328 10.705 11.367 10.001 11.367C9.298 11.367 8.611 11.328 7.94 11.25C7.269 11.172 6.638 11.055 6.045 10.898C5.452 10.742 4.909 10.549 4.414 10.322C3.919 10.094 3.489 9.843 3.125 9.57C2.995 9.466 2.917 9.323 2.891 9.14C2.865 8.957 2.904 8.808 3.008 8.691C3.099 8.535 3.236 8.45 3.418 8.437C3.6 8.424 3.75 8.463 3.867 8.554C4.18 8.788 4.554 9.003 4.99 9.199C5.426 9.395 5.911 9.561 6.445 9.698C6.979 9.835 7.545 9.939 8.144 10.011C8.743 10.082 9.361 10.118 9.999 10.118C10.637 10.118 11.259 10.082 11.865 10.011C12.471 9.94 13.037 9.835 13.564 9.698C14.091 9.561 14.573 9.395 15.009 9.199C15.446 9.004 15.821 8.79 16.134 8.555ZM15.821 12.442C15.821 12.611 15.775 12.755 15.684 12.872C15.384 13.172 15.033 13.438 14.629 13.673C14.225 13.907 13.782 14.103 13.301 14.259C12.819 14.415 12.305 14.535 11.758 14.62C11.211 14.705 10.645 14.747 10.058 14.747C8.938 14.747 7.88 14.598 6.884 14.298C5.888 13.998 5.09 13.569 4.491 13.009C4.374 12.879 4.305 12.729 4.286 12.56C4.267 12.391 4.315 12.247 4.432 12.13C4.562 12 4.708 11.925 4.871 11.905C5.034 11.885 5.18 11.941 5.31 12.071C5.805 12.501 6.469 12.845 7.302 13.106C8.135 13.367 9.033 13.497 9.997 13.497C10.96 13.497 11.875 13.363 12.742 13.097C13.607 12.83 14.275 12.462 14.744 11.993C14.874 11.876 15.02 11.817 15.183 11.817C15.345 11.817 15.492 11.876 15.622 11.993C15.756 12.123 15.821 12.273 15.821 12.442ZM13.771 16.798C13.732 16.967 13.621 17.098 13.439 17.189C12.944 17.502 12.4 17.736 11.808 17.892C11.215 18.048 10.593 18.126 9.942 18.126C9.252 18.126 8.578 18.031 7.921 17.843C7.263 17.655 6.687 17.371 6.192 16.993C6.062 16.902 5.984 16.775 5.958 16.612C5.932 16.449 5.964 16.29 6.056 16.133C6.16 16.003 6.293 15.925 6.456 15.899C6.619 15.873 6.778 15.906 6.935 15.997C7.338 16.283 7.801 16.502 8.322 16.651C8.843 16.8 9.403 16.876 10.002 16.876C10.536 16.876 11.044 16.814 11.526 16.69C12.007 16.566 12.437 16.38 12.815 16.133C12.971 16.029 13.133 15.993 13.303 16.026C13.472 16.058 13.602 16.153 13.694 16.309C13.783 16.466 13.81 16.629 13.771 16.798Z"/>
</svg>
