<svg width="20" height="19" viewBox="0 0 20 19" fill="currentColor" xmlns="http://www.w3.org/2000/svg">
<path d="M16.815 5.687C17.753 5.909 18.517 6.39 19.11 7.132C19.702 7.874 19.999 8.727 19.999 9.69C19.999 10.211 19.907 10.703 19.726 11.165C19.543 11.627 19.287 12.041 18.955 12.405C18.623 12.769 18.232 13.069 17.783 13.303C17.334 13.537 16.842 13.687 16.308 13.752H16.249C16.093 13.752 15.956 13.696 15.839 13.586C15.722 13.476 15.65 13.342 15.624 13.186C15.624 13.03 15.679 12.883 15.79 12.747C15.9 12.61 16.034 12.529 16.19 12.503C16.906 12.438 17.511 12.132 18.006 11.585C18.5 11.038 18.748 10.406 18.748 9.69C18.748 8.975 18.5 8.35 18.006 7.815C17.511 7.281 16.905 6.968 16.19 6.877C16.034 6.851 15.9 6.789 15.79 6.691C15.679 6.593 15.624 6.466 15.624 6.31C15.559 5.594 15.366 4.926 15.048 4.308C14.729 3.69 14.319 3.156 13.818 2.706C13.316 2.257 12.737 1.902 12.08 1.642C11.422 1.381 10.728 1.251 9.999 1.251C9.374 1.251 8.778 1.349 8.212 1.544C7.646 1.739 7.128 2.013 6.659 2.364C6.19 2.715 5.78 3.135 5.429 3.624C5.078 4.113 4.81 4.656 4.628 5.255C4.563 5.372 4.484 5.467 4.394 5.538C4.303 5.609 4.211 5.658 4.121 5.684C3.313 5.814 2.633 6.199 2.08 6.836C1.526 7.474 1.25 8.216 1.25 9.063C1.25 9.974 1.556 10.752 2.168 11.396C2.78 12.041 3.535 12.409 4.434 12.5C4.59 12.526 4.73 12.607 4.854 12.744C4.978 12.881 5.026 13.027 5 13.183C4.974 13.339 4.899 13.473 4.775 13.583C4.651 13.693 4.498 13.749 4.316 13.749C3.704 13.684 3.134 13.518 2.607 13.251C2.08 12.984 1.624 12.643 1.24 12.226C0.856 11.809 0.553 11.33 0.332 10.79C0.11 10.25 0 9.674 0 9.062C0 8.528 0.0879999 8.017 0.264 7.529C0.44 7.041 0.683999 6.594 0.995999 6.191C1.308 5.788 1.68 5.439 2.109 5.146C2.538 4.853 3.001 4.635 3.496 4.492C3.769 3.828 4.124 3.22 4.56 2.666C4.996 2.112 5.498 1.638 6.064 1.24C6.63 0.842 7.249 0.537001 7.919 0.322001C8.589 0.107 9.283 0 9.999 0C10.859 0 11.669 0.144 12.431 0.43C13.193 0.716 13.876 1.114 14.482 1.621C15.088 2.128 15.591 2.731 15.996 3.428C16.398 4.128 16.672 4.879 16.815 5.687ZM6.424 13.577C6.307 13.46 6.248 13.31 6.248 13.128V10.003C6.248 9.82 6.307 9.671 6.424 9.554C6.541 9.437 6.691 9.378 6.873 9.378C7.055 9.378 7.205 9.437 7.322 9.554C7.439 9.671 7.498 9.821 7.498 10.003V13.128C7.498 13.311 7.439 13.46 7.322 13.577C7.205 13.694 7.055 13.753 6.873 13.753C6.691 13.753 6.541 13.694 6.424 13.577ZM6.249 15.628C6.249 15.445 6.308 15.296 6.425 15.179C6.542 15.062 6.692 15.003 6.874 15.003C7.056 15.003 7.206 15.062 7.323 15.179C7.44 15.296 7.499 15.446 7.499 15.628V16.253C7.499 16.436 7.44 16.585 7.323 16.702C7.206 16.819 7.056 16.878 6.874 16.878C6.691 16.878 6.542 16.819 6.425 16.702C6.308 16.585 6.249 16.435 6.249 16.253V15.628ZM9.549 15.452C9.432 15.335 9.373 15.185 9.373 15.003V11.878C9.373 11.695 9.432 11.546 9.549 11.429C9.666 11.312 9.816 11.253 9.998 11.253C10.18 11.253 10.33 11.312 10.448 11.429C10.565 11.546 10.624 11.696 10.624 11.878V15.003C10.624 15.186 10.565 15.335 10.448 15.452C10.33 15.569 10.18 15.628 9.998 15.628C9.816 15.628 9.666 15.569 9.549 15.452ZM9.374 17.503C9.374 17.32 9.433 17.171 9.55 17.054C9.667 16.937 9.817 16.878 9.999 16.878C10.181 16.878 10.331 16.937 10.449 17.054C10.566 17.171 10.625 17.321 10.625 17.503V18.128C10.625 18.311 10.566 18.46 10.449 18.577C10.331 18.694 10.181 18.753 9.999 18.753C9.816 18.753 9.667 18.694 9.55 18.577C9.433 18.46 9.374 18.31 9.374 18.128V17.503ZM12.675 13.577C12.558 13.46 12.499 13.31 12.499 13.128V10.003C12.499 9.82 12.558 9.671 12.675 9.554C12.792 9.437 12.942 9.378 13.124 9.378C13.306 9.378 13.456 9.437 13.573 9.554C13.69 9.671 13.749 9.821 13.749 10.003V13.128C13.749 13.311 13.69 13.46 13.573 13.577C13.456 13.694 13.305 13.753 13.124 13.753C12.941 13.753 12.792 13.694 12.675 13.577ZM12.499 15.628C12.499 15.445 12.558 15.296 12.675 15.179C12.792 15.062 12.942 15.003 13.124 15.003C13.306 15.003 13.456 15.062 13.573 15.179C13.69 15.296 13.749 15.446 13.749 15.628V16.253C13.749 16.436 13.69 16.585 13.573 16.702C13.456 16.819 13.305 16.878 13.124 16.878C12.941 16.878 12.792 16.819 12.675 16.702C12.558 16.585 12.499 16.435 12.499 16.253V15.628Z"/>
</svg>
