<svg width="19" height="17" viewBox="0 0 19 17" fill="currentColor" xmlns="http://www.w3.org/2000/svg">
<path d="M9.57 2.071C9.687 1.941 9.83 1.876 10 1.876C10.169 1.876 10.313 1.941 10.43 2.071C10.56 2.188 10.625 2.332 10.625 2.501C10.625 2.67 10.56 2.814 10.43 2.931L1.055 12.306C1.003 12.371 0.941 12.42 0.869 12.452C0.797 12.484 0.716 12.501 0.625 12.501C0.534 12.501 0.452001 12.484 0.381001 12.452C0.309001 12.42 0.247001 12.371 0.195001 12.306C0.0650007 12.189 0 12.045 0 11.876C0 11.707 0.0650007 11.563 0.195001 11.446L9.57 2.071ZM18.75 0.625C18.75 0.794 18.685 0.937999 18.555 1.055L9.18 10.43C9.127 10.495 9.059 10.544 8.974 10.576C8.889 10.608 8.814 10.625 8.749 10.625C8.684 10.625 8.609 10.608 8.524 10.576C8.439 10.544 8.371 10.495 8.319 10.43C8.189 10.313 8.124 10.169 8.124 10C8.124 9.831 8.189 9.687 8.319 9.57L17.694 0.195C17.811 0.0649997 17.954 0 18.124 0C18.293 0 18.437 0.0649997 18.554 0.195C18.685 0.313 18.75 0.457 18.75 0.625ZM17.695 6.446C17.812 6.316 17.955 6.251 18.125 6.251C18.294 6.251 18.438 6.316 18.555 6.446C18.685 6.563 18.75 6.707 18.75 6.876C18.75 7.045 18.685 7.189 18.555 7.306L9.18 16.681C9.127 16.746 9.059 16.795 8.974 16.827C8.889 16.859 8.814 16.876 8.749 16.876C8.684 16.876 8.609 16.859 8.524 16.827C8.439 16.795 8.371 16.746 8.319 16.681C8.189 16.564 8.124 16.42 8.124 16.251C8.124 16.082 8.189 15.938 8.319 15.821L17.695 6.446Z"/>
</svg>
