<svg width="20" height="19" viewBox="0 0 20 19" fill="currentColor" xmlns="http://www.w3.org/2000/svg">
<path d="M4.316 13.749C3.704 13.684 3.134 13.518 2.607 13.251C2.08 12.984 1.624 12.643 1.24 12.226C0.856 11.809 0.553 11.33 0.332 10.79C0.11 10.25 0 9.674 0 9.062C0 8.528 0.0879999 8.017 0.264 7.529C0.44 7.041 0.684 6.594 0.996 6.191C1.308 5.788 1.68 5.439 2.109 5.146C2.538 4.853 3.001 4.635 3.496 4.492C3.769 3.828 4.124 3.22 4.56 2.666C4.996 2.112 5.498 1.638 6.064 1.24C6.63 0.842001 7.249 0.537001 7.919 0.322001C8.589 0.107 9.283 0 9.999 0C10.859 0 11.669 0.144 12.431 0.43C13.193 0.716 13.876 1.114 14.482 1.621C15.088 2.128 15.591 2.731 15.996 3.428C16.399 4.124 16.673 4.876 16.816 5.684C17.754 5.906 18.518 6.387 19.111 7.129C19.703 7.871 20 8.724 20 9.687C20 10.208 19.908 10.7 19.727 11.162C19.544 11.624 19.288 12.038 18.956 12.402C18.624 12.766 18.233 13.066 17.784 13.3C17.335 13.534 16.843 13.684 16.309 13.749H16.25C16.094 13.749 15.957 13.693 15.84 13.583C15.723 13.473 15.651 13.339 15.625 13.183C15.625 13.027 15.68 12.88 15.791 12.744C15.901 12.607 16.035 12.526 16.191 12.5C16.907 12.435 17.512 12.129 18.007 11.582C18.501 11.035 18.749 10.403 18.749 9.687C18.749 8.972 18.501 8.347 18.007 7.812C17.512 7.278 16.906 6.965 16.191 6.874C16.035 6.848 15.901 6.786 15.791 6.688C15.68 6.59 15.625 6.463 15.625 6.307C15.56 5.591 15.367 4.923 15.049 4.305C14.73 3.687 14.32 3.153 13.819 2.703C13.317 2.254 12.738 1.899 12.081 1.639C11.423 1.378 10.729 1.248 10 1.248C9.375 1.248 8.779 1.346 8.213 1.541C7.647 1.736 7.129 2.01 6.66 2.361C6.191 2.712 5.781 3.132 5.43 3.621C5.079 4.11 4.811 4.653 4.629 5.252C4.564 5.369 4.485 5.464 4.395 5.535C4.304 5.606 4.212 5.655 4.122 5.681C3.314 5.811 2.634 6.196 2.081 6.833C1.527 7.471 1.251 8.213 1.251 9.06C1.251 9.971 1.557 10.749 2.169 11.393C2.781 12.038 3.536 12.406 4.435 12.497C4.591 12.523 4.725 12.598 4.835 12.722C4.945 12.846 5.001 12.998 5.001 13.181C4.975 13.337 4.9 13.477 4.776 13.601C4.651 13.727 4.498 13.775 4.316 13.749ZM7.324 16.698C7.207 16.815 7.057 16.874 6.875 16.874C6.692 16.874 6.543 16.815 6.426 16.698C6.309 16.581 6.25 16.431 6.25 16.249V10.624C6.25 10.441 6.309 10.292 6.426 10.175C6.543 10.058 6.693 9.999 6.875 9.999C7.057 9.999 7.207 10.058 7.324 10.175C7.441 10.292 7.5 10.442 7.5 10.624V16.249C7.5 16.432 7.441 16.581 7.324 16.698ZM10.449 18.573C10.331 18.69 10.181 18.749 9.999 18.749C9.816 18.749 9.667 18.69 9.55 18.573C9.433 18.456 9.374 18.306 9.374 18.124V12.499C9.374 12.316 9.433 12.167 9.55 12.05C9.667 11.933 9.817 11.874 9.999 11.874C10.181 11.874 10.331 11.933 10.449 12.05C10.566 12.167 10.625 12.317 10.625 12.499V18.124C10.625 18.307 10.566 18.456 10.449 18.573ZM13.574 16.698C13.457 16.815 13.306 16.874 13.125 16.874C12.942 16.874 12.793 16.815 12.676 16.698C12.559 16.581 12.5 16.431 12.5 16.249V10.624C12.5 10.441 12.559 10.292 12.676 10.175C12.793 10.058 12.943 9.999 13.125 9.999C13.307 9.999 13.457 10.058 13.574 10.175C13.691 10.292 13.75 10.442 13.75 10.624V16.249C13.75 16.432 13.691 16.581 13.574 16.698Z"/>
</svg>
