<svg width="20" height="19" viewBox="0 0 20 19" fill="currentColor" xmlns="http://www.w3.org/2000/svg">
<path d="M19.209 9.834C19.736 10.53 20 11.315 20 12.188C20 12.748 19.893 13.275 19.678 13.77C19.463 14.265 19.173 14.695 18.809 15.059C18.444 15.423 18.014 15.713 17.52 15.928C17.025 16.143 16.498 16.25 15.938 16.25H15.625C15.442 16.25 15.293 16.191 15.176 16.074C15.059 15.957 15 15.807 15 15.625C15 15.443 15.059 15.293 15.176 15.176C15.293 15.059 15.443 15 15.625 15H15.938C16.719 15 17.383 14.727 17.93 14.18C18.477 13.633 18.75 12.969 18.75 12.188C18.75 11.407 18.477 10.743 17.93 10.196C17.383 9.649 16.719 9.376 15.938 9.376C15.625 9.376 15.338 9.422 15.079 9.513C14.818 9.604 14.564 9.728 14.317 9.884C14.225 9.91 14.131 9.933 14.034 9.952C13.937 9.971 13.842 9.969 13.751 9.942C13.659 9.903 13.581 9.854 13.517 9.796C13.452 9.737 13.406 9.662 13.38 9.571C13.132 8.751 12.653 8.087 11.944 7.579C11.234 7.071 10.443 6.817 9.57 6.817C8.789 6.817 8.056 7.035 7.373 7.471C6.69 7.907 6.191 8.503 5.879 9.258C5.814 9.414 5.7 9.518 5.537 9.57C5.374 9.622 5.215 9.622 5.058 9.57C4.902 9.505 4.736 9.456 4.56 9.424C4.384 9.392 4.218 9.375 4.062 9.375C3.281 9.375 2.617 9.648 2.07 10.195C1.523 10.742 1.25 11.406 1.25 12.187C1.25 12.968 1.523 13.632 2.07 14.179C2.617 14.726 3.281 14.999 4.062 14.999H4.375C4.557 14.999 4.707 15.058 4.824 15.175C4.941 15.292 5 15.442 5 15.624C5 15.806 4.941 15.956 4.824 16.073C4.707 16.19 4.557 16.249 4.375 16.249H4.062C3.502 16.249 2.975 16.142 2.48 15.927C1.985 15.712 1.555 15.422 1.191 15.058C0.826 14.694 0.537001 14.264 0.322001 13.769C0.107 13.274 0 12.747 0 12.187C0 11.64 0.104001 11.125 0.313001 10.644C0.521001 10.163 0.808 9.739 1.172 9.374C1.536 9.01 1.963 8.72 2.451 8.505C2.939 8.29 3.457 8.183 4.004 8.183C4.16 8.183 4.317 8.196 4.473 8.222C4.629 8.248 4.786 8.281 4.942 8.32C5.345 7.591 5.899 6.992 6.602 6.523C7.305 6.054 8.06 5.774 8.868 5.683C9.154 4.745 9.685 3.981 10.46 3.388C11.234 2.795 12.123 2.499 13.126 2.499C13.737 2.499 14.311 2.613 14.845 2.841C15.378 3.069 15.841 3.381 16.232 3.779C16.623 4.177 16.931 4.638 17.16 5.166C17.388 5.693 17.502 6.263 17.502 6.875C17.502 7.122 17.482 7.373 17.443 7.627C17.404 7.881 17.339 8.132 17.248 8.379C18.027 8.653 18.682 9.138 19.209 9.834ZM12.695 14.063C12.786 14.219 12.808 14.382 12.763 14.551C12.717 14.72 12.629 14.851 12.499 14.942L11.249 15.626L12.44 16.251C12.596 16.342 12.7 16.473 12.753 16.642C12.805 16.811 12.785 16.974 12.694 17.13C12.629 17.221 12.541 17.296 12.43 17.355C12.319 17.414 12.218 17.443 12.127 17.443C12.062 17.443 12.01 17.44 11.971 17.433C11.932 17.426 11.879 17.411 11.815 17.384L10.565 16.681V18.126C10.565 18.309 10.506 18.458 10.389 18.575C10.272 18.692 10.121 18.751 9.94 18.751C9.745 18.751 9.591 18.692 9.481 18.575C9.37 18.458 9.315 18.308 9.315 18.126V16.817L8.065 17.501C8 17.527 7.948 17.543 7.909 17.55C7.87 17.557 7.818 17.56 7.753 17.56C7.623 17.56 7.512 17.531 7.421 17.472C7.33 17.413 7.252 17.338 7.187 17.247C7.122 17.091 7.109 16.932 7.148 16.768C7.187 16.604 7.285 16.472 7.441 16.368L8.691 15.684L7.441 15C7.285 14.909 7.18 14.778 7.128 14.609C7.076 14.44 7.095 14.277 7.187 14.121C7.278 13.965 7.408 13.86 7.578 13.808C7.747 13.756 7.91 13.776 8.066 13.867L9.316 14.57V13.125C9.316 12.942 9.371 12.793 9.482 12.676C9.592 12.559 9.746 12.5 9.941 12.5C10.123 12.5 10.273 12.559 10.39 12.676C10.507 12.793 10.566 12.942 10.566 13.125V14.492L11.816 13.808C11.972 13.743 12.131 13.73 12.295 13.769C12.457 13.809 12.591 13.906 12.695 14.063ZM8.242 1.993C8.372 1.876 8.522 1.817 8.691 1.817C8.86 1.817 9.004 1.876 9.121 1.993L9.57 2.442C9.688 2.559 9.746 2.703 9.746 2.872C9.746 3.041 9.687 3.191 9.57 3.321C9.505 3.373 9.43 3.416 9.345 3.448C9.26 3.48 9.185 3.497 9.12 3.497C9.055 3.497 8.983 3.48 8.905 3.448C8.827 3.416 8.755 3.373 8.69 3.321L8.241 2.872C8.124 2.755 8.065 2.611 8.065 2.442C8.065 2.273 8.124 2.123 8.242 1.993ZM15.098 8.282C15.371 8.217 15.651 8.184 15.938 8.184C16.029 7.962 16.104 7.745 16.163 7.53C16.222 7.315 16.251 7.097 16.251 6.876C16.251 6.004 15.948 5.265 15.343 4.659C14.738 4.053 13.998 3.751 13.126 3.751C12.501 3.751 11.921 3.934 11.388 4.298C10.854 4.662 10.476 5.125 10.255 5.685C11.127 5.815 11.921 6.131 12.638 6.632C13.354 7.133 13.913 7.775 14.318 8.556C14.563 8.438 14.824 8.347 15.098 8.282ZM12.676 0.176C12.793 0.0589996 12.943 0 13.125 0C13.307 0 13.457 0.0589996 13.574 0.176C13.691 0.293 13.75 0.443 13.75 0.625V1.25C13.75 1.433 13.691 1.582 13.574 1.699C13.457 1.816 13.306 1.875 13.125 1.875C12.942 1.875 12.793 1.816 12.676 1.699C12.559 1.582 12.5 1.432 12.5 1.25V0.625C12.5 0.443 12.559 0.293 12.676 0.176ZM17.129 3.497C17.037 3.497 16.956 3.48 16.885 3.448C16.813 3.416 16.744 3.373 16.68 3.321C16.563 3.191 16.504 3.041 16.504 2.872C16.504 2.703 16.563 2.559 16.68 2.442L17.129 1.993C17.246 1.876 17.389 1.817 17.559 1.817C17.728 1.817 17.877 1.876 18.008 1.993C18.125 2.123 18.184 2.273 18.184 2.442C18.184 2.611 18.125 2.755 18.008 2.872L17.559 3.321C17.494 3.373 17.428 3.416 17.364 3.448C17.298 3.48 17.22 3.497 17.129 3.497ZM19.824 6.426C19.941 6.543 20 6.693 20 6.875C20 7.057 19.941 7.207 19.824 7.324C19.707 7.441 19.556 7.5 19.375 7.5H18.75C18.567 7.5 18.418 7.441 18.301 7.324C18.184 7.207 18.125 7.057 18.125 6.875C18.125 6.693 18.184 6.543 18.301 6.426C18.418 6.309 18.568 6.25 18.75 6.25H19.375C19.557 6.25 19.707 6.309 19.824 6.426Z"/>
</svg>
