<svg width="21" height="21" viewBox="0 0 21 21" fill="currentColor" xmlns="http://www.w3.org/2000/svg">
<path d="M19.209 9.833C19.736 10.529 20 11.314 20 12.186C20 12.746 19.893 13.273 19.678 13.768C19.463 14.263 19.173 14.693 18.809 15.057C18.444 15.421 18.014 15.711 17.52 15.926C17.025 16.141 16.498 16.248 15.938 16.248H15C14.817 16.248 14.668 16.189 14.551 16.072C14.434 15.955 14.375 15.805 14.375 15.623C14.375 15.441 14.434 15.291 14.551 15.174C14.668 15.057 14.818 14.998 15 14.998H15.938C16.719 14.998 17.383 14.725 17.93 14.178C18.477 13.631 18.75 12.967 18.75 12.186C18.75 11.405 18.477 10.741 17.93 10.194C17.383 9.648 16.719 9.374 15.938 9.374C15.625 9.374 15.338 9.42 15.079 9.511C14.818 9.602 14.564 9.726 14.317 9.882C14.225 9.908 14.131 9.93 14.034 9.95C13.937 9.97 13.842 9.967 13.751 9.94C13.659 9.901 13.581 9.853 13.517 9.794C13.452 9.735 13.406 9.66 13.38 9.569C13.132 8.749 12.653 8.085 11.944 7.577C11.234 7.069 10.443 6.815 9.57 6.815C8.789 6.815 8.056 7.033 7.373 7.469C6.69 7.905 6.191 8.501 5.879 9.256C5.814 9.412 5.7 9.517 5.537 9.569C5.374 9.621 5.215 9.621 5.058 9.569C4.902 9.504 4.736 9.455 4.56 9.423C4.384 9.391 4.218 9.374 4.062 9.374C3.281 9.374 2.617 9.647 2.07 10.194C1.523 10.741 1.25 11.405 1.25 12.186C1.25 12.967 1.523 13.631 2.07 14.178C2.617 14.725 3.281 14.998 4.062 14.998H5C5.182 14.998 5.332 15.057 5.449 15.174C5.566 15.291 5.625 15.441 5.625 15.623C5.625 15.805 5.566 15.955 5.449 16.072C5.332 16.189 5.182 16.248 5 16.248H4.062C3.502 16.248 2.975 16.141 2.48 15.926C1.985 15.711 1.555 15.421 1.191 15.057C0.826 14.693 0.537001 14.263 0.322001 13.768C0.107 13.273 0 12.746 0 12.186C0 11.639 0.104 11.124 0.313 10.643C0.521 10.162 0.808 9.738 1.172 9.374C1.536 9.01 1.963 8.72 2.451 8.505C2.939 8.29 3.457 8.183 4.004 8.183C4.16 8.183 4.317 8.196 4.473 8.222C4.629 8.248 4.786 8.281 4.942 8.32C5.345 7.591 5.899 6.992 6.602 6.523C7.305 6.054 8.06 5.774 8.868 5.683C9.154 4.745 9.685 3.981 10.46 3.388C11.234 2.795 12.123 2.499 13.126 2.499C13.737 2.499 14.311 2.613 14.845 2.841C15.378 3.069 15.841 3.381 16.232 3.779C16.623 4.177 16.931 4.638 17.16 5.166C17.388 5.693 17.502 6.263 17.502 6.875C17.502 7.122 17.482 7.373 17.443 7.627C17.404 7.881 17.339 8.132 17.248 8.379C18.027 8.652 18.682 9.137 19.209 9.833ZM7.949 17.948C7.832 18.065 7.682 18.124 7.5 18.124C7.317 18.124 7.168 18.065 7.051 17.948C6.934 17.831 6.875 17.681 6.875 17.499V12.499C6.875 12.316 6.934 12.167 7.051 12.05C7.168 11.933 7.318 11.874 7.5 11.874C7.682 11.874 7.832 11.933 7.949 12.05C8.066 12.167 8.125 12.317 8.125 12.499V17.499C8.125 17.682 8.066 17.831 7.949 17.948ZM9.121 3.496C9.056 3.496 8.984 3.479 8.906 3.447C8.828 3.415 8.756 3.372 8.691 3.32L8.242 2.871C8.125 2.754 8.066 2.61 8.066 2.441C8.066 2.272 8.125 2.122 8.242 1.992C8.372 1.875 8.522 1.816 8.691 1.816C8.86 1.816 9.004 1.875 9.121 1.992L9.57 2.441C9.687 2.558 9.746 2.702 9.746 2.871C9.746 3.04 9.687 3.19 9.57 3.32C9.505 3.372 9.436 3.415 9.365 3.447C9.293 3.479 9.211 3.496 9.121 3.496ZM10.449 19.823C10.331 19.94 10.181 19.999 9.999 19.999C9.816 19.999 9.667 19.94 9.55 19.823C9.433 19.706 9.374 19.556 9.374 19.374V14.374C9.374 14.191 9.433 14.042 9.55 13.925C9.667 13.808 9.817 13.749 9.999 13.749C10.181 13.749 10.331 13.808 10.449 13.925C10.566 14.042 10.625 14.192 10.625 14.374V19.374C10.625 19.557 10.566 19.706 10.449 19.823ZM15.098 8.281C15.371 8.216 15.651 8.183 15.938 8.183C16.029 7.961 16.104 7.744 16.163 7.529C16.222 7.314 16.251 7.096 16.251 6.875C16.251 6.003 15.948 5.264 15.343 4.658C14.738 4.052 13.998 3.75 13.126 3.75C12.501 3.75 11.921 3.933 11.388 4.297C10.854 4.661 10.476 5.124 10.255 5.684C11.128 5.814 11.922 6.13 12.638 6.631C13.354 7.132 13.913 7.774 14.318 8.555C14.563 8.437 14.824 8.346 15.098 8.281ZM12.949 17.948C12.832 18.065 12.681 18.124 12.5 18.124C12.317 18.124 12.168 18.065 12.051 17.948C11.934 17.831 11.875 17.681 11.875 17.499V12.499C11.875 12.316 11.934 12.167 12.051 12.05C12.168 11.933 12.318 11.874 12.5 11.874C12.682 11.874 12.832 11.933 12.949 12.05C13.066 12.167 13.125 12.317 13.125 12.499V17.499C13.125 17.682 13.066 17.831 12.949 17.948ZM13.574 1.699C13.457 1.816 13.306 1.875 13.125 1.875C12.942 1.875 12.793 1.816 12.676 1.699C12.559 1.582 12.5 1.432 12.5 1.25V0.625C12.5 0.442 12.559 0.293001 12.676 0.176001C12.793 0.0590006 12.943 0 13.125 0C13.307 0 13.457 0.0590006 13.574 0.176001C13.691 0.293001 13.75 0.443 13.75 0.625V1.25C13.75 1.432 13.691 1.582 13.574 1.699ZM17.559 3.32C17.494 3.372 17.422 3.415 17.344 3.447C17.266 3.479 17.194 3.496 17.129 3.496C17.064 3.496 16.988 3.479 16.904 3.447C16.819 3.415 16.744 3.372 16.679 3.32C16.562 3.19 16.503 3.04 16.503 2.871C16.503 2.702 16.562 2.558 16.679 2.441L17.128 1.992C17.245 1.875 17.388 1.816 17.558 1.816C17.727 1.816 17.876 1.875 18.007 1.992C18.124 2.122 18.183 2.272 18.183 2.441C18.183 2.61 18.124 2.754 18.007 2.871L17.559 3.32ZM19.824 6.425C19.941 6.542 20 6.692 20 6.874C20 7.056 19.941 7.206 19.824 7.323C19.707 7.44 19.556 7.499 19.375 7.499H18.75C18.567 7.499 18.418 7.44 18.301 7.323C18.184 7.206 18.125 7.056 18.125 6.874C18.125 6.692 18.184 6.542 18.301 6.425C18.418 6.308 18.568 6.249 18.75 6.249H19.375C19.557 6.249 19.707 6.308 19.824 6.425Z" transform="translate(0.843445 0.820999)"/>
<path d="M5.34147 3.75L4.15047 3.125L5.40047 2.441C5.52947 2.35 5.61747 2.22 5.66447 2.05C5.70947 1.881 5.68547 1.718 5.59647 1.562C5.49147 1.406 5.35847 1.308 5.19647 1.269C5.03247 1.23 4.87447 1.243 4.71747 1.308L3.46747 1.992V0.625C3.46747 0.443 3.40847 0.293001 3.29147 0.176001C3.17447 0.0590006 3.02347 0 2.84247 0C2.64747 0 2.49247 0.0590006 2.38347 0.176001C2.27247 0.293001 2.21747 0.443 2.21747 0.625V2.07L0.966466 1.367C0.810466 1.276 0.646466 1.257 0.478466 1.308C0.308466 1.36 0.177466 1.464 0.0874659 1.621C-0.00453407 1.777 -0.0235341 1.94 0.0284659 2.109C0.0794659 2.278 0.184466 2.409 0.341466 2.5L1.59147 3.184L0.341466 3.868C0.185466 3.972 0.0874654 4.106 0.0484654 4.268C0.00946542 4.431 0.0214659 4.59 0.0874659 4.747C0.151466 4.838 0.230466 4.913 0.321466 4.972C0.411466 5.031 0.522466 5.06 0.653466 5.06C0.717466 5.06 0.770466 5.057 0.809466 5.05C0.848466 5.044 0.899465 5.028 0.965465 5.001L2.21547 4.317V5.626C2.21547 5.808 2.27047 5.958 2.38147 6.075C2.49047 6.192 2.64547 6.251 2.84047 6.251C3.02247 6.251 3.17247 6.192 3.28947 6.075C3.40647 5.958 3.46547 5.808 3.46547 5.626V4.181L4.71547 4.884C4.77947 4.91 4.83247 4.926 4.87147 4.933C4.91047 4.94 4.96147 4.943 5.02747 4.943C5.11747 4.943 5.21847 4.914 5.33047 4.855C5.43947 4.796 5.52747 4.722 5.59447 4.63C5.68447 4.474 5.70347 4.311 5.65347 4.142C5.60147 3.972 5.49747 3.841 5.34147 3.75Z"/>
</svg>
