<svg width="30" height="18" viewBox="0 0 30 18" fill="currentColor" xmlns="http://www.w3.org/2000/svg">
<path d="M0.176 5.291C0.293 5.174 0.443 5.115 0.625 5.115H11.563C12.096 5.115 12.552 4.927 12.93 4.549C13.307 4.172 13.496 3.716 13.496 3.182C13.496 2.648 13.307 2.193 12.93 1.815C12.552 1.438 12.096 1.249 11.563 1.249C11.159 1.249 10.788 1.373 10.45 1.62C10.111 1.868 9.877 2.18 9.747 2.558C9.682 2.714 9.571 2.831 9.415 2.91C9.259 2.989 9.102 2.995 8.946 2.93C8.79 2.865 8.673 2.751 8.594 2.588C8.516 2.425 8.502 2.266 8.555 2.109C8.776 1.484 9.16 0.975999 9.707 0.585999C10.254 0.196 10.872 0 11.562 0C12.434 0 13.183 0.313 13.808 0.938C14.433 1.563 14.746 2.312 14.746 3.184C14.746 4.057 14.433 4.805 13.808 5.43C13.183 6.055 12.434 6.368 11.562 6.368H0.625C0.442 6.368 0.293 6.309 0.176 6.192C0.0590001 6.075 0 5.925 0 5.743C0 5.558 0.0590001 5.408 0.176 5.291ZM16.816 8.24C17.688 8.24 18.437 8.553 19.062 9.178C19.687 9.803 20 10.552 20 11.424C20 12.297 19.687 13.045 19.062 13.67C18.437 14.295 17.688 14.608 16.816 14.608C16.126 14.608 15.507 14.413 14.961 14.022C14.415 13.631 14.029 13.124 13.809 12.499C13.744 12.343 13.75 12.184 13.829 12.02C13.907 11.857 14.024 11.744 14.181 11.678C14.337 11.613 14.496 11.619 14.66 11.698C14.822 11.776 14.936 11.893 15.002 12.05C15.132 12.454 15.366 12.773 15.705 13.007C16.043 13.241 16.414 13.359 16.818 13.359C17.351 13.359 17.807 13.171 18.185 12.793C18.562 12.416 18.751 11.96 18.751 11.426C18.751 10.892 18.562 10.437 18.185 10.059C17.807 9.682 17.351 9.493 16.818 9.493H0.625C0.442 9.493 0.293 9.434 0.176 9.317C0.0590001 9.2 0 9.05 0 8.868C0 8.686 0.0590001 8.536 0.176 8.419C0.293 8.302 0.443 8.243 0.625 8.243H16.816V8.24ZM8.691 12.303C9.316 12.928 9.629 13.677 9.629 14.549C9.629 15.422 9.316 16.17 8.691 16.795C8.066 17.42 7.317 17.733 6.445 17.733C5.755 17.733 5.136 17.538 4.59 17.147C4.044 16.756 3.658 16.249 3.438 15.624C3.373 15.468 3.379 15.309 3.458 15.145C3.536 14.982 3.653 14.869 3.81 14.803C3.966 14.738 4.125 14.744 4.289 14.823C4.451 14.901 4.565 15.018 4.631 15.175C4.748 15.579 4.976 15.898 5.315 16.132C5.653 16.366 6.031 16.484 6.448 16.484C6.969 16.484 7.421 16.296 7.805 15.918C8.189 15.541 8.381 15.085 8.381 14.551C8.381 14.017 8.189 13.562 7.805 13.184C7.42 12.807 6.968 12.618 6.448 12.618H0.628C0.445 12.618 0.296 12.559 0.179 12.442C0.0619999 12.325 0.00299978 12.175 0.00299978 11.993C0.00299978 11.811 0.0619999 11.661 0.179 11.544C0.296 11.427 0.446 11.368 0.628 11.368H6.448C7.317 11.365 8.066 11.678 8.691 12.303Z"/>
<path d="M5.34047 3.75L4.14947 3.125L5.39947 2.441C5.52847 2.35 5.61647 2.22 5.66347 2.05C5.70847 1.881 5.68447 1.718 5.59547 1.562C5.49047 1.406 5.35747 1.308 5.19547 1.269C5.03147 1.23 4.87347 1.243 4.71647 1.308L3.46647 1.992V0.625C3.46647 0.443 3.40747 0.293 3.29047 0.176C3.17347 0.0589996 3.02247 0 2.84147 0C2.64647 0 2.49147 0.0589996 2.38247 0.176C2.27147 0.293 2.21647 0.443 2.21647 0.625V2.07L0.966468 1.367C0.810468 1.276 0.646467 1.257 0.478467 1.308C0.308467 1.36 0.177466 1.464 0.0874659 1.621C-0.00453407 1.777 -0.0235341 1.94 0.0284659 2.109C0.0794659 2.278 0.184468 2.409 0.341468 2.5L1.59147 3.184L0.341468 3.868C0.185468 3.972 0.0874664 4.106 0.0484664 4.268C0.00946637 4.431 0.0214659 4.59 0.0874659 4.747C0.151466 4.838 0.230467 4.913 0.321467 4.972C0.411467 5.031 0.522466 5.06 0.653466 5.06C0.717466 5.06 0.770466 5.057 0.809466 5.05C0.848466 5.044 0.899466 5.028 0.965466 5.001L2.21547 4.317V5.626C2.21547 5.808 2.27047 5.958 2.38147 6.075C2.49047 6.192 2.64547 6.251 2.84047 6.251C3.02247 6.251 3.17247 6.192 3.28947 6.075C3.40647 5.958 3.46547 5.808 3.46547 5.626V4.181L4.71547 4.884C4.77947 4.91 4.83247 4.926 4.87147 4.933C4.91047 4.94 4.96147 4.943 5.02747 4.943C5.11747 4.943 5.21847 4.914 5.33047 4.855C5.43947 4.796 5.52747 4.722 5.59447 4.63C5.68447 4.474 5.70347 4.311 5.65347 4.142C5.60047 3.972 5.49747 3.842 5.34047 3.75Z" transform="translate(18.6145 0.0839996)"/>
<path d="M5.34046 3.75L4.14947 3.125L5.39947 2.441C5.52847 2.35 5.61647 2.22 5.66347 2.05C5.70847 1.881 5.68447 1.718 5.59547 1.562C5.49047 1.406 5.35746 1.308 5.19546 1.269C5.03146 1.23 4.87346 1.243 4.71646 1.308L3.46646 1.992V0.625C3.46646 0.443 3.40747 0.293001 3.29047 0.176001C3.17347 0.0590006 3.02247 0 2.84147 0C2.64647 0 2.49147 0.0590006 2.38247 0.176001C2.27147 0.293001 2.21647 0.443 2.21647 0.625V2.07L0.966466 1.367C0.810466 1.276 0.646465 1.257 0.478465 1.308C0.308465 1.36 0.177466 1.464 0.0874659 1.621C-0.00453407 1.777 -0.0235341 1.94 0.0284659 2.109C0.0794659 2.278 0.184466 2.409 0.341466 2.5L1.59147 3.184L0.341466 3.868C0.185466 3.972 0.0874645 4.106 0.0484645 4.268C0.00946447 4.431 0.0214659 4.59 0.0874659 4.747C0.151466 4.838 0.230465 4.913 0.321465 4.972C0.411465 5.031 0.522466 5.06 0.653466 5.06C0.717466 5.06 0.770466 5.057 0.809466 5.05C0.848466 5.044 0.899464 5.028 0.965464 5.001L2.21546 4.317V5.626C2.21546 5.808 2.27046 5.958 2.38146 6.075C2.49046 6.192 2.64546 6.251 2.84046 6.251C3.02246 6.251 3.17247 6.192 3.28947 6.075C3.40647 5.958 3.46546 5.808 3.46546 5.626V4.181L4.71546 4.884C4.77946 4.91 4.83247 4.926 4.87147 4.933C4.91047 4.94 4.96146 4.943 5.02746 4.943C5.11746 4.943 5.21847 4.914 5.33047 4.855C5.43947 4.796 5.52747 4.722 5.59447 4.63C5.68447 4.474 5.70346 4.311 5.65346 4.142C5.60046 3.972 5.49746 3.842 5.34046 3.75Z" transform="translate(23.7715 11.365)"/>
</svg>
