<svg width="20" height="17" viewBox="0 0 20 17" fill="currentColor" xmlns="http://www.w3.org/2000/svg">
<path d="M16.815 5.687C17.753 5.909 18.517 6.39 19.11 7.132C19.702 7.874 19.999 8.727 19.999 9.69C19.999 10.211 19.907 10.703 19.726 11.165C19.543 11.627 19.287 12.041 18.955 12.405C18.623 12.769 18.232 13.069 17.783 13.303C17.334 13.537 16.842 13.687 16.308 13.752H16.249C16.093 13.752 15.956 13.696 15.839 13.586C15.722 13.476 15.65 13.342 15.624 13.186C15.624 13.03 15.679 12.883 15.79 12.747C15.9 12.61 16.034 12.529 16.19 12.503C16.906 12.438 17.511 12.132 18.006 11.585C18.5 11.038 18.748 10.406 18.748 9.69C18.748 8.975 18.5 8.35 18.006 7.815C17.511 7.281 16.905 6.968 16.19 6.877C16.034 6.851 15.9 6.789 15.79 6.691C15.679 6.593 15.624 6.466 15.624 6.31C15.559 5.594 15.366 4.926 15.048 4.308C14.729 3.69 14.319 3.156 13.818 2.706C13.316 2.257 12.737 1.902 12.08 1.642C11.422 1.381 10.728 1.251 9.999 1.251C9.374 1.251 8.778 1.349 8.212 1.544C7.646 1.739 7.128 2.013 6.659 2.364C6.19 2.715 5.78 3.135 5.429 3.624C5.078 4.113 4.81 4.656 4.628 5.255C4.563 5.372 4.484 5.467 4.394 5.538C4.303 5.609 4.211 5.658 4.121 5.684C3.313 5.814 2.633 6.199 2.08 6.836C1.526 7.474 1.25 8.216 1.25 9.063C1.25 9.974 1.556 10.752 2.168 11.396C2.78 12.041 3.535 12.409 4.434 12.5C4.59 12.526 4.73 12.607 4.854 12.744C4.978 12.881 5.026 13.027 5 13.183C4.974 13.339 4.899 13.479 4.775 13.603C4.651 13.727 4.498 13.776 4.316 13.749C3.704 13.684 3.134 13.518 2.607 13.251C2.08 12.984 1.624 12.643 1.24 12.226C0.856 11.809 0.553 11.33 0.332 10.79C0.11 10.25 0 9.674 0 9.062C0 8.528 0.0879999 8.017 0.264 7.529C0.44 7.041 0.683999 6.594 0.995999 6.191C1.308 5.788 1.68 5.439 2.109 5.146C2.538 4.853 3.001 4.635 3.496 4.492C3.769 3.828 4.124 3.22 4.56 2.666C4.996 2.112 5.498 1.638 6.064 1.24C6.63 0.842 7.249 0.537001 7.919 0.322001C8.589 0.107 9.283 0 9.999 0C10.859 0 11.669 0.144 12.431 0.43C13.193 0.716 13.876 1.114 14.482 1.621C15.088 2.128 15.591 2.731 15.996 3.428C16.398 4.128 16.672 4.879 16.815 5.687ZM7.303 15.316C7.212 15.16 7.189 15.001 7.235 14.837C7.28 14.674 7.368 14.561 7.499 14.495L8.749 13.811L7.499 13.127C7.343 13.036 7.238 12.905 7.186 12.736C7.134 12.567 7.153 12.404 7.245 12.248C7.336 12.092 7.466 11.987 7.636 11.935C7.805 11.883 7.968 11.903 8.124 11.994L9.374 12.697V11.252C9.374 11.069 9.433 10.92 9.55 10.803C9.667 10.686 9.817 10.627 9.999 10.627C10.181 10.627 10.331 10.686 10.449 10.803C10.566 10.92 10.625 11.07 10.625 11.252V12.619L11.875 11.935C12.031 11.87 12.193 11.857 12.363 11.896C12.532 11.935 12.662 12.033 12.754 12.189C12.818 12.345 12.832 12.508 12.793 12.677C12.754 12.846 12.656 12.977 12.5 13.068L11.25 13.752L12.559 14.377C12.715 14.468 12.819 14.599 12.872 14.768C12.924 14.937 12.904 15.1 12.813 15.256C12.748 15.347 12.66 15.422 12.549 15.481C12.438 15.54 12.337 15.569 12.246 15.569C12.181 15.569 12.129 15.566 12.09 15.559C12.051 15.552 11.998 15.537 11.934 15.51L10.684 14.807V16.252C10.684 16.435 10.628 16.584 10.518 16.701C10.407 16.818 10.254 16.877 10.059 16.877C9.876 16.877 9.727 16.818 9.61 16.701C9.493 16.584 9.432 16.436 9.432 16.253V14.886L8.182 15.57C8.117 15.596 8.065 15.612 8.026 15.619C7.987 15.626 7.935 15.629 7.87 15.629C7.753 15.629 7.645 15.6 7.548 15.541C7.451 15.482 7.368 15.406 7.303 15.316Z"/>
</svg>
