<svg width="15" height="22" viewBox="0 0 15 22" fill="currentColor" xmlns="http://www.w3.org/2000/svg">
<path d="M0.610137 7.05595C0.693137 7.06595 0.776137 7.05195 0.859137 7.01495C0.942137 6.97895 1.00614 6.93695 1.05214 6.89095C1.09814 6.84495 1.13914 6.78095 1.17614 6.69795C1.21314 6.61595 1.22614 6.53295 1.21714 6.44895V0.60895C1.22614 0.43395 1.17114 0.286949 1.05114 0.166949C0.932136 0.0479492 0.784137 -0.00805113 0.609137 0.000948866C0.434137 -0.00805113 0.286136 0.0469492 0.167136 0.166949C0.0471357 0.286949 -0.00786274 0.43395 0.00113726 0.60895V6.44795C-0.00886274 6.62295 0.0471357 6.77095 0.167136 6.88995C0.288136 7.00995 0.435137 7.06495 0.610137 7.05595Z" transform="translate(11.1409)"/>
<path d="M0.610137 5.05495C0.693137 5.06495 0.776137 5.05095 0.859137 5.01395C0.942137 4.97795 1.00614 4.93595 1.05214 4.88995C1.09814 4.84395 1.13914 4.77995 1.17614 4.69695C1.21314 4.61495 1.22614 4.53195 1.21714 4.44795V0.608949C1.22614 0.433949 1.17114 0.286949 1.05114 0.166949C0.931136 0.0479492 0.784137 -0.00805113 0.609137 0.000948866C0.434137 -0.00805113 0.286138 0.0469492 0.167138 0.166949C0.0471376 0.286949 -0.00786277 0.433949 0.00113723 0.608949V4.44795C-0.00886277 4.62295 0.0471376 4.76995 0.167138 4.88995C0.288138 5.00895 0.435137 5.06495 0.610137 5.05495Z" transform="translate(6.72186 2.581)"/>
<path d="M0.609137 9.05595C0.692137 9.06595 0.770138 9.05695 0.844138 9.02795C0.918138 9.00095 0.986137 8.95495 1.05114 8.88995C1.11514 8.82595 1.16114 8.75695 1.18914 8.68295C1.21714 8.60995 1.22614 8.53195 1.21714 8.44795V0.60895C1.22614 0.43395 1.17114 0.286949 1.05114 0.166949C0.932137 0.0469492 0.784137 -0.00805113 0.609137 0.000948866C0.434137 -0.00805113 0.287138 0.0469492 0.167138 0.166949C0.0471376 0.286949 -0.00786277 0.43395 0.00113723 0.60895V8.44795C-0.00886277 8.62295 0.0471376 8.76995 0.167138 8.88995C0.286138 9.00995 0.433137 9.06595 0.609137 9.05595Z" transform="translate(2.30386 0.651001)"/>
<path d="M5.562 2.781C5.562 1.247 4.314 0 2.781 0C1.248 0 0 1.248 0 2.781C0 4.314 1.248 5.562 2.781 5.562C4.314 5.562 5.562 4.315 5.562 2.781ZM2.78 4.563C1.798 4.563 0.999 3.764 0.999 2.782C0.999 1.8 1.798 1.001 2.78 1.001C3.762 1.001 4.561 1.8 4.561 2.782C4.561 3.764 3.763 4.563 2.78 4.563Z" transform="translate(0 11.16)"/>
<path d="M2.781 0C1.248 0 0 1.248 0 2.781C0 4.314 1.248 5.562 2.781 5.562C4.314 5.562 5.562 4.314 5.562 2.781C5.562 1.248 4.314 0 2.781 0ZM2.781 4.563C1.799 4.563 1 3.764 1 2.782C1 1.8 1.799 1.001 2.781 1.001C3.763 1.001 4.562 1.8 4.562 2.782C4.562 3.764 3.763 4.563 2.781 4.563Z" transform="translate(9.437 9.15995)"/>
<path d="M2.781 0C1.248 0 0 1.248 0 2.781C0 4.314 1.248 5.562 2.781 5.562C4.314 5.562 5.562 4.314 5.562 2.781C5.562 1.248 4.314 0 2.781 0ZM2.781 4.563C1.799 4.563 1 3.764 1 2.782C1 1.8 1.799 1.001 2.781 1.001C3.763 1.001 4.562 1.8 4.562 2.782C4.562 3.764 3.764 4.563 2.781 4.563Z" transform="translate(4.718 16.16)"/>
</svg>
