<svg width="30" height="24" viewBox="0 0 30 24" fill="currentColor" xmlns="http://www.w3.org/2000/svg">
<path d="M0.625 0C0.442 0 0.293001 0.0590006 0.176001 0.176001C0.0590006 0.293001 0 0.443 0 0.625V1.25C0 1.433 0.0590006 1.582 0.176001 1.699C0.293001 1.816 0.443 1.875 0.625 1.875C0.807 1.875 0.956999 1.816 1.074 1.699C1.191 1.582 1.25 1.432 1.25 1.25V0.625C1.25 0.443 1.191 0.293001 1.074 0.176001C0.956999 0.0590006 0.807 0 0.625 0Z" transform="translate(13.2195 17.156)"/>
<path d="M0.625 0C0.442 0 0.293001 0.0590006 0.176001 0.176001C0.0590006 0.293001 0 0.443 0 0.625V1.25C0 1.432 0.0590006 1.582 0.176001 1.699C0.293001 1.816 0.443 1.875 0.625 1.875C0.807 1.875 0.956999 1.816 1.074 1.699C1.191 1.582 1.25 1.432 1.25 1.25V0.625C1.25 0.443 1.191 0.293001 1.074 0.176001C0.956999 0.0590006 0.807 0 0.625 0Z" transform="translate(13.2195 20.281)"/>
<path d="M0.625 0C0.442 0 0.293001 0.0590006 0.176001 0.176001C0.0590006 0.293001 0 0.443 0 0.625V1.25C0 1.433 0.0590006 1.582 0.176001 1.699C0.293001 1.816 0.443 1.875 0.625 1.875C0.807 1.875 0.956999 1.816 1.074 1.699C1.191 1.582 1.25 1.432 1.25 1.25V0.625C1.25 0.443 1.191 0.293001 1.074 0.176001C0.956999 0.0590006 0.807 0 0.625 0Z" transform="translate(10.0945 15.281)"/>
<path d="M0.625 0C0.442 0 0.293001 0.0590006 0.176001 0.176001C0.0590006 0.293001 0 0.443 0 0.625V1.25C0 1.433 0.0590006 1.582 0.176001 1.699C0.293001 1.816 0.443 1.875 0.625 1.875C0.807 1.875 0.956999 1.816 1.074 1.699C1.191 1.582 1.25 1.432 1.25 1.25V0.625C1.25 0.443 1.191 0.293001 1.074 0.176001C0.956999 0.0590006 0.807 0 0.625 0Z" transform="translate(10.0945 18.406)"/>
<path d="M16.816 5.684C16.672 4.877 16.399 4.125 15.996 3.428C15.592 2.732 15.088 2.129 14.482 1.621C13.876 1.113 13.193 0.716 12.431 0.43C11.669 0.144 10.859 0 9.999 0C9.283 0 8.589 0.107 7.919 0.322C7.248 0.537 6.63 0.843 6.064 1.24C5.498 1.637 4.996 2.113 4.56 2.666C4.123 3.22 3.769 3.828 3.496 4.492C3.001 4.636 2.539 4.853 2.109 5.146C1.679 5.439 1.308 5.788 0.996 6.191C0.683 6.595 0.439 7.041 0.264 7.529C0.0889999 8.017 0 8.529 0 9.062C0 9.674 0.11 10.25 0.332 10.791C0.553 11.332 0.856 11.81 1.24 12.227C1.624 12.644 2.08 12.986 2.607 13.252C3.134 13.519 3.704 13.685 4.316 13.75C4.498 13.776 4.651 13.728 4.775 13.604C4.899 13.48 4.973 13.34 5 13.184C5 13.028 4.944 12.881 4.834 12.745C4.723 12.608 4.59 12.527 4.434 12.501C3.536 12.41 2.78 12.042 2.168 11.397C1.556 10.752 1.25 9.975 1.25 9.063C1.25 8.217 1.526 7.475 2.08 6.836C2.633 6.198 3.313 5.814 4.121 5.684C4.212 5.658 4.303 5.609 4.394 5.538C4.485 5.467 4.563 5.372 4.628 5.255C4.81 4.656 5.077 4.112 5.429 3.624C5.781 3.136 6.191 2.716 6.659 2.364C7.127 2.012 7.645 1.739 8.212 1.544C8.779 1.349 9.374 1.251 9.999 1.251C10.728 1.251 11.421 1.381 12.079 1.642C12.736 1.903 13.316 2.257 13.817 2.706C14.318 3.155 14.728 3.689 15.047 4.308C15.366 4.927 15.558 5.594 15.623 6.31C15.623 6.466 15.678 6.593 15.789 6.691C15.899 6.789 16.033 6.851 16.189 6.877C16.905 6.968 17.51 7.281 18.005 7.815C18.5 8.349 18.747 8.974 18.747 9.69C18.747 10.406 18.499 11.038 18.005 11.585C17.51 12.132 16.904 12.438 16.189 12.503C16.033 12.529 15.899 12.61 15.789 12.747C15.678 12.884 15.623 13.03 15.623 13.186C15.649 13.342 15.721 13.476 15.838 13.586C15.955 13.697 16.092 13.752 16.248 13.752H16.307C16.841 13.687 17.332 13.537 17.782 13.303C18.232 13.069 18.622 12.769 18.954 12.405C19.286 12.041 19.543 11.627 19.725 11.165C19.907 10.703 19.998 10.211 19.998 9.69C19.998 8.727 19.702 7.874 19.109 7.131C18.518 6.387 17.753 5.905 16.816 5.684Z" transform="translate(3.84447 3.406)"/>
<path d="M0.625 0C0.442 0 0.293001 0.0590006 0.176001 0.176001C0.0590006 0.293001 0 0.443 0 0.625V1.25C0 1.433 0.0590006 1.582 0.176001 1.699C0.293001 1.816 0.443 1.875 0.625 1.875C0.807 1.875 0.956999 1.816 1.074 1.699C1.191 1.582 1.25 1.432 1.25 1.25V0.625C1.25 0.443 1.191 0.293001 1.074 0.176001C0.956999 0.0590006 0.807 0 0.625 0Z" transform="translate(16.3445 18.406)"/>
<path d="M0.625 0C0.442 0 0.293001 0.0590006 0.176001 0.176001C0.0590006 0.293001 0 0.443 0 0.625V1.25C0 1.433 0.0590006 1.582 0.176001 1.699C0.293001 1.816 0.443 1.875 0.625 1.875C0.807 1.875 0.956999 1.816 1.074 1.699C1.191 1.582 1.25 1.432 1.25 1.25V0.625C1.25 0.443 1.191 0.293001 1.074 0.176001C0.956999 0.0590006 0.807 0 0.625 0Z" transform="translate(16.3445 15.281)"/>
<path d="M4.87347 4.932C4.91247 4.939 4.96347 4.942 5.02947 4.942C5.11947 4.942 5.22047 4.913 5.33247 4.854C5.44147 4.795 5.52947 4.721 5.59647 4.629C5.68647 4.473 5.70547 4.31 5.65547 4.141C5.60247 3.972 5.49947 3.842 5.34247 3.75L4.15147 3.125L5.40147 2.441C5.53047 2.35 5.61847 2.22 5.66547 2.05C5.71047 1.881 5.68647 1.718 5.59747 1.562C5.49247 1.406 5.35947 1.308 5.19747 1.269C5.03347 1.23 4.87547 1.243 4.71847 1.308L3.46847 1.992V0.625C3.46847 0.443 3.40947 0.293 3.29247 0.176C3.17547 0.0589996 3.02347 0 2.84147 0C2.64647 0 2.49147 0.0589996 2.38247 0.176C2.27147 0.293 2.21647 0.443 2.21647 0.625V2.07L0.966466 1.367C0.810466 1.276 0.646466 1.257 0.478466 1.308C0.308466 1.361 0.177466 1.465 0.0874659 1.621C-0.00453407 1.777 -0.0235341 1.94 0.0284659 2.109C0.0794659 2.278 0.184466 2.409 0.341466 2.5L1.59147 3.184L0.341466 3.868C0.185466 3.972 0.0874659 4.106 0.0484659 4.268C0.0094659 4.431 0.0214659 4.59 0.0874659 4.747C0.151466 4.838 0.230466 4.913 0.321466 4.972C0.411466 5.031 0.522466 5.06 0.653466 5.06C0.717466 5.06 0.770466 5.057 0.809466 5.05C0.848466 5.044 0.899466 5.028 0.965466 5.001L2.21547 4.317V5.626C2.21547 5.808 2.27047 5.958 2.38147 6.075C2.49047 6.192 2.64547 6.251 2.84047 6.251C3.02247 6.251 3.17247 6.192 3.28947 6.075C3.40647 5.958 3.46547 5.808 3.46547 5.626V4.181L4.71547 4.884C4.78147 4.909 4.83447 4.925 4.87347 4.932Z"/>
<path d="M5.34047 3.75L4.14947 3.125L5.39947 2.441C5.52847 2.35 5.61647 2.22 5.66347 2.05C5.70847 1.881 5.68447 1.718 5.59547 1.562C5.49047 1.406 5.35747 1.308 5.19547 1.269C5.03147 1.23 4.87347 1.243 4.71647 1.308L3.46647 1.992V0.625C3.46647 0.443 3.40747 0.293001 3.29047 0.176001C3.17347 0.0590006 3.02247 0 2.84147 0C2.64647 0 2.49147 0.0590006 2.38247 0.176001C2.27147 0.293001 2.21647 0.443 2.21647 0.625V2.07L0.966468 1.367C0.810468 1.276 0.646467 1.257 0.478467 1.308C0.308467 1.36 0.177466 1.464 0.0874659 1.621C-0.00453407 1.777 -0.0235341 1.94 0.0284659 2.109C0.0794659 2.278 0.184468 2.409 0.341468 2.5L1.59147 3.184L0.341468 3.868C0.185468 3.972 0.0874664 4.106 0.0484664 4.268C0.00946637 4.431 0.0214659 4.59 0.0874659 4.747C0.151466 4.838 0.230467 4.913 0.321467 4.972C0.411467 5.031 0.522466 5.06 0.653466 5.06C0.717466 5.06 0.770466 5.057 0.809466 5.05C0.848466 5.044 0.899466 5.028 0.965466 5.001L2.21547 4.317V5.626C2.21547 5.808 2.27047 5.958 2.38147 6.075C2.49047 6.192 2.64547 6.251 2.84047 6.251C3.02247 6.251 3.17247 6.192 3.28947 6.075C3.40647 5.958 3.46547 5.808 3.46547 5.626V4.181L4.71547 4.884C4.77947 4.91 4.83247 4.926 4.87147 4.933C4.91047 4.94 4.96147 4.943 5.02747 4.943C5.11747 4.943 5.21847 4.914 5.33047 4.855C5.43947 4.796 5.52747 4.722 5.59447 4.63C5.68447 4.474 5.70347 4.311 5.65347 4.142C5.60047 3.972 5.49647 3.841 5.34047 3.75Z" transform="translate(23.845 17.156)"/>
</svg>
