<svg width="25" height="14" viewBox="0 0 25 14" fill="currentColor" xmlns="http://www.w3.org/2000/svg">
<path d="M0.625 0C0.442 0 0.293 0.0590006 0.176 0.176001C0.0589996 0.293001 0 0.443 0 0.625C0 0.808 0.0589996 0.956999 0.176 1.074C0.293 1.191 0.443 1.25 0.625 1.25H13.125C13.307 1.25 13.457 1.191 13.574 1.074C13.691 0.956999 13.75 0.807 13.75 0.625C13.75 0.443 13.691 0.293001 13.574 0.176001C13.457 0.0590006 13.306 0 13.125 0H0.625Z" transform="translate(6.125 6.5)"/>
<path d="M5.449 1.074C5.566 0.956999 5.625 0.807 5.625 0.625C5.625 0.443 5.566 0.293001 5.449 0.176001C5.332 0.0590006 5.181 0 5 0H0.625C0.442 0 0.293 0.0590006 0.176 0.176001C0.0590001 0.293001 0 0.443 0 0.625C0 0.808 0.0590001 0.956999 0.176 1.074C0.293 1.191 0.443 1.25 0.625 1.25H5C5.181 1.25 5.332 1.191 5.449 1.074Z" transform="translate(0 8.875)"/>
<path d="M0.625 1.25H18.125C18.307 1.25 18.457 1.191 18.574 1.074C18.691 0.956999 18.75 0.807 18.75 0.625C18.75 0.443 18.691 0.293001 18.574 0.176001C18.457 0.0590006 18.306 0 18.125 0H0.625C0.442 0 0.293 0.0590006 0.176 0.176001C0.0589996 0.293001 0 0.443 0 0.625C0 0.808 0.0589996 0.956999 0.176 1.074C0.293 1.191 0.442 1.25 0.625 1.25Z" transform="translate(3.625 3.375)"/>
<path d="M8.699 0.176001C8.582 0.0590006 8.431 0 8.25 0H0.625C0.442 0 0.293001 0.0590006 0.176001 0.176001C0.0590006 0.293001 0 0.443 0 0.625C0 0.808 0.0590006 0.956999 0.176001 1.074C0.293001 1.191 0.443 1.25 0.625 1.25H8.25C8.432 1.25 8.582 1.191 8.699 1.074C8.816 0.956999 8.875 0.807 8.875 0.625C8.875 0.443 8.816 0.293001 8.699 0.176001Z" transform="translate(15.625 9.625)"/>
<path d="M6.875 0H0.625C0.442 0 0.293001 0.0590006 0.176001 0.176001C0.0590006 0.293001 0 0.443 0 0.625C0 0.808 0.0590006 0.956999 0.176001 1.074C0.293001 1.191 0.442 1.25 0.625 1.25H6.875C7.057 1.25 7.207 1.191 7.324 1.074C7.441 0.956999 7.5 0.807 7.5 0.625C7.5 0.443 7.441 0.293001 7.324 0.176001C7.207 0.0590006 7.056 0 6.875 0Z" transform="translate(11.125 12.75)"/>
<path d="M4.199 1.074C4.316 0.956999 4.375 0.807 4.375 0.625C4.375 0.443 4.316 0.293001 4.199 0.176001C4.082 0.0590006 3.931 0 3.75 0H0.624999C0.441999 0 0.293 0.0590006 0.176 0.176001C0.0589996 0.293001 0 0.443 0 0.625C0 0.808 0.0589996 0.956999 0.176 1.074C0.293 1.191 0.442999 1.25 0.624999 1.25H3.75C3.931 1.25 4.082 1.191 4.199 1.074Z" transform="translate(8.5 10)"/>
<path d="M3.75 0H0.625C0.442 0 0.293 0.0590006 0.176 0.176001C0.0589996 0.293001 0 0.443 0 0.625C0 0.808 0.0589996 0.956999 0.176 1.074C0.293 1.191 0.443 1.25 0.625 1.25H3.75C3.932 1.25 4.082 1.191 4.199 1.074C4.316 0.956999 4.375 0.807 4.375 0.625C4.375 0.443 4.316 0.293001 4.199 0.176001C4.082 0.0590006 3.931 0 3.75 0Z" transform="translate(4.5 12)"/>
<path d="M0.625 1.25H3.75C3.932 1.25 4.082 1.191 4.199 1.074C4.316 0.957 4.375 0.807 4.375 0.625C4.375 0.443 4.316 0.293 4.199 0.176C4.082 0.0589996 3.931 0 3.75 0H0.625C0.442 0 0.293001 0.0589996 0.176001 0.176C0.0590006 0.293 0 0.443 0 0.625C0 0.808 0.0590006 0.957 0.176001 1.074C0.293001 1.191 0.442 1.25 0.625 1.25Z" transform="translate(10.5)"/>
</svg>
