<svg width="11" height="24" viewBox="0 0 11 24" fill="currentColor" xmlns="http://www.w3.org/2000/svg">
<path d="M10.5092 12.0052C10.5092 11.9212 10.5092 11.8372 10.5092 11.7532C10.5092 8.85425 8.1572 6.50225 5.2582 6.50225C3.7882 6.50225 2.4432 7.13225 1.4772 8.09825C1.9392 5.91425 3.3672 3.35125 7.5682 1.16725C7.8622 0.999247 7.9882 0.621247 7.8202 0.327247C7.6522 0.0332472 7.2742 -0.0927526 6.9802 0.0752474C-0.118804 3.77225 -0.0348043 8.64525 0.00719571 11.2912C0.00719571 11.3752 0.00719571 11.4172 0.00719571 11.5012C0.00719571 11.5852 0.00719571 11.6692 0.00719571 11.7532C0.00719571 14.6522 2.3592 17.0042 5.2582 17.0042C6.7282 17.0042 8.0732 16.3742 8.9972 15.4082C8.5352 17.5922 7.0652 20.1132 2.9482 22.2552C2.6542 22.4232 2.5282 22.8012 2.6962 23.0952C2.8222 23.3052 3.0322 23.4312 3.2422 23.4312C3.3262 23.4312 3.4522 23.3892 3.5362 23.3472C10.6772 19.7342 10.5512 14.8192 10.5092 12.1732C10.5092 12.1312 10.5092 12.0892 10.5092 12.0052ZM9.2492 12.0052C9.1232 14.1052 7.4012 15.7442 5.2582 15.7442C3.1152 15.7442 1.3932 14.0642 1.2672 11.9632C1.2672 11.9212 1.2672 11.9212 1.2672 11.8792C1.2672 11.7532 1.2672 11.6272 1.2672 11.5012C1.4352 9.44325 3.1572 7.76225 5.2582 7.76225C7.4002 7.76225 9.1232 9.44225 9.2492 11.5432C9.2492 11.5852 9.2492 11.5852 9.2492 11.6272C9.2492 11.7532 9.2492 11.8792 9.2492 12.0052Z"/>
</svg>
