<svg width="21" height="19" viewBox="0 0 21 19" fill="currentColor" xmlns="http://www.w3.org/2000/svg">
<path d="M3.5 4.4C3.8 3.7 4.1 3.1 4.6 2.6C5 2 5.5 1.6 6.1 1.2C6.7 0.8 7.3 0.5 8 0.3C8.7 0.1 9.4 0 10.1 0C11 0 11.8 0.0999996 12.5 0.4C13.2 0.7 13.9 1.1 14.6 1.6C15.3 2.1 15.7 2.7 16.1 3.4C16.5 4.1 16.8 4.8 16.9 5.7C17.8 5.9 18.5 6.4 19.1 7C19.7 7.7 20 8.4 20.1 9.3C20.1 9.5 20.1 9.6 20 9.8C19.9 9.9 19.7 10 19.6 10H19.3C19.1 10 19 9.9 18.9 9.8C18.8 9.7 18.7 9.6 18.7 9.4C18.6 8.7 18.4 8.2 17.9 7.7C17.4 7.2 16.8 6.9 16.2 6.9C16 6.9 15.9 6.8 15.8 6.7C15.7 6.6 15.6 6.5 15.6 6.3C15.5 5.6 15.3 4.9 15 4.3C14.7 3.7 14.3 3.1 13.8 2.7C13.3 2.3 12.7 1.9 12.1 1.6C11.4 1.3 10.7 1.2 10 1.2C9.4 1.2 8.8 1.3 8.2 1.5C7.6 1.7 7.1 2 6.6 2.3C6.1 2.6 5.7 3.1 5.4 3.6C5.1 4.1 4.8 4.6 4.6 5.2C4.5 5.3 4.5 5.4 4.4 5.5C4.3 5.6 4.2 5.6 4.1 5.6C3.3 5.7 2.6 6.1 2.1 6.8C1.5 7.4 1.3 8.2 1.3 9V9.1V9.2C1.3 9.4 1.3 9.5 1.2 9.7C1.1 9.8 0.9 9.9 0.8 9.9C0.6 9.9 0.5 9.9 0.3 9.8C0.1 9.7 0.1 9.5 0.1 9.4C0.1 9.3 0.1 9.3 0.1 9.2C0.1 9.1 0.1 9.1 0.1 9C0.1 8.5 0.200001 8 0.400001 7.5C0.600001 7 0.8 6.6 1.1 6.2C1.4 5.8 1.8 5.4 2.2 5.2C2.6 5 3 4.5 3.5 4.4ZM19.8 12C19.9 12.1 20 12.3 20 12.4C20 12.5 19.9 12.7 19.8 12.8C19.7 12.9 19.5 13 19.4 13H0.6C0.4 13 0.3 12.9 0.2 12.8C0.0999998 12.7 0 12.5 0 12.4C0 12.3 0.0999998 12.1 0.2 12C0.3 11.9 0.5 11.8 0.6 11.8H19.3C19.5 11.8 19.7 11.8 19.8 12ZM17.3 15.4C17.2 15.5 17 15.6 16.9 15.6H3.1C2.9 15.6 2.8 15.5 2.7 15.4C2.6 15.3 2.5 15.1 2.5 15C2.5 14.9 2.6 14.7 2.7 14.6C2.8 14.5 3 14.4 3.1 14.4H16.9C17.1 14.4 17.2 14.5 17.3 14.6C17.4 14.7 17.5 14.9 17.5 15C17.5 15.1 17.4 15.2 17.3 15.4ZM14.8 17.9C14.7 18 14.5 18.1 14.4 18.1H5.6C5.4 18.1 5.3 18 5.2 17.9C5.1 17.8 5 17.6 5 17.5C5 17.4 5.1 17.2 5.2 17.1C5.3 17 5.5 16.9 5.6 16.9H14.3C14.5 16.9 14.6 17 14.7 17.1C14.8 17.2 14.9 17.4 14.9 17.5C14.9 17.6 14.9 17.7 14.8 17.9Z"/>
</svg>
