<svg width="20" height="17" viewBox="0 0 20 17" fill="currentColor" xmlns="http://www.w3.org/2000/svg">
<path d="M16.817 5.688C17.755 5.91 18.519 6.391 19.112 7.133C19.704 7.875 20.001 8.727 20.001 9.691C20.001 10.212 19.909 10.704 19.728 11.166C19.545 11.628 19.289 12.042 18.957 12.406C18.625 12.77 18.234 13.07 17.785 13.304C17.336 13.538 16.844 13.688 16.31 13.753H16.251H10.001C9.818 13.753 9.669 13.694 9.551 13.577C9.434 13.46 9.375 13.31 9.375 13.128C9.375 12.946 9.434 12.796 9.551 12.679C9.669 12.562 9.818 12.503 10.001 12.503H16.192C16.934 12.412 17.546 12.1 18.028 11.565C18.509 11.031 18.751 10.406 18.751 9.69C18.751 8.974 18.503 8.35 18.009 7.815C17.514 7.281 16.908 6.968 16.193 6.877C16.037 6.851 15.903 6.789 15.793 6.691C15.682 6.593 15.627 6.466 15.627 6.31C15.562 5.594 15.369 4.926 15.051 4.308C14.732 3.69 14.322 3.156 13.821 2.706C13.319 2.257 12.74 1.902 12.083 1.642C11.425 1.381 10.731 1.251 10.003 1.251C9.378 1.251 8.782 1.349 8.215 1.544C7.648 1.739 7.131 2.013 6.662 2.364C6.193 2.715 5.783 3.135 5.432 3.624C5.081 4.113 4.813 4.656 4.631 5.255C4.592 5.372 4.53 5.467 4.445 5.538C4.36 5.609 4.253 5.658 4.123 5.684C3.315 5.814 2.635 6.199 2.082 6.836C1.528 7.474 1.252 8.216 1.252 9.062C1.252 9.088 1.252 9.127 1.252 9.179C1.252 9.231 1.252 9.277 1.252 9.316C1.278 9.499 1.239 9.658 1.135 9.795C1.031 9.932 0.881 10 0.686 10C0.503 10.026 0.344 9.987 0.207 9.883C0.0699998 9.779 0.00199986 9.629 0.00199986 9.434C0.00199986 9.369 0.00199986 9.307 0.00199986 9.248C0.00199986 9.189 0.00199986 9.128 0.00199986 9.062C0.00199986 8.528 0.0899998 8.018 0.266 7.529C0.442 7.04 0.686 6.594 0.998 6.191C1.31 5.788 1.682 5.439 2.111 5.146C2.54 4.853 3.003 4.635 3.498 4.492C3.771 3.828 4.126 3.22 4.562 2.666C4.998 2.112 5.5 1.638 6.066 1.24C6.632 0.842 7.251 0.537 7.921 0.322C8.591 0.107 9.285 0 10.002 0C10.861 0 11.672 0.143999 12.434 0.429999C13.196 0.715999 13.879 1.114 14.485 1.621C15.091 2.128 15.594 2.731 15.999 3.428C16.4 4.129 16.674 4.88 16.817 5.688ZM0.176 12.68C0.293 12.563 0.443 12.504 0.625 12.504H6.875C7.057 12.504 7.207 12.563 7.324 12.68C7.441 12.797 7.5 12.947 7.5 13.129C7.5 13.311 7.441 13.461 7.324 13.578C7.207 13.695 7.057 13.754 6.875 13.754H0.625C0.442 13.754 0.293 13.695 0.176 13.578C0.0589996 13.461 0 13.311 0 13.129C0 12.947 0.0589996 12.797 0.176 12.68ZM3.75 11.254C3.567 11.254 3.418 11.195 3.301 11.078C3.184 10.961 3.125 10.811 3.125 10.629C3.125 10.447 3.184 10.297 3.301 10.18C3.418 10.063 3.568 10.004 3.75 10.004H10C10.182 10.004 10.332 10.063 10.449 10.18C10.566 10.297 10.625 10.447 10.625 10.629C10.625 10.811 10.566 10.961 10.449 11.078C10.332 11.195 10.181 11.254 10 11.254H3.75ZM3.301 15.18C3.418 15.063 3.568 15.004 3.75 15.004H10C10.182 15.004 10.332 15.063 10.449 15.18C10.566 15.297 10.625 15.447 10.625 15.629C10.625 15.811 10.566 15.961 10.449 16.078C10.332 16.195 10.181 16.254 10 16.254H3.75C3.567 16.254 3.418 16.195 3.301 16.078C3.184 15.961 3.125 15.811 3.125 15.629C3.125 15.447 3.184 15.297 3.301 15.18Z"/>
</svg>
