<svg width="21" height="14" viewBox="0 0 21 14" fill="currentColor" xmlns="http://www.w3.org/2000/svg">
<path d="M0.0649637 8.00952C-3.62918e-05 7.87952 -0.016037 7.72352 0.015963 7.54052C0.047963 7.35752 0.129963 7.22152 0.259963 7.13052L2.70096 5.68552C3.37796 5.32152 4.11696 5.14552 4.91796 5.15852C5.71896 5.17152 6.47696 5.41252 7.19296 5.88152L8.63796 6.81852C9.10696 7.13152 9.61496 7.28752 10.161 7.28752C10.708 7.28752 11.216 7.13152 11.685 6.81852L13.13 5.88152C13.78 5.43952 14.497 5.20452 15.278 5.17852C16.059 5.15252 16.782 5.34752 17.446 5.76452L19.887 7.18952C20.004 7.28052 20.085 7.41152 20.131 7.58052C20.177 7.74952 20.153 7.91252 20.063 8.06852C19.971 8.19852 19.841 8.28652 19.672 8.33252C19.502 8.37852 19.34 8.35452 19.184 8.26452L16.762 6.81952C16.293 6.53352 15.785 6.40252 15.239 6.42952C14.693 6.45652 14.197 6.60552 13.755 6.87852L12.31 7.81652C11.971 8.03852 11.613 8.20752 11.236 8.32452C10.858 8.44152 10.467 8.50052 10.064 8.50052C9.66096 8.50052 9.26996 8.44152 8.89196 8.32452C8.51396 8.20752 8.15596 8.03852 7.81796 7.81652L6.37296 6.87852C5.90396 6.60552 5.40596 6.45652 4.87896 6.42952C4.35196 6.40252 3.85396 6.53352 3.38496 6.81952L0.943963 8.18652C0.787963 8.29052 0.624963 8.32652 0.455963 8.29352C0.285963 8.26052 0.155964 8.16652 0.0649637 8.00952ZM0.0649637 2.87352C-3.62918e-05 2.71752 -0.0130368 2.55852 0.0259632 2.39452C0.0649632 2.23052 0.162963 2.10452 0.318963 2.01352L2.70196 0.568521C3.37896 0.165521 4.11096 -0.0244795 4.89896 0.00252055C5.68696 0.0285206 6.41296 0.256521 7.07696 0.686521L8.50296 1.62452C8.97196 1.93752 9.48196 2.09352 10.036 2.09352C10.589 2.09352 11.101 1.93752 11.57 1.62452L13.015 0.686521C13.665 0.256521 14.382 0.0295206 15.163 0.00252055C15.944 -0.0244795 16.66 0.165521 17.311 0.568521L19.889 2.01352C20.006 2.10452 20.087 2.23152 20.133 2.39452C20.179 2.55752 20.155 2.71652 20.065 2.87352C19.973 3.00352 19.843 3.09152 19.674 3.13752C19.504 3.18352 19.342 3.15952 19.186 3.06952L16.764 1.62452C16.295 1.35152 15.787 1.22452 15.241 1.24352C14.695 1.26252 14.199 1.41652 13.757 1.70252L12.312 2.64052C11.973 2.84852 11.615 3.01452 11.238 3.13852C10.86 3.26252 10.469 3.32452 10.066 3.32452C9.66296 3.32452 9.27196 3.26252 8.89396 3.13852C8.51596 3.01452 8.15796 2.84852 7.81996 2.64052L6.37496 1.70252C5.90596 1.41652 5.40796 1.26352 4.88096 1.24352C4.35396 1.22352 3.85596 1.35052 3.38696 1.62452L0.945963 3.06952C0.789963 3.16052 0.626963 3.18952 0.457963 3.15752C0.285963 3.12452 0.155964 3.02952 0.0649637 2.87352ZM0.0649637 13.1855C-3.62918e-05 13.0295 -0.00603675 12.8705 0.0449632 12.7065C0.0959632 12.5425 0.226963 12.4165 0.435963 12.3255L2.87696 10.8805C3.54096 10.5025 4.26396 10.3205 5.04496 10.3335C5.82596 10.3465 6.54196 10.5675 7.19296 10.9975L8.63796 11.9355C9.10696 12.2485 9.61496 12.4045 10.161 12.4045C10.708 12.4045 11.216 12.2485 11.685 11.9355L13.13 10.9975C13.78 10.5675 14.497 10.3405 15.278 10.3135C16.059 10.2865 16.782 10.4765 17.446 10.8795L19.887 12.3245C20.004 12.4155 20.085 12.5525 20.131 12.7345C20.177 12.9165 20.153 13.0665 20.063 13.1835C19.971 13.3135 19.841 13.4015 19.672 13.4475C19.502 13.4935 19.34 13.4695 19.184 13.3795L16.765 11.9355C16.296 11.6625 15.788 11.5285 15.242 11.5355C14.696 11.5425 14.2 11.7015 13.758 12.0145L12.313 12.9525C11.974 13.1605 11.616 13.3265 11.239 13.4505C10.861 13.5745 10.47 13.6365 10.067 13.6365C9.66396 13.6365 9.27296 13.5745 8.89496 13.4505C8.51696 13.3265 8.15896 13.1605 7.82096 12.9525L6.37596 12.0145C5.90696 11.7285 5.40896 11.5755 4.88196 11.5555C4.35496 11.5355 3.85696 11.6625 3.38796 11.9365L0.946964 13.3815C0.790964 13.4725 0.627964 13.5015 0.458964 13.4695C0.285964 13.4365 0.155964 13.3415 0.0649637 13.1855Z"/>
</svg>
