<svg width="26" height="18" viewBox="0 0 26 18" fill="currentColor" xmlns="http://www.w3.org/2000/svg">
<path d="M10.445 0H0.625C0.442 0 0.293 0.0590006 0.176 0.176001C0.0590001 0.293001 0 0.444 0 0.625C0 0.808 0.0590001 0.956999 0.176 1.074C0.293 1.191 0.443 1.25 0.625 1.25H10.445C10.966 1.25 11.418 1.439 11.802 1.816C12.186 2.194 12.378 2.65 12.378 3.183C12.378 3.717 12.186 4.173 11.802 4.55C11.418 4.929 10.966 5.117 10.445 5.117C10.028 5.117 9.65 5 9.312 4.765C8.973 4.531 8.746 4.212 8.628 3.808C8.563 3.652 8.448 3.535 8.286 3.456C8.123 3.378 7.964 3.372 7.807 3.436C7.651 3.501 7.534 3.616 7.455 3.778C7.377 3.941 7.37 4.1 7.435 4.257C7.656 4.882 8.04 5.39 8.587 5.78C9.134 6.17 9.752 6.366 10.442 6.366C11.314 6.366 12.063 6.053 12.688 5.428C13.313 4.803 13.626 4.055 13.626 3.182C13.626 2.31 13.313 1.561 12.688 0.935999C12.063 0.310999 11.317 0 10.445 0Z" transform="translate(0 11.368)"/>
<path d="M0.625 6.368H8.563C9.435 6.368 10.184 6.055 10.809 5.43C11.434 4.805 11.747 4.057 11.747 3.184C11.747 2.312 11.434 1.563 10.809 0.938C10.184 0.313 9.435 0 8.563 0C7.873 0 7.254 0.194999 6.708 0.585999C6.162 0.976999 5.776 1.484 5.556 2.109C5.503 2.265 5.517 2.425 5.595 2.588C5.673 2.751 5.79 2.865 5.947 2.93C6.103 2.995 6.26 2.989 6.416 2.91C6.572 2.831 6.683 2.715 6.748 2.558C6.878 2.181 7.112 1.869 7.451 1.62C7.789 1.373 8.16 1.249 8.564 1.249C9.097 1.249 9.553 1.438 9.931 1.815C10.308 2.193 10.497 2.649 10.497 3.182C10.497 3.716 10.308 4.172 9.931 4.549C9.553 4.927 9.097 5.115 8.564 5.115H0.625C0.442 5.115 0.293 5.174 0.176 5.291C0.0590001 5.408 0 5.559 0 5.74C0 5.923 0.0590001 6.072 0.176 6.189C0.293 6.306 0.442 6.368 0.625 6.368Z"/>
<path d="M21.816 0H0.625C0.442 0 0.293 0.0590006 0.176 0.176001C0.0590001 0.293001 0 0.444 0 0.625C0 0.808 0.0590001 0.956999 0.176 1.074C0.293 1.191 0.443 1.25 0.625 1.25H21.816C22.349 1.25 22.805 1.439 23.183 1.816C23.56 2.194 23.749 2.65 23.749 3.183C23.749 3.717 23.56 4.173 23.183 4.55C22.805 4.928 22.349 5.116 21.816 5.116C21.412 5.116 21.041 4.999 20.703 4.764C20.364 4.53 20.13 4.211 20 3.807C19.935 3.651 19.82 3.534 19.658 3.455C19.495 3.377 19.336 3.371 19.179 3.435C19.023 3.5 18.906 3.615 18.827 3.777C18.749 3.94 18.742 4.099 18.807 4.256C19.028 4.881 19.412 5.389 19.959 5.779C20.506 6.169 21.124 6.365 21.814 6.365C22.686 6.365 23.435 6.052 24.06 5.427C24.685 4.802 24.998 4.054 24.998 3.181C24.998 2.309 24.685 1.56 24.06 0.934999C23.435 0.309999 22.688 0 21.816 0Z" transform="translate(0 8.243)"/>
<path d="M11.808 0.938C11.183 0.313 10.434 0 9.562 0C8.872 0 8.253 0.194999 7.707 0.585999C7.161 0.976999 6.775 1.484 6.555 2.109C6.502 2.265 6.516 2.425 6.594 2.588C6.672 2.751 6.789 2.865 6.946 2.93C7.102 2.995 7.259 2.989 7.415 2.91C7.571 2.831 7.682 2.715 7.747 2.558C7.877 2.181 8.111 1.869 8.45 1.62C8.788 1.373 9.159 1.249 9.563 1.249C10.096 1.249 10.552 1.438 10.93 1.815C11.307 2.193 11.496 2.649 11.496 3.182C11.496 3.716 11.307 4.172 10.93 4.549C10.552 4.927 10.096 5.115 9.563 5.115H0.625C0.442 5.115 0.293001 5.174 0.176001 5.291C0.0590006 5.408 0 5.559 0 5.74C0 5.923 0.0590006 6.072 0.176001 6.189C0.293001 6.306 0.443 6.365 0.625 6.365H9.563C10.435 6.365 11.184 6.052 11.809 5.427C12.434 4.802 12.747 4.054 12.747 3.181C12.745 2.312 12.433 1.563 11.808 0.938Z" transform="translate(13.001)"/>
</svg>
