<svg width="20" height="18" viewBox="0 0 20 18" fill="currentColor" xmlns="http://www.w3.org/2000/svg">
<path d="M0.2 5.4C0.3 5.3 0.499999 5.2 0.599999 5.2H11.5C12 5.2 12.5 5 12.9 4.6C13.3 4.2 13.5 3.8 13.5 3.2C13.5 2.6 13.3 2.2 12.9 1.8C12.5 1.4 12.1 1.2 11.5 1.2C11.1 1.2 10.7 1.3 10.4 1.6C10.1 1.8 9.8 2.2 9.7 2.5C9.6 2.7 9.5 2.8 9.4 2.9C9.3 3 9.1 3 8.9 2.9C8.7 2.8 8.6 2.7 8.5 2.6C8.4 2.5 8.4 2.3 8.5 2.1C8.7 1.5 9.1 0.999999 9.7 0.599999C10.3 0.199999 10.9 0 11.6 0C12.5 0 13.2 0.3 13.8 0.9C14.4 1.5 14.7 2.3 14.7 3.1C14.7 3.9 14.4 4.7 13.8 5.3C13.2 5.9 12.4 6.2 11.6 6.2H0.7C0.5 6.2 0.399999 6.1 0.299999 6C0.199999 5.9 0.0999994 6 0.0999994 5.9C0.0999994 5.8 0.0999998 5.5 0.2 5.4ZM16.9 8.4C17.8 8.4 18.5 8.7 19.1 9.3C19.7 9.9 20 10.7 20 11.5C20 12.3 19.7 13.1 19.1 13.7C18.5 14.3 17.7 14.6 16.9 14.6C16.2 14.6 15.6 14.4 15 14C14.4 13.6 14.1 13.1 13.8 12.5C13.7 12.3 13.7 12.2 13.8 12C13.9 11.8 14 11.7 14.2 11.7C14.4 11.7 14.5 11.6 14.7 11.7C14.9 11.8 15 11.9 15 12.1C15.1 12.5 15.4 12.8 15.7 13.1C16 13.3 16.4 13.5 16.8 13.5C17.3 13.5 17.8 13.3 18.2 12.9C18.6 12.5 18.8 12.1 18.8 11.5C18.8 10.9 18.6 10.5 18.2 10.1C17.8 9.7 17.4 9.5 16.8 9.5H0.7C0.5 9.5 0.399999 9.4 0.299999 9.3C0.199999 9.2 0.0999994 9 0.0999994 8.9C0.0999994 8.8 0.199999 8.6 0.299999 8.5C0.399999 8.4 0.6 8.3 0.7 8.3H16.9V8.4ZM8.8 12.4C9.4 13 9.7 13.8 9.7 14.6C9.7 15.4 9.4 16.3 8.8 16.9C8.2 17.5 7.4 17.9 6.5 17.9C5.8 17.9 5.2 17.7 4.6 17.3C4 16.9 3.7 16.4 3.4 15.8C3.3 15.6 3.3 15.5 3.4 15.3C3.5 15.1 3.6 15 3.8 15C4 15 4.1 14.9 4.3 15C4.5 15.1 4.6 15.2 4.6 15.4C4.7 15.8 4.9 16.1 5.3 16.4C5.6 16.6 6 16.8 6.4 16.8C6.9 16.8 7.4 16.6 7.8 16.2C8.2 15.8 8.4 15.4 8.4 14.8C8.4 14.2 8.2 13.8 7.8 13.4C7.4 13 7 12.8 6.4 12.8H0.599999C0.399999 12.8 0.3 12.7 0.2 12.6C0.0999998 12.5 0 12.3 0 12.2C0 12.1 0.0999998 11.9 0.2 11.8C0.3 11.7 0.499999 11.6 0.599999 11.6H6.4C7.4 11.5 8.1 11.8 8.8 12.4Z"/>
</svg>
