<svg width="24" height="21" viewBox="0 0 24 21" fill="currentColor" xmlns="http://www.w3.org/2000/svg">
<path d="M0.732 0.731999C1.22 0.243999 1.809 0 2.5 0C3.189 0 3.779 0.243999 4.268 0.731999C4.757 1.22 5 1.809 5 2.5C5 3.191 4.756 3.779 4.268 4.268C3.78 4.757 3.19 5 2.5 5C1.81 5 1.221 4.756 0.732 4.268C0.243 3.78 0 3.191 0 2.5C0 1.809 0.244 1.221 0.732 0.731999ZM1.621 1.621C1.373 1.868 1.25 2.161 1.25 2.5C1.25 2.839 1.373 3.132 1.621 3.379C1.868 3.626 2.161 3.75 2.5 3.75C2.838 3.75 3.131 3.626 3.379 3.379C3.626 3.132 3.75 2.839 3.75 2.5C3.75 2.161 3.626 1.868 3.379 1.621C3.131 1.374 2.838 1.25 2.5 1.25C2.161 1.25 1.868 1.374 1.621 1.621ZM9.189 4.912C8.349 5.27 7.62 5.762 7.001 6.387C6.382 7.012 5.894 7.741 5.536 8.575C5.178 9.408 4.999 10.301 4.999 11.251C4.999 12.201 5.178 13.097 5.536 13.937C5.893 14.777 6.386 15.506 7.011 16.125C7.636 16.744 8.365 17.231 9.199 17.59C10.032 17.948 10.924 18.127 11.875 18.127C12.474 18.127 13.05 18.052 13.604 17.902C14.157 17.753 14.688 17.534 15.196 17.248C15.352 17.157 15.511 17.138 15.675 17.189C15.837 17.241 15.964 17.345 16.056 17.502C16.16 17.658 16.186 17.821 16.134 17.99C16.081 18.159 15.978 18.289 15.821 18.381C15.221 18.694 14.587 18.938 13.917 19.113C13.246 19.289 12.565 19.377 11.876 19.377C10.756 19.377 9.701 19.165 8.712 18.742C7.722 18.318 6.859 17.739 6.124 17.004C5.388 16.269 4.809 15.405 4.386 14.416C3.962 13.427 3.751 12.372 3.751 11.252C3.751 10.132 3.962 9.077 4.386 8.088C4.809 7.099 5.388 6.235 6.124 5.5C6.859 4.765 7.722 4.185 8.712 3.762C9.701 3.339 10.756 3.127 11.876 3.127C12.592 3.127 13.292 3.218 13.976 3.4C14.66 3.582 15.314 3.842 15.939 4.181C16.095 4.285 16.193 4.418 16.232 4.581C16.271 4.744 16.257 4.903 16.193 5.06C16.101 5.216 15.971 5.321 15.802 5.373C15.632 5.425 15.47 5.405 15.314 5.314C14.78 5.001 14.223 4.767 13.644 4.611C13.064 4.455 12.475 4.377 11.876 4.377C10.924 4.375 10.029 4.554 9.189 4.912Z" transform="translate(0 1.058)"/>
<path d="M5.34147 3.75L4.15047 3.125L5.40047 2.441C5.52947 2.35 5.61747 2.22 5.66447 2.05C5.70947 1.881 5.68547 1.718 5.59647 1.562C5.49147 1.406 5.35847 1.308 5.19647 1.269C5.03247 1.23 4.87446 1.243 4.71746 1.308L3.46747 1.992V0.625C3.46747 0.443 3.40847 0.293001 3.29147 0.176001C3.17447 0.0590006 3.02347 0 2.84147 0C2.64647 0 2.49147 0.0590006 2.38247 0.176001C2.27147 0.293001 2.21647 0.443 2.21647 0.625V2.07L0.966466 1.367C0.810466 1.276 0.646467 1.257 0.478467 1.308C0.308467 1.36 0.177466 1.464 0.0874659 1.621C-0.00453407 1.777 -0.0235341 1.94 0.0284659 2.109C0.0794659 2.278 0.184466 2.409 0.341466 2.5L1.59147 3.184L0.341466 3.868C0.185466 3.972 0.0874664 4.106 0.0484664 4.268C0.00946637 4.431 0.0214659 4.59 0.0874659 4.747C0.151466 4.838 0.230467 4.913 0.321467 4.972C0.411467 5.031 0.522466 5.06 0.653466 5.06C0.717466 5.06 0.770466 5.057 0.809466 5.05C0.848466 5.044 0.899466 5.028 0.965466 5.001L2.21547 4.317V5.626C2.21547 5.808 2.27047 5.958 2.38147 6.075C2.49047 6.192 2.64547 6.251 2.84047 6.251C3.02247 6.251 3.17247 6.192 3.28947 6.075C3.40647 5.958 3.46547 5.808 3.46547 5.626V4.181L4.71547 4.884C4.77947 4.91 4.83247 4.926 4.87147 4.933C4.91047 4.94 4.96147 4.943 5.02747 4.943C5.11747 4.943 5.21847 4.914 5.33047 4.855C5.43947 4.796 5.52747 4.722 5.59447 4.63C5.68447 4.474 5.70347 4.311 5.65347 4.142C5.60147 3.971 5.49847 3.841 5.34147 3.75Z" transform="translate(18.1245)"/>
</svg>
