<svg width="20" height="14" viewBox="0 0 20 14" fill="currentColor" xmlns="http://www.w3.org/2000/svg">
<path d="M19.111 7.129C19.703 7.871 20 8.724 20 9.688C20 10.209 19.908 10.701 19.727 11.163C19.544 11.625 19.288 12.039 18.956 12.403C18.624 12.767 18.233 13.067 17.784 13.301C17.335 13.535 16.843 13.685 16.309 13.75H16.25H4.375C3.75 13.685 3.17 13.519 2.637 13.252C2.103 12.985 1.641 12.644 1.25 12.227C0.859 11.81 0.553 11.331 0.332 10.791C0.11 10.251 0 9.675 0 9.062C0 8.528 0.0879999 8.017 0.264 7.529C0.44 7.041 0.684 6.594 0.996 6.191C1.308 5.788 1.68 5.439 2.109 5.146C2.538 4.853 3.001 4.635 3.496 4.492C3.769 3.828 4.124 3.22 4.56 2.666C4.996 2.112 5.498 1.638 6.064 1.24C6.63 0.842 7.249 0.537 7.919 0.322C8.589 0.107 9.283 0 9.999 0C10.859 0 11.669 0.143999 12.431 0.429999C13.193 0.715999 13.876 1.114 14.482 1.621C15.088 2.128 15.591 2.731 15.996 3.428C16.399 4.124 16.673 4.876 16.816 5.684C17.754 5.905 18.519 6.386 19.111 7.129ZM16.191 12.5C16.933 12.409 17.545 12.097 18.027 11.562C18.508 11.028 18.75 10.403 18.75 9.687C18.75 8.971 18.502 8.346 18.008 7.812C17.513 7.278 16.907 6.965 16.192 6.874C16.036 6.848 15.902 6.786 15.792 6.688C15.681 6.59 15.626 6.463 15.626 6.307C15.561 5.591 15.368 4.923 15.05 4.305C14.731 3.687 14.321 3.153 13.82 2.703C13.318 2.254 12.739 1.899 12.082 1.639C11.424 1.378 10.73 1.248 10.001 1.248C9.376 1.248 8.78 1.346 8.214 1.541C7.648 1.736 7.13 2.01 6.661 2.361C6.192 2.712 5.782 3.132 5.431 3.621C5.08 4.11 4.812 4.653 4.63 5.252C4.591 5.369 4.529 5.464 4.444 5.535C4.359 5.606 4.252 5.655 4.122 5.681C3.314 5.811 2.634 6.196 2.081 6.834C1.527 7.472 1.251 8.214 1.251 9.061C1.251 9.972 1.557 10.75 2.169 11.395C2.781 12.04 3.536 12.408 4.435 12.499H16.191V12.5Z"/>
</svg>
