<svg width="20" height="15" viewBox="0 0 20 15" fill="currentColor" xmlns="http://www.w3.org/2000/svg">
<path d="M19.687 9.2665C19.478 8.7785 19.185 8.3455 18.808 7.9675C19.003 7.5895 19.146 7.1895 19.238 6.7665C19.329 6.3435 19.375 5.9295 19.375 5.5265C19.375 5.3965 19.371 5.2555 19.365 5.1065C19.358 4.9575 19.342 4.8035 19.316 4.6475C19.316 4.5565 19.29 4.4785 19.238 4.4135C19.185 4.3485 19.127 4.2835 19.062 4.2185C18.997 4.1535 18.921 4.1175 18.837 4.1115C18.752 4.1045 18.657 4.1215 18.554 4.1605C17.929 4.3295 17.326 4.3485 16.747 4.2195C16.167 4.0895 15.656 3.8555 15.214 3.5165C14.771 3.1775 14.416 2.7545 14.15 2.2465C13.882 1.7385 13.75 1.1845 13.75 0.586499C13.75 0.495499 13.733 0.407499 13.701 0.322499C13.668 0.237499 13.619 0.1825 13.555 0.1565C13.502 0.0915001 13.431 0.0465 13.34 0.0195C13.248 -0.0065 13.157 -0.0065 13.067 0.0195C12.455 0.0975 11.881 0.266499 11.348 0.527499C10.814 0.788499 10.335 1.1135 9.912 1.5045C9.488 1.8955 9.134 2.3475 8.848 2.8615C8.561 3.3765 8.36 3.9325 8.243 4.5315C7.565 4.7145 6.94 5.0195 6.368 5.4495C5.795 5.8795 5.339 6.4065 5.001 7.0315C4.845 6.9925 4.688 6.9605 4.532 6.9335C4.376 6.9065 4.219 6.8935 4.062 6.8935C3.501 6.8805 2.974 6.9745 2.48 7.1765C1.985 7.3785 1.555 7.6615 1.191 8.0265C0.826 8.3905 0.537001 8.8145 0.322001 9.2965C0.107 9.7785 0 10.2925 0 10.8395C0 11.3995 0.107 11.9265 0.322001 12.4215C0.537001 12.9165 0.826 13.3465 1.191 13.7105C1.555 14.0745 1.985 14.3645 2.48 14.5795C2.974 14.7945 3.501 14.9015 4.062 14.9015H4.416H5H15H15.938C16.498 14.9015 17.025 14.7945 17.52 14.5795C18.014 14.3645 18.444 14.0745 18.809 13.7105C19.173 13.3465 19.463 12.9165 19.678 12.4215C19.893 11.9265 20 11.3995 20 10.8395C20 10.2795 19.895 9.7555 19.687 9.2665ZM10.684 2.4115C11.217 1.8845 11.842 1.5295 12.559 1.3475C12.676 1.9855 12.904 2.5775 13.243 3.1245C13.581 3.6715 14.001 4.1335 14.503 4.5115C15.004 4.8895 15.564 5.1725 16.183 5.3615C16.801 5.5495 17.449 5.6055 18.126 5.5275C18.126 5.5405 18.126 5.5595 18.126 5.5865C18.126 5.8995 18.093 6.1985 18.028 6.4845C17.963 6.7705 17.872 7.0575 17.755 7.3435C17.468 7.2135 17.179 7.1065 16.886 7.0215C16.593 6.9365 16.275 6.8935 15.937 6.8935C15.65 6.8675 15.371 6.8835 15.097 6.9425C14.823 7.0015 14.563 7.0885 14.316 7.2065C13.873 6.3085 13.228 5.5955 12.382 5.0675C11.535 4.5405 10.598 4.2765 9.569 4.2765C9.778 3.5605 10.149 2.9385 10.684 2.4115ZM17.93 12.8315C17.383 13.3785 16.719 13.6515 15.938 13.6515H15H5H4.416H4.062C3.281 13.6515 2.617 13.3785 2.07 12.8315C1.523 12.2845 1.25 11.6205 1.25 10.8395C1.25 10.0585 1.523 9.3945 2.07 8.8475C2.617 8.3005 3.281 8.0275 4.062 8.0275C4.218 8.0275 4.384 8.0445 4.56 8.0765C4.736 8.1085 4.902 8.1575 5.058 8.2225C5.214 8.2745 5.373 8.2745 5.537 8.2225C5.699 8.1705 5.813 8.0665 5.879 7.9095C6.192 7.1545 6.69 6.5585 7.373 6.1225C8.056 5.6865 8.789 5.4685 9.57 5.4685C10.442 5.4685 11.233 5.7225 11.943 6.2305C12.652 6.7385 13.131 7.4025 13.379 8.2225C13.404 8.3135 13.45 8.3885 13.516 8.4475C13.58 8.5065 13.659 8.5545 13.75 8.5935C13.841 8.6195 13.936 8.6225 14.033 8.6035C14.13 8.5845 14.224 8.5615 14.316 8.5355C14.563 8.3795 14.817 8.2555 15.078 8.1645C15.338 8.0735 15.625 8.0275 15.937 8.0275C16.718 8.0275 17.382 8.3005 17.929 8.8475C18.476 9.3945 18.749 10.0585 18.749 10.8395C18.749 11.6205 18.477 12.2845 17.93 12.8315Z"/>
</svg>
