<svg width="21" height="20" viewBox="0 0 21 20" fill="currentColor" xmlns="http://www.w3.org/2000/svg">
<path d="M17.52 12.257C18.014 12.472 18.448 12.762 18.819 13.126C19.19 13.49 19.486 13.914 19.708 14.396C19.929 14.877 20.047 15.392 20.06 15.939C20.06 16.499 19.956 17.026 19.747 17.521C19.538 18.016 19.249 18.446 18.878 18.81C18.507 19.174 18.073 19.464 17.579 19.679C17.084 19.894 16.557 20.001 15.997 20.001H4.062C3.502 20.001 2.975 19.894 2.48 19.679C1.985 19.464 1.555 19.174 1.191 18.81C0.826 18.446 0.537001 18.016 0.322001 17.521C0.107 17.026 0 16.499 0 15.939C0 15.392 0.107 14.877 0.322001 14.396C0.537001 13.915 0.823 13.491 1.181 13.126C1.539 12.762 1.962 12.472 2.451 12.257C2.94 12.042 3.457 11.935 4.004 11.935C4.03 11.935 4.049 11.935 4.063 11.935C3.972 11.622 3.897 11.307 3.838 10.988C3.779 10.669 3.75 10.341 3.75 10.002C3.75 9.142 3.916 8.332 4.248 7.57C4.58 6.808 5.029 6.144 5.596 5.578C6.163 5.012 6.823 4.565 7.578 4.24C8.333 3.915 9.141 3.752 10 3.752C10.86 3.752 11.67 3.918 12.432 4.25C13.194 4.582 13.858 5.031 14.424 5.598C14.99 6.165 15.436 6.826 15.762 7.58C16.087 8.335 16.25 9.143 16.25 10.002C16.25 10.341 16.221 10.669 16.162 10.988C16.103 11.307 16.028 11.623 15.937 11.935C16.497 11.935 17.024 12.042 17.52 12.257ZM0.625 10.626C0.442 10.626 0.293001 10.567 0.176001 10.45C0.0590006 10.333 0 10.183 0 10.001C0 9.818 0.0590006 9.668 0.176001 9.551C0.293001 9.434 0.443 9.375 0.625 9.375H1.875C2.057 9.375 2.207 9.434 2.324 9.551C2.441 9.668 2.5 9.818 2.5 10.001C2.5 10.184 2.441 10.333 2.324 10.45C2.207 10.567 2.057 10.626 1.875 10.626H0.625ZM15.937 18.751C16.718 18.751 17.382 18.478 17.929 17.931C18.476 17.384 18.749 16.72 18.749 15.939C18.749 15.158 18.476 14.494 17.929 13.947C17.382 13.4 16.718 13.127 15.937 13.127C15.624 13.127 15.337 13.173 15.078 13.264C14.817 13.355 14.563 13.479 14.316 13.635C14.224 13.661 14.13 13.684 14.033 13.703C13.936 13.722 13.841 13.72 13.75 13.693C13.658 13.654 13.58 13.605 13.516 13.547C13.451 13.488 13.405 13.413 13.379 13.322C13.131 12.502 12.652 11.838 11.943 11.33C11.233 10.822 10.442 10.568 9.569 10.568C8.788 10.568 8.055 10.786 7.372 11.222C6.689 11.658 6.19 12.254 5.878 13.009C5.813 13.165 5.699 13.27 5.536 13.322C5.373 13.374 5.214 13.374 5.057 13.322C4.901 13.257 4.735 13.208 4.559 13.176C4.383 13.144 4.217 13.127 4.061 13.127C3.28 13.127 2.616 13.4 2.069 13.947C1.522 14.494 1.249 15.158 1.249 15.939C1.249 16.72 1.522 17.384 2.069 17.931C2.616 18.478 3.28 18.751 4.061 18.751H15.937V18.751ZM2.929 2.93C3.059 2.813 3.209 2.754 3.378 2.754C3.547 2.754 3.691 2.813 3.808 2.93L4.687 3.809C4.817 3.939 4.882 4.085 4.882 4.248C4.882 4.411 4.817 4.558 4.687 4.687C4.622 4.752 4.547 4.801 4.462 4.833C4.377 4.865 4.309 4.882 4.257 4.882C4.192 4.882 4.117 4.865 4.032 4.833C3.947 4.801 3.872 4.752 3.807 4.687L2.928 3.808C2.811 3.691 2.752 3.547 2.752 3.378C2.752 3.209 2.812 3.06 2.929 2.93ZM10 5.001C9.31 5.001 8.662 5.131 8.057 5.392C7.452 5.653 6.921 6.01 6.465 6.466C6.009 6.922 5.651 7.452 5.391 8.058C5.13 8.663 5 9.311 5 10.002C5 10.288 5.026 10.559 5.078 10.813C5.13 11.067 5.188 11.318 5.254 11.565C5.749 10.914 6.37 10.386 7.119 9.983C7.868 9.579 8.684 9.377 9.57 9.377C10.599 9.377 11.536 9.648 12.383 10.188C13.229 10.728 13.873 11.435 14.317 12.307C14.369 12.268 14.408 12.248 14.434 12.248C14.629 11.909 14.772 11.545 14.864 11.154C14.955 10.763 15.001 10.38 15.001 10.002C15.001 9.311 14.87 8.664 14.61 8.058C14.349 7.453 13.991 6.922 13.536 6.466C13.08 6.01 12.55 5.653 11.944 5.392C11.338 5.131 10.689 5.001 10 5.001ZM9.55 0.176001C9.667 0.0590006 9.817 0 9.999 0C10.181 0 10.331 0.0590006 10.449 0.176001C10.566 0.293001 10.625 0.443 10.625 0.625V1.875C10.625 2.058 10.566 2.207 10.449 2.324C10.331 2.441 10.181 2.5 9.999 2.5C9.816 2.5 9.667 2.441 9.55 2.324C9.433 2.207 9.374 2.057 9.374 1.875V0.625C9.375 0.443 9.433 0.293001 9.55 0.176001ZM16.621 2.754C16.79 2.754 16.939 2.813 17.07 2.93C17.187 3.06 17.246 3.21 17.246 3.379C17.246 3.548 17.187 3.692 17.07 3.809L16.191 4.688C16.126 4.753 16.05 4.802 15.966 4.834C15.881 4.866 15.806 4.883 15.741 4.883C15.688 4.883 15.62 4.866 15.536 4.834C15.451 4.802 15.376 4.753 15.311 4.688C15.18 4.558 15.116 4.412 15.116 4.249C15.116 4.086 15.18 3.939 15.311 3.81L16.19 2.931C16.309 2.813 16.451 2.754 16.621 2.754ZM19.824 9.551C19.941 9.668 20 9.818 20 10.001C20 10.184 19.941 10.333 19.824 10.45C19.707 10.567 19.556 10.626 19.375 10.626H18.125C17.942 10.626 17.793 10.567 17.676 10.45C17.559 10.333 17.5 10.183 17.5 10.001C17.5 9.818 17.559 9.668 17.676 9.551C17.793 9.434 17.943 9.375 18.125 9.375H19.375C19.557 9.376 19.707 9.434 19.824 9.551Z"/>
</svg>
