<svg width="20" height="26" viewBox="0 0 20 26" fill="currentColor" xmlns="http://www.w3.org/2000/svg">
<path d="M5 4.35957C5 4.24257 4.967 4.13857 4.902 4.04657C4.837 3.95557 4.758 3.88057 4.668 3.82157C4.576 3.76257 4.466 3.73357 4.336 3.73357H1.777L3.652 0.979571C3.716 0.823571 3.733 0.664573 3.701 0.500573C3.668 0.337573 3.587 0.204572 3.457 0.100572C3.301 0.00957163 3.141 -0.0194277 2.978 0.0125723C2.815 0.0455723 2.681 0.139571 2.578 0.295571L0.0780001 4.04557C0.0250001 4.13657 0 4.24057 0 4.35857C0 4.47657 0.0250001 4.58057 0.0780001 4.67157C0.142 4.76257 0.224 4.83757 0.322 4.89657C0.42 4.95557 0.527 4.98457 0.644 4.98457H3.339L1.405 8.42257C1.301 8.57857 1.274 8.74157 1.327 8.91057C1.379 9.07957 1.483 9.21057 1.64 9.30157C1.64 9.32757 1.656 9.34357 1.689 9.35057C1.721 9.35757 1.77 9.36057 1.835 9.36057C1.926 9.36057 2.026 9.33157 2.138 9.27257C2.248 9.21357 2.336 9.13957 2.402 9.04757L4.902 4.67257C4.967 4.58157 5 4.47757 5 4.35957Z" transform="translate(5.539 14.042)"/>
<path d="M19.111 12.4056C18.518 11.6636 17.754 11.1816 16.816 10.9606C16.672 10.1536 16.399 9.40157 15.996 8.70457C15.759 8.29657 15.477 7.93057 15.171 7.58657L16.836 4.67257C16.9 4.58157 16.934 4.47757 16.934 4.35957C16.934 4.24157 16.901 4.13857 16.836 4.04657C16.771 3.95557 16.692 3.88057 16.602 3.82157C16.51 3.76257 16.4 3.73357 16.27 3.73357H13.711L15.586 0.979572C15.65 0.823572 15.667 0.664573 15.635 0.500573C15.602 0.337573 15.521 0.204572 15.391 0.100572C15.235 0.00957242 15.075 -0.0194279 14.912 0.0125721C14.749 0.0455721 14.615 0.139573 14.512 0.295573L12.012 4.04557C11.959 4.13657 11.934 4.24057 11.934 4.35857C11.934 4.47657 11.959 4.58057 12.012 4.67157C12.076 4.76257 12.158 4.83757 12.256 4.89657C12.354 4.95557 12.461 4.98457 12.578 4.98457H15.273L14.278 6.75457C13.722 6.32157 13.113 5.96257 12.431 5.70657C11.669 5.42057 10.859 5.27657 9.999 5.27657C9.282 5.27657 8.589 5.38357 7.919 5.59857C7.248 5.81357 6.63 6.11957 6.064 6.51657C5.498 6.91357 4.996 7.38957 4.56 7.94257C4.123 8.49657 3.769 9.10457 3.496 9.76857C3.001 9.91257 2.539 10.1296 2.109 10.4226C1.679 10.7156 1.308 11.0646 0.996 11.4676C0.683 11.8716 0.439 12.3176 0.264 12.8056C0.0889999 13.2936 0 13.8056 0 14.3386C0 14.9506 0.110001 15.5266 0.332001 16.0676C0.553001 16.6086 0.855001 17.0866 1.24 17.5036C1.624 17.9206 2.08 18.2626 2.607 18.5286C3.134 18.7956 3.704 18.9616 4.316 19.0266C4.498 19.0266 4.651 18.9716 4.775 18.8606C4.898 18.7506 4.973 18.6166 5 18.4606C5.025 18.3046 4.977 18.1576 4.854 18.0216C4.73 17.8846 4.59 17.8036 4.434 17.7776C3.536 17.6866 2.78 17.3186 2.168 16.6736C1.556 16.0286 1.25 15.2516 1.25 14.3396C1.25 13.4936 1.526 12.7516 2.08 12.1126C2.633 11.4746 3.313 11.0906 4.121 10.9606C4.212 10.9346 4.303 10.8856 4.394 10.8146C4.485 10.7436 4.563 10.6486 4.628 10.5316C4.81 9.93257 5.077 9.38857 5.429 8.90057C5.781 8.41257 6.191 7.99257 6.659 7.64057C7.127 7.28857 7.645 7.01557 8.212 6.82057C8.779 6.62557 9.374 6.52757 9.999 6.52757C10.728 6.52757 11.421 6.65757 12.079 6.91857C12.67 7.15357 13.189 7.47457 13.655 7.86257L13.339 8.42357C13.235 8.57957 13.208 8.74257 13.261 8.91157C13.313 9.08057 13.417 9.21157 13.574 9.30257C13.574 9.32857 13.59 9.34457 13.623 9.35157C13.655 9.35857 13.704 9.36157 13.769 9.36157C13.86 9.36157 13.96 9.33257 14.072 9.27357C14.182 9.21457 14.27 9.14057 14.336 9.04857L14.513 8.73857C14.713 9.00057 14.892 9.28157 15.049 9.58457C15.367 10.2036 15.56 10.8706 15.625 11.5866C15.625 11.7426 15.68 11.8696 15.791 11.9676C15.901 12.0656 16.035 12.1276 16.191 12.1536C16.907 12.2446 17.512 12.5576 18.007 13.0916C18.501 13.6256 18.749 14.2506 18.749 14.9666C18.749 15.6826 18.501 16.3146 18.007 16.8616C17.512 17.4086 16.906 17.7146 16.191 17.7796C16.035 17.8056 15.901 17.8866 15.791 18.0236C15.68 18.1606 15.625 18.3066 15.625 18.4626C15.65 18.6186 15.723 18.7526 15.84 18.8626C15.957 18.9736 16.094 19.0286 16.25 19.0286H16.309C16.842 18.9636 17.334 18.8136 17.784 18.5796C18.234 18.3456 18.624 18.0456 18.956 17.6816C19.288 17.3176 19.545 16.9036 19.727 16.4416C19.909 15.9796 20 15.4876 20 14.9666C20 14.0016 19.703 13.1486 19.111 12.4056Z"/>
<path d="M5.00186 0.0838582C4.73886 -0.0791418 4.38986 0.00285739 4.22786 0.265857L0.0838577 7.96286C-0.0791423 8.22586 0.00285876 8.57486 0.265859 8.73686C0.528859 8.89986 0.877859 8.81786 1.03986 8.55486L5.18386 0.857858C5.34686 0.595858 5.26486 0.246858 5.00186 0.0838582Z" transform="translate(9.16614 15.4327)"/>
<path d="M3.00186 0.0838582C2.73886 -0.0791418 2.38986 0.00285739 2.22786 0.265857L0.0838577 3.96286C-0.0791423 4.22586 0.00285876 4.57486 0.265859 4.73686C0.528859 4.89986 0.877859 4.81786 1.03986 4.55486L3.18386 0.857856C3.34686 0.594856 3.26486 0.246858 3.00186 0.0838582Z" transform="translate(12.0001 18.7227)"/>
<path d="M3.00186 0.0838582C2.73886 -0.0791418 2.38986 0.00285739 2.22786 0.265857L0.0838579 3.96286C-0.0791421 4.22586 0.00285807 4.57486 0.265858 4.73686C0.528858 4.89986 0.877858 4.81786 1.03986 4.55486L3.18386 0.857856C3.34686 0.594856 3.26486 0.246858 3.00186 0.0838582Z" transform="translate(2.27115 20.4727)"/>
</svg>
