<svg width="20" height="20" viewBox="0 0 20 20" fill="currentColor" xmlns="http://www.w3.org/2000/svg">
<path d="M0.176 10.449C0.0589996 10.332 0 10.182 0 10C0 9.818 0.0589996 9.668 0.176 9.551C0.293 9.434 0.443 9.375 0.625 9.375H1.875C2.057 9.375 2.207 9.434 2.324 9.551C2.441 9.668 2.5 9.818 2.5 10C2.5 10.182 2.441 10.332 2.324 10.449C2.207 10.566 2.057 10.625 1.875 10.625H0.625C0.443 10.625 0.293 10.566 0.176 10.449ZM2.93 3.809C2.813 3.692 2.754 3.548 2.754 3.379C2.754 3.21 2.813 3.06 2.93 2.93C3.06 2.813 3.21 2.754 3.379 2.754C3.548 2.754 3.692 2.813 3.809 2.93L4.688 3.809C4.818 3.939 4.883 4.085 4.883 4.248C4.883 4.411 4.818 4.558 4.688 4.687C4.623 4.752 4.548 4.801 4.463 4.833C4.378 4.865 4.31 4.882 4.258 4.882C4.193 4.882 4.118 4.865 4.033 4.833C3.948 4.801 3.873 4.752 3.808 4.687L2.93 3.809ZM3.379 17.246C3.288 17.246 3.206 17.229 3.135 17.197C3.063 17.165 2.995 17.122 2.93 17.07C2.813 16.94 2.754 16.79 2.754 16.621C2.754 16.452 2.813 16.308 2.93 16.191L3.809 15.312C3.939 15.182 4.085 15.117 4.248 15.117C4.411 15.117 4.557 15.182 4.687 15.312C4.817 15.442 4.882 15.588 4.882 15.751C4.882 15.914 4.817 16.061 4.687 16.19L3.808 17.069C3.743 17.121 3.678 17.164 3.613 17.196C3.548 17.23 3.47 17.246 3.379 17.246ZM7.803 15.186C7.119 14.893 6.524 14.493 6.016 13.985C5.508 13.477 5.108 12.881 4.815 12.198C4.522 11.515 4.376 10.782 4.376 10.001C4.376 9.22 4.522 8.487 4.815 7.804C5.108 7.121 5.508 6.525 6.016 6.017C6.524 5.509 7.12 5.109 7.803 4.816C8.486 4.523 9.219 4.377 10.001 4.377C10.782 4.377 11.515 4.523 12.198 4.816C12.881 5.109 13.477 5.509 13.985 6.017C14.493 6.525 14.893 7.121 15.186 7.804C15.479 8.487 15.625 9.22 15.625 10.001C15.625 10.782 15.479 11.515 15.186 12.198C14.893 12.881 14.493 13.477 13.985 13.985C13.477 14.493 12.881 14.893 12.198 15.186C11.515 15.479 10.782 15.625 10.001 15.625C9.219 15.625 8.487 15.479 7.803 15.186ZM8.282 5.967C7.748 6.195 7.286 6.507 6.895 6.905C6.504 7.303 6.195 7.764 5.967 8.292C5.739 8.819 5.625 9.389 5.625 10.001C5.625 10.613 5.739 11.186 5.967 11.72C6.195 12.254 6.507 12.716 6.905 13.107C7.302 13.498 7.764 13.807 8.292 14.035C8.82 14.263 9.389 14.377 10.001 14.377C10.612 14.377 11.186 14.263 11.72 14.035C12.253 13.807 12.716 13.495 13.107 13.097C13.498 12.699 13.806 12.238 14.035 11.71C14.263 11.183 14.377 10.613 14.377 10.001C14.377 9.389 14.263 8.816 14.035 8.282C13.806 7.748 13.494 7.286 13.097 6.895C12.7 6.504 12.238 6.195 11.71 5.967C11.182 5.739 10.612 5.625 10.001 5.625C9.388 5.625 8.815 5.739 8.282 5.967ZM9.551 2.324C9.434 2.207 9.375 2.057 9.375 1.875V0.625C9.375 0.442 9.434 0.293 9.551 0.176C9.669 0.0589996 9.818 0 10.001 0C10.183 0 10.333 0.0589996 10.45 0.176C10.567 0.293 10.626 0.443 10.626 0.625V1.875C10.626 2.058 10.567 2.207 10.45 2.324C10.333 2.441 10.182 2.5 10.001 2.5C9.818 2.5 9.669 2.441 9.551 2.324ZM9.551 17.676C9.669 17.559 9.818 17.5 10.001 17.5C10.183 17.5 10.333 17.559 10.45 17.676C10.567 17.793 10.626 17.943 10.626 18.125V19.375C10.626 19.558 10.567 19.707 10.45 19.824C10.333 19.941 10.182 20 10.001 20C9.818 20 9.669 19.941 9.551 19.824C9.434 19.707 9.375 19.557 9.375 19.375V18.125C9.375 17.942 9.434 17.793 9.551 17.676ZM15.509 4.834C15.444 4.802 15.378 4.753 15.314 4.688C15.183 4.558 15.119 4.412 15.119 4.249C15.119 4.086 15.183 3.939 15.314 3.81L16.193 2.931C16.31 2.814 16.453 2.755 16.623 2.755C16.792 2.755 16.941 2.814 17.072 2.931C17.189 3.061 17.248 3.211 17.248 3.38C17.248 3.549 17.189 3.693 17.072 3.81L16.193 4.689C16.128 4.754 16.062 4.803 15.998 4.835C15.933 4.867 15.848 4.884 15.744 4.884C15.651 4.883 15.573 4.866 15.509 4.834ZM17.071 16.191C17.188 16.308 17.247 16.452 17.247 16.621C17.247 16.79 17.188 16.94 17.071 17.07C17.006 17.122 16.93 17.165 16.846 17.197C16.761 17.229 16.686 17.246 16.621 17.246C16.556 17.246 16.484 17.229 16.406 17.197C16.328 17.165 16.256 17.122 16.191 17.07L15.312 16.191C15.181 16.061 15.117 15.915 15.117 15.752C15.117 15.589 15.181 15.442 15.312 15.313C15.442 15.183 15.588 15.118 15.751 15.118C15.913 15.118 16.06 15.183 16.19 15.313L17.071 16.191ZM19.825 9.551C19.942 9.668 20.001 9.818 20.001 10C20.001 10.182 19.942 10.332 19.825 10.449C19.708 10.566 19.557 10.625 19.376 10.625H18.126C17.943 10.625 17.794 10.566 17.677 10.449C17.56 10.332 17.501 10.182 17.501 10C17.501 9.818 17.56 9.668 17.677 9.551C17.794 9.434 17.944 9.375 18.126 9.375H19.376C19.558 9.375 19.708 9.434 19.825 9.551Z"/>
</svg>
