<svg width="20" height="20" viewBox="0 0 20 20" fill="currentColor" xmlns="http://www.w3.org/2000/svg">
<path d="M0.176 10.449C0.0589996 10.332 0 10.182 0 10C0 9.818 0.0589996 9.668 0.176 9.551C0.293 9.434 0.443 9.375 0.625 9.375H1.875C2.057 9.375 2.207 9.434 2.324 9.551C2.441 9.668 2.5 9.818 2.5 10C2.5 10.182 2.441 10.332 2.324 10.449C2.207 10.566 2.057 10.625 1.875 10.625H0.625C0.443 10.625 0.293 10.566 0.176 10.449ZM2.93 3.809C2.813 3.692 2.754 3.548 2.754 3.379C2.754 3.21 2.813 3.06 2.93 2.93C3.06 2.813 3.21 2.754 3.379 2.754C3.548 2.754 3.692 2.813 3.809 2.93L4.688 3.809C4.818 3.939 4.883 4.085 4.883 4.248C4.883 4.411 4.818 4.558 4.688 4.687C4.623 4.752 4.548 4.801 4.463 4.833C4.378 4.865 4.31 4.882 4.258 4.882C4.193 4.882 4.118 4.865 4.033 4.833C3.948 4.801 3.873 4.752 3.808 4.687L2.93 3.809ZM3.379 17.246C3.288 17.246 3.206 17.229 3.135 17.197C3.063 17.165 2.995 17.122 2.93 17.07C2.813 16.94 2.754 16.79 2.754 16.621C2.754 16.452 2.813 16.308 2.93 16.191L3.809 15.312C3.939 15.182 4.085 15.117 4.248 15.117C4.411 15.117 4.557 15.182 4.687 15.312C4.817 15.442 4.882 15.588 4.882 15.751C4.882 15.914 4.817 16.061 4.687 16.19L3.808 17.069C3.743 17.121 3.678 17.164 3.613 17.196C3.548 17.23 3.47 17.246 3.379 17.246ZM7.803 15.186C7.119 14.893 6.524 14.493 6.016 13.985C5.508 13.477 5.108 12.881 4.815 12.198C4.522 11.515 4.376 10.782 4.376 10.001C4.376 9.22 4.522 8.487 4.815 7.804C5.108 7.121 5.508 6.525 6.016 6.017C6.524 5.509 7.12 5.109 7.803 4.816C8.486 4.523 9.219 4.377 10 4.377C10.781 4.377 11.513 4.523 12.197 4.816C12.881 5.109 13.476 5.509 13.984 6.017C14.492 6.525 14.892 7.121 15.185 7.804C15.478 8.487 15.624 9.22 15.624 10.001C15.624 10.782 15.478 11.515 15.185 12.198C14.892 12.881 14.492 13.477 13.984 13.985C13.476 14.493 12.88 14.893 12.197 15.186C11.514 15.479 10.781 15.625 10 15.625C9.219 15.625 8.487 15.479 7.803 15.186ZM8.282 5.967C7.748 6.195 7.286 6.507 6.895 6.905C6.504 7.303 6.195 7.764 5.967 8.292C5.739 8.819 5.625 9.389 5.625 10.001C5.625 10.613 5.739 11.186 5.967 11.72C6.195 12.254 6.507 12.716 6.905 13.107C7.302 13.498 7.764 13.807 8.292 14.035C8.82 14.263 9.389 14.377 10.001 14.377C10.613 14.377 11.185 14.263 11.719 14.035C12.253 13.807 12.715 13.495 13.106 13.097C13.497 12.699 13.806 12.238 14.034 11.71C14.262 11.182 14.376 10.613 14.376 10.001C14.376 9.389 14.262 8.816 14.034 8.282C13.806 7.748 13.494 7.286 13.096 6.895C12.698 6.504 12.237 6.195 11.709 5.967C11.181 5.739 10.612 5.625 10.001 5.625C9.388 5.625 8.815 5.739 8.282 5.967ZM9.551 2.324C9.434 2.207 9.375 2.057 9.375 1.875V0.625C9.375 0.442 9.434 0.293 9.551 0.176C9.668 0.0589996 9.818 0 10 0C10.182 0 10.332 0.0589996 10.449 0.176C10.566 0.293 10.625 0.443 10.625 0.625V1.875C10.625 2.058 10.566 2.207 10.449 2.324C10.332 2.441 10.182 2.5 10 2.5C9.818 2.5 9.668 2.441 9.551 2.324ZM9.551 17.676C9.668 17.559 9.818 17.5 10 17.5C10.182 17.5 10.332 17.559 10.449 17.676C10.566 17.793 10.625 17.943 10.625 18.125V19.375C10.625 19.558 10.566 19.707 10.449 19.824C10.332 19.941 10.182 20 10 20C9.817 20 9.668 19.941 9.551 19.824C9.434 19.707 9.375 19.557 9.375 19.375V18.125C9.376 17.942 9.434 17.793 9.551 17.676ZM15.508 4.834C15.443 4.802 15.378 4.753 15.313 4.688C15.183 4.558 15.118 4.412 15.118 4.249C15.118 4.086 15.183 3.939 15.313 3.81L16.192 2.931C16.309 2.814 16.453 2.755 16.622 2.755C16.791 2.755 16.941 2.814 17.071 2.931C17.188 3.061 17.247 3.211 17.247 3.38C17.247 3.549 17.188 3.693 17.071 3.81L16.192 4.689C16.127 4.754 16.062 4.803 15.997 4.835C15.932 4.867 15.848 4.884 15.743 4.884C15.651 4.883 15.573 4.866 15.508 4.834ZM17.07 16.191C17.187 16.308 17.246 16.452 17.246 16.621C17.246 16.79 17.187 16.94 17.07 17.07C17.005 17.122 16.93 17.165 16.845 17.197C16.76 17.229 16.686 17.246 16.62 17.246C16.554 17.246 16.483 17.229 16.405 17.197C16.327 17.165 16.256 17.122 16.19 17.07L15.311 16.191C15.181 16.061 15.116 15.915 15.116 15.752C15.116 15.589 15.181 15.442 15.311 15.313C15.441 15.184 15.587 15.118 15.75 15.118C15.913 15.118 16.06 15.183 16.189 15.313L17.07 16.191ZM19.824 9.551C19.941 9.668 20 9.818 20 10C20 10.182 19.941 10.332 19.824 10.449C19.707 10.566 19.557 10.625 19.375 10.625H18.125C17.942 10.625 17.793 10.566 17.676 10.449C17.559 10.332 17.5 10.182 17.5 10C17.5 9.818 17.559 9.668 17.676 9.551C17.793 9.434 17.943 9.375 18.125 9.375H19.375C19.558 9.375 19.707 9.434 19.824 9.551Z"/>
</svg>
