<svg width="20" height="27" viewBox="0 0 20 27" fill="currentColor" xmlns="http://www.w3.org/2000/svg">
<path d="M0.625 0C0.442 0 0.293001 0.0590006 0.176001 0.176001C0.0590006 0.293001 0 0.444 0 0.625V3.75C0 3.933 0.0590006 4.082 0.176001 4.199C0.293001 4.316 0.443 4.375 0.625 4.375C0.807 4.375 0.956999 4.316 1.074 4.199C1.191 4.082 1.25 3.932 1.25 3.75V0.625C1.25 0.443 1.191 0.293001 1.074 0.176001C0.956999 0.0590006 0.807 0 0.625 0Z" transform="translate(9.37399 11.25)"/>
<path d="M1.074 4.199C1.191 4.082 1.25 3.932 1.25 3.75V0.625C1.25 0.443 1.191 0.293001 1.074 0.176001C0.956999 0.0590006 0.806 0 0.625 0C0.442 0 0.293001 0.0590006 0.176001 0.176001C0.0590006 0.293001 0 0.444 0 0.625V3.75C0 3.933 0.0590006 4.082 0.176001 4.199C0.293001 4.316 0.443 4.375 0.625 4.375C0.807 4.375 0.956999 4.316 1.074 4.199Z" transform="translate(6.24902 9.375)"/>
<path d="M1.074 9.199C1.191 9.082 1.25 8.932 1.25 8.75V0.625C1.25 0.443 1.191 0.293001 1.074 0.176001C0.956999 0.0590006 0.806 0 0.625 0C0.442 0 0.293001 0.0590006 0.176001 0.176001C0.0590006 0.293001 0 0.444 0 0.625V8.75C0 8.933 0.0590006 9.082 0.176001 9.199C0.293001 9.316 0.443 9.375 0.625 9.375C0.807 9.375 0.956999 9.316 1.074 9.199Z" transform="translate(12.499 9.375)"/>
<path d="M19.111 7.129C18.518 6.387 17.754 5.905 16.816 5.684C16.672 4.877 16.399 4.125 15.996 3.428C15.592 2.732 15.088 2.129 14.482 1.621C13.876 1.113 13.193 0.717 12.431 0.43C11.669 0.144 10.859 0 9.999 0C9.282 0 8.589 0.107 7.919 0.322C7.248 0.537 6.63 0.843 6.064 1.24C5.498 1.637 4.996 2.113 4.56 2.666C4.123 3.22 3.769 3.828 3.496 4.492C3.001 4.636 2.539 4.853 2.109 5.146C1.679 5.439 1.308 5.788 0.996 6.191C0.683 6.595 0.439 7.041 0.264 7.529C0.0889999 8.017 0 8.529 0 9.062C0 9.674 0.11 10.25 0.332 10.791C0.553 11.332 0.855 11.811 1.24 12.227C1.624 12.644 2.08 12.986 2.607 13.252C3.134 13.52 3.704 13.686 4.316 13.75C4.498 13.75 4.651 13.695 4.775 13.584C4.898 13.474 4.973 13.34 5 13.184C5.025 13.028 4.977 12.881 4.854 12.745C4.73 12.608 4.59 12.527 4.434 12.501C3.536 12.41 2.78 12.042 2.168 11.397C1.556 10.752 1.25 9.975 1.25 9.063C1.25 8.217 1.526 7.475 2.08 6.836C2.633 6.198 3.313 5.815 4.121 5.684C4.212 5.659 4.303 5.61 4.394 5.538C4.485 5.467 4.563 5.372 4.628 5.255C4.81 4.656 5.077 4.112 5.429 3.624C5.781 3.136 6.191 2.716 6.659 2.364C7.127 2.012 7.645 1.739 8.212 1.544C8.779 1.349 9.374 1.251 9.999 1.251C10.728 1.251 11.421 1.382 12.079 1.642C12.736 1.903 13.315 2.257 13.817 2.706C14.318 3.155 14.728 3.689 15.047 4.308C15.365 4.927 15.558 5.594 15.623 6.31C15.623 6.466 15.678 6.593 15.789 6.691C15.899 6.789 16.033 6.851 16.189 6.877C16.905 6.969 17.51 7.281 18.005 7.815C18.499 8.349 18.747 8.974 18.747 9.69C18.747 10.407 18.499 11.038 18.005 11.585C17.51 12.132 16.904 12.439 16.189 12.503C16.033 12.529 15.899 12.61 15.789 12.747C15.678 12.884 15.623 13.03 15.623 13.186C15.648 13.342 15.721 13.476 15.838 13.586C15.955 13.697 16.092 13.752 16.248 13.752H16.307C16.84 13.688 17.332 13.537 17.782 13.303C18.232 13.069 18.622 12.77 18.954 12.405C19.286 12.041 19.543 11.628 19.725 11.165C19.907 10.703 19.998 10.212 19.998 9.69C19.999 8.725 19.702 7.871 19.111 7.129Z"/>
<path d="M2.781 0C1.248 0 0 1.248 0 2.781C0 4.314 1.248 5.562 2.781 5.562C4.314 5.562 5.562 4.314 5.562 2.781C5.562 1.248 4.315 0 2.781 0ZM2.781 4.563C1.799 4.563 1 3.764 1 2.782C1 1.8 1.799 1.001 2.781 1.001C3.763 1.001 4.562 1.8 4.562 2.782C4.562 3.764 3.764 4.563 2.781 4.563Z" transform="translate(3.75403 17.167)"/>
<path d="M2.781 0C1.248 0 0 1.248 0 2.781C0 4.314 1.248 5.562 2.781 5.562C4.314 5.562 5.562 4.314 5.562 2.781C5.562 1.248 4.314 0 2.781 0ZM2.781 4.562C1.799 4.562 1 3.763 1 2.781C1 1.799 1.799 1 2.781 1C3.763 1 4.562 1.799 4.562 2.781C4.562 3.763 3.763 4.562 2.781 4.562Z" transform="translate(10.682 21.084)"/>
</svg>
