<svg width="20" height="21" viewBox="0 0 20 21" fill="currentColor" xmlns="http://www.w3.org/2000/svg">
<path d="M1.504 0C1.335 0 1.191 0.0589996 1.074 0.176L0.195 1.055C0.0649997 1.186 0 1.332 0 1.494C0 1.657 0.0649997 1.804 0.195 1.933C0.26 1.998 0.324999 2.047 0.389999 2.079C0.454999 2.112 0.533001 2.128 0.624001 2.128C0.728001 2.128 0.812 2.112 0.878 2.079C0.943 2.047 1.008 1.998 1.073 1.933L1.952 1.054C2.069 0.937 2.128 0.794001 2.128 0.624001C2.128 0.455001 2.069 0.306 1.952 0.175C1.822 0.0590002 1.673 0 1.504 0Z" transform="translate(15.117 2.754)"/>
<path d="M2.324 0.176001C2.207 0.0590006 2.057 0 1.875 0H0.625C0.442 0 0.293001 0.0590006 0.176001 0.176001C0.0590006 0.293001 0 0.444 0 0.625C0 0.808 0.0590006 0.956999 0.176001 1.074C0.293001 1.191 0.443 1.25 0.625 1.25H1.875C2.057 1.25 2.207 1.191 2.324 1.074C2.441 0.956999 2.5 0.807 2.5 0.625C2.5 0.443 2.441 0.293001 2.324 0.176001Z" transform="translate(17.5 9.375)"/>
<path d="M0.625 2.5C0.807 2.5 0.956999 2.441 1.074 2.324C1.191 2.207 1.25 2.057 1.25 1.875V0.625C1.25 0.443 1.191 0.293 1.074 0.176C0.956999 0.0589996 0.807 0 0.625 0C0.442 0 0.293001 0.0589996 0.176001 0.176C0.0590006 0.293 0 0.444 0 0.625V1.875C0 2.058 0.0590006 2.207 0.176001 2.324C0.293001 2.441 0.442 2.5 0.625 2.5Z" transform="translate(9.375)"/>
<path d="M1.875 0H0.625C0.442 0 0.293001 0.0590006 0.176001 0.176001C0.0590006 0.293001 0 0.444 0 0.625C0 0.808 0.0590006 0.956999 0.176001 1.074C0.293001 1.191 0.443 1.25 0.625 1.25H1.875C2.057 1.25 2.207 1.191 2.324 1.074C2.441 0.956999 2.5 0.807 2.5 0.625C2.5 0.443 2.441 0.293001 2.324 0.176001C2.207 0.0590006 2.057 0 1.875 0Z" transform="translate(0 9.375)"/>
<path d="M1.934 1.933C2.064 1.803 2.129 1.657 2.129 1.494C2.129 1.332 2.064 1.185 1.934 1.055L1.055 0.176C0.938 0.0589996 0.794 0 0.625 0C0.456 0 0.306 0.0589996 0.176 0.176C0.0589996 0.307 0 0.456 0 0.625C0 0.795 0.0589996 0.937999 0.176 1.055L1.055 1.934C1.12 1.999 1.195 2.048 1.28 2.08C1.364 2.113 1.439 2.129 1.505 2.129C1.557 2.129 1.625 2.113 1.71 2.08C1.794 2.047 1.869 1.998 1.934 1.933Z" transform="translate(2.75299 2.755)"/>
<path d="M10.809 3.427C10.516 2.743 10.116 2.148 9.608 1.64C9.1 1.132 8.504 0.732 7.821 0.439C7.138 0.146 6.405 0 5.624 0C4.843 0 4.11 0.146 3.427 0.439C2.744 0.732 2.148 1.132 1.64 1.64C1.132 2.148 0.732 2.744 0.439 3.427C0.146 4.11 0 4.843 0 5.624C0 6.288 0.129 6.909 0.342 7.502L0.351 7.498C0.445 7.725 0.666999 7.885 0.927999 7.885C1.273 7.885 1.553 7.605 1.553 7.26C1.553 7.15 1.517 7.052 1.467 6.962L1.474 6.959C1.339 6.535 1.251 6.095 1.251 5.624C1.251 5.013 1.365 4.442 1.593 3.915C1.821 3.388 2.13 2.926 2.521 2.528C2.912 2.132 3.374 1.819 3.908 1.59C4.442 1.362 5.014 1.248 5.627 1.248C6.239 1.248 6.809 1.362 7.336 1.59C7.863 1.819 8.325 2.127 8.723 2.518C9.12 2.909 9.432 3.372 9.661 3.905C9.889 4.439 10.003 5.012 10.003 5.624C10.003 6.114 9.909 6.568 9.764 7.003C9.769 7.005 9.776 7.007 9.781 7.009C9.747 7.086 9.727 7.17 9.727 7.26C9.727 7.605 10.007 7.885 10.352 7.885C10.697 7.885 10.977 7.605 10.977 7.26C10.977 7.26 10.977 7.26 10.977 7.259C11.142 6.738 11.253 6.2 11.253 5.624C11.249 4.843 11.102 4.11 10.809 3.427Z" transform="translate(4.37601 4.37601)"/>
<path d="M1.14981 1.197C1.21681 1.063 1.30781 0.954 1.40981 0.858C1.39981 0.849 1.39181 0.836999 1.38181 0.827999C1.45981 0.739999 1.51081 0.627 1.51081 0.5C1.51081 0.224 1.28681 0 1.01081 0C0.793812 0 0.612813 0.140999 0.543813 0.334999C0.432813 0.459999 0.332814 0.595999 0.254814 0.751999C-0.197186 1.658 -0.0401864 2.829 0.664814 3.806C1.26681 4.64 0.959813 5.484 0.800813 5.808C0.612813 6.189 0.367812 6.426 0.166812 6.55L0.176813 6.562C0.0708127 6.654 0.000814007 6.785 0.000814007 6.936C0.000814007 7.212 0.224814 7.436 0.500814 7.436C0.661814 7.436 0.797814 7.355 0.889814 7.238C1.20381 6.994 1.49281 6.667 1.69781 6.251C2.19681 5.237 2.11481 4.105 1.47681 3.221C0.989814 2.545 0.864814 1.771 1.14981 1.197Z" transform="translate(6.71619 13)"/>
<path d="M1.14981 1.197C1.21681 1.063 1.30781 0.954 1.40981 0.858C1.39981 0.849 1.39181 0.836999 1.38181 0.827999C1.45981 0.739999 1.51081 0.627 1.51081 0.5C1.51081 0.224 1.28681 0 1.01081 0C0.793812 0 0.612813 0.140999 0.543813 0.334999C0.432813 0.459999 0.332814 0.595999 0.254814 0.751999C-0.197186 1.658 -0.0401864 2.829 0.664814 3.806C1.26681 4.64 0.959813 5.484 0.800813 5.808C0.612813 6.189 0.367812 6.426 0.166812 6.55L0.176813 6.562C0.0708127 6.654 0.000812099 6.785 0.000812099 6.936C0.000812099 7.212 0.224812 7.436 0.500812 7.436C0.661812 7.436 0.797812 7.355 0.889812 7.238C1.20381 6.994 1.49281 6.667 1.69781 6.251C2.19681 5.237 2.11481 4.105 1.47681 3.221C0.988812 2.545 0.863812 1.771 1.14981 1.197Z" transform="translate(9.11819 13)"/>
<path d="M1.14981 1.197C1.21681 1.063 1.30781 0.954 1.40981 0.858C1.39981 0.849 1.39181 0.836999 1.38181 0.827999C1.45981 0.739999 1.51081 0.627 1.51081 0.5C1.51081 0.224 1.28681 0 1.01081 0C0.793814 0 0.612813 0.140999 0.543813 0.334999C0.432813 0.459999 0.332814 0.595999 0.254814 0.751999C-0.197186 1.658 -0.0401864 2.829 0.664814 3.806C1.26681 4.64 0.959813 5.484 0.800813 5.808C0.612813 6.189 0.367814 6.426 0.166814 6.55L0.176815 6.562C0.0708146 6.654 0.000814007 6.785 0.000814007 6.936C0.000814007 7.212 0.224814 7.436 0.500814 7.436C0.661814 7.436 0.797814 7.355 0.889814 7.238C1.20381 6.994 1.49281 6.667 1.69781 6.251C2.19681 5.237 2.11481 4.105 1.47681 3.221C0.989814 2.545 0.864814 1.771 1.14981 1.197Z" transform="translate(11.5192 13)"/>
</svg>
