<svg width="20" height="20" viewBox="0 0 20 20" fill="currentColor" xmlns="http://www.w3.org/2000/svg">
<path d="M19.208 9.834C19.735 10.53 19.999 11.315 19.999 12.188C19.999 12.748 19.892 13.275 19.677 13.77C19.462 14.265 19.172 14.695 18.808 15.059C18.444 15.423 18.014 15.713 17.519 15.928C17.024 16.143 16.497 16.25 15.937 16.25H14.999C14.816 16.25 14.667 16.191 14.55 16.074C14.433 15.957 14.374 15.807 14.374 15.625C14.374 15.443 14.433 15.293 14.55 15.176C14.667 15.059 14.817 15 14.999 15H15.937C16.718 15 17.382 14.727 17.929 14.18C18.476 13.633 18.749 12.969 18.749 12.188C18.749 11.407 18.476 10.743 17.929 10.196C17.382 9.649 16.718 9.376 15.937 9.376C15.624 9.376 15.338 9.422 15.078 9.513C14.818 9.604 14.563 9.728 14.316 9.884C14.225 9.91 14.13 9.933 14.033 9.952C13.936 9.971 13.841 9.969 13.75 9.942C13.659 9.903 13.581 9.854 13.516 9.796C13.451 9.738 13.406 9.662 13.379 9.571C13.132 8.751 12.653 8.087 11.943 7.579C11.233 7.071 10.442 6.817 9.57 6.817C8.789 6.817 8.056 7.035 7.373 7.471C6.69 7.907 6.191 8.503 5.879 9.258C5.814 9.414 5.7 9.519 5.537 9.571C5.374 9.623 5.215 9.623 5.058 9.571C4.902 9.506 4.736 9.457 4.56 9.425C4.384 9.393 4.218 9.376 4.062 9.376C3.281 9.376 2.617 9.649 2.07 10.196C1.523 10.743 1.25 11.407 1.25 12.188C1.25 12.969 1.523 13.633 2.07 14.18C2.617 14.727 3.281 15 4.062 15H5C5.182 15 5.332 15.059 5.449 15.176C5.566 15.293 5.625 15.443 5.625 15.625C5.625 15.807 5.566 15.957 5.449 16.074C5.332 16.191 5.182 16.25 5 16.25H4.062C3.502 16.25 2.975 16.143 2.48 15.928C1.985 15.713 1.555 15.423 1.191 15.059C0.826 14.695 0.537001 14.265 0.322001 13.77C0.107 13.275 0 12.748 0 12.188C0 11.641 0.104 11.126 0.313 10.645C0.521 10.164 0.808 9.74 1.172 9.375C1.536 9.011 1.963 8.721 2.451 8.506C2.939 8.291 3.457 8.184 4.004 8.184C4.16 8.184 4.317 8.197 4.473 8.223C4.629 8.249 4.786 8.282 4.942 8.321C5.345 7.592 5.899 6.993 6.602 6.524C7.305 6.055 8.06 5.775 8.868 5.684C9.154 4.746 9.685 3.982 10.459 3.389C11.233 2.796 12.122 2.5 13.125 2.5C13.737 2.5 14.31 2.614 14.844 2.842C15.378 3.07 15.84 3.382 16.231 3.78C16.622 4.178 16.931 4.639 17.159 5.167C17.387 5.695 17.501 6.264 17.501 6.876C17.501 7.123 17.481 7.374 17.442 7.628C17.403 7.882 17.338 8.133 17.247 8.38C18.026 8.652 18.681 9.138 19.208 9.834ZM7.949 17.949C7.832 18.066 7.682 18.125 7.5 18.125C7.317 18.125 7.168 18.066 7.051 17.949C6.934 17.832 6.875 17.682 6.875 17.5V12.5C6.875 12.317 6.934 12.168 7.051 12.051C7.168 11.934 7.318 11.875 7.5 11.875C7.682 11.875 7.832 11.934 7.949 12.051C8.066 12.168 8.125 12.318 8.125 12.5V17.5C8.125 17.683 8.066 17.832 7.949 17.949ZM9.121 3.496C9.056 3.496 8.984 3.479 8.906 3.447C8.828 3.415 8.756 3.372 8.691 3.32L8.242 2.871C8.125 2.754 8.066 2.61 8.066 2.441C8.066 2.272 8.125 2.122 8.242 1.992C8.372 1.875 8.522 1.816 8.691 1.816C8.86 1.816 9.004 1.875 9.121 1.992L9.57 2.441C9.687 2.558 9.746 2.702 9.746 2.871C9.746 3.04 9.687 3.19 9.57 3.32C9.505 3.372 9.436 3.415 9.365 3.447C9.293 3.48 9.211 3.496 9.121 3.496ZM10.448 19.824C10.331 19.941 10.181 20 9.999 20C9.816 20 9.667 19.941 9.55 19.824C9.433 19.707 9.374 19.557 9.374 19.375V14.375C9.374 14.192 9.433 14.043 9.55 13.926C9.667 13.809 9.817 13.75 9.999 13.75C10.181 13.75 10.331 13.809 10.448 13.926C10.565 14.043 10.624 14.193 10.624 14.375V19.375C10.624 19.558 10.565 19.707 10.448 19.824ZM15.097 8.281C15.37 8.216 15.651 8.183 15.937 8.183C16.028 7.961 16.103 7.744 16.162 7.529C16.221 7.314 16.25 7.096 16.25 6.875C16.25 6.003 15.947 5.264 15.342 4.658C14.737 4.052 13.997 3.75 13.125 3.75C12.5 3.75 11.921 3.933 11.387 4.297C10.853 4.661 10.476 5.124 10.255 5.684C11.127 5.814 11.922 6.13 12.637 6.631C13.352 7.132 13.913 7.774 14.317 8.555C14.562 8.438 14.823 8.347 15.097 8.281ZM12.948 17.949C12.831 18.066 12.681 18.125 12.499 18.125C12.317 18.125 12.167 18.066 12.05 17.949C11.933 17.832 11.874 17.682 11.874 17.5V12.5C11.874 12.317 11.933 12.168 12.05 12.051C12.167 11.934 12.317 11.875 12.499 11.875C12.681 11.875 12.831 11.934 12.948 12.051C13.065 12.168 13.124 12.318 13.124 12.5V17.5C13.124 17.683 13.065 17.832 12.948 17.949ZM13.573 1.699C13.456 1.816 13.306 1.875 13.124 1.875C12.942 1.875 12.792 1.816 12.675 1.699C12.558 1.582 12.499 1.432 12.499 1.25V0.625C12.499 0.442 12.558 0.293 12.675 0.176C12.792 0.0589996 12.942 0 13.124 0C13.306 0 13.456 0.0589996 13.573 0.176C13.69 0.293 13.749 0.443 13.749 0.625V1.25C13.749 1.433 13.69 1.582 13.573 1.699ZM17.558 3.32C17.493 3.372 17.421 3.415 17.343 3.447C17.265 3.479 17.194 3.496 17.128 3.496C17.062 3.496 16.988 3.479 16.903 3.447C16.818 3.415 16.744 3.372 16.678 3.32C16.561 3.19 16.502 3.04 16.502 2.871C16.502 2.702 16.561 2.558 16.678 2.441L17.127 1.992C17.244 1.875 17.388 1.816 17.557 1.816C17.726 1.816 17.876 1.875 18.006 1.992C18.123 2.122 18.182 2.272 18.182 2.441C18.182 2.61 18.123 2.754 18.006 2.871L17.558 3.32ZM19.823 6.426C19.94 6.543 19.999 6.693 19.999 6.875C19.999 7.057 19.94 7.207 19.823 7.324C19.706 7.441 19.556 7.5 19.374 7.5H18.749C18.566 7.5 18.417 7.441 18.3 7.324C18.183 7.207 18.124 7.057 18.124 6.875C18.124 6.693 18.183 6.543 18.3 6.426C18.417 6.309 18.567 6.25 18.749 6.25H19.374C19.557 6.25 19.706 6.309 19.823 6.426Z"/>
</svg>
