<svg width="20" height="17" viewBox="0 0 20 17" fill="currentColor" xmlns="http://www.w3.org/2000/svg">
<path d="M16.815 5.686C17.753 5.908 18.517 6.389 19.11 7.131C19.702 7.873 19.999 8.726 19.999 9.69C19.999 10.211 19.907 10.703 19.726 11.165C19.543 11.627 19.287 12.041 18.955 12.405C18.623 12.769 18.232 13.069 17.783 13.303C17.334 13.537 16.842 13.687 16.308 13.752H16.249C16.093 13.752 15.956 13.696 15.839 13.586C15.722 13.476 15.65 13.342 15.624 13.186C15.624 13.03 15.679 12.883 15.79 12.747C15.9 12.61 16.034 12.529 16.19 12.503C16.906 12.438 17.511 12.132 18.006 11.585C18.5 11.038 18.748 10.406 18.748 9.69C18.748 8.974 18.5 8.349 18.006 7.815C17.511 7.281 16.905 6.968 16.19 6.877C16.034 6.851 15.9 6.789 15.79 6.691C15.679 6.593 15.624 6.466 15.624 6.31C15.559 5.594 15.366 4.926 15.048 4.308C14.729 3.69 14.319 3.156 13.818 2.706C13.316 2.257 12.737 1.902 12.08 1.642C11.422 1.381 10.728 1.251 10 1.251C9.375 1.251 8.779 1.349 8.212 1.544C7.645 1.739 7.128 2.013 6.659 2.364C6.19 2.715 5.78 3.135 5.429 3.624C5.078 4.113 4.81 4.656 4.628 5.255C4.563 5.372 4.484 5.467 4.394 5.538C4.303 5.609 4.211 5.658 4.121 5.684C3.313 5.814 2.633 6.199 2.08 6.836C1.526 7.474 1.25 8.216 1.25 9.063C1.25 9.974 1.556 10.752 2.168 11.397C2.78 12.042 3.535 12.41 4.434 12.501C4.59 12.527 4.73 12.608 4.854 12.745C4.978 12.882 5.026 13.028 5 13.184C4.974 13.34 4.899 13.48 4.775 13.604C4.651 13.728 4.498 13.777 4.316 13.75C3.704 13.685 3.134 13.519 2.607 13.252C2.08 12.985 1.624 12.644 1.24 12.227C0.856 11.81 0.553 11.331 0.332 10.791C0.11 10.251 0 9.675 0 9.062C0 8.528 0.0879999 8.017 0.264 7.529C0.44 7.041 0.684 6.594 0.996 6.191C1.308 5.788 1.68 5.439 2.109 5.146C2.538 4.853 3.001 4.635 3.496 4.492C3.769 3.828 4.124 3.22 4.56 2.666C4.996 2.112 5.498 1.638 6.064 1.24C6.63 0.842 7.249 0.537 7.919 0.322C8.589 0.107 9.283 0 10 0C10.859 0 11.67 0.143999 12.432 0.429999C13.194 0.715999 13.877 1.114 14.483 1.621C15.089 2.128 15.592 2.731 15.997 3.428C16.398 4.126 16.672 4.878 16.815 5.686ZM7.303 15.315C7.212 15.159 7.189 15 7.235 14.836C7.28 14.673 7.368 14.56 7.499 14.494L8.749 13.81L7.499 13.126C7.343 13.035 7.238 12.904 7.186 12.735C7.134 12.566 7.153 12.403 7.245 12.247C7.336 12.091 7.466 11.986 7.636 11.934C7.805 11.882 7.968 11.902 8.124 11.993L9.374 12.696V11.251C9.374 11.068 9.433 10.919 9.55 10.802C9.668 10.685 9.817 10.626 10 10.626C10.182 10.626 10.332 10.685 10.449 10.802C10.566 10.919 10.625 11.069 10.625 11.251V12.618L11.875 11.934C12.031 11.869 12.193 11.856 12.363 11.895C12.532 11.934 12.662 12.032 12.754 12.188C12.818 12.344 12.832 12.507 12.793 12.676C12.754 12.845 12.656 12.976 12.5 13.067L11.25 13.751L12.559 14.376C12.715 14.467 12.819 14.598 12.872 14.767C12.924 14.936 12.904 15.099 12.813 15.255C12.748 15.346 12.66 15.421 12.549 15.48C12.438 15.539 12.337 15.568 12.246 15.568C12.181 15.568 12.129 15.565 12.09 15.558C12.051 15.551 11.998 15.536 11.934 15.509L10.684 14.806V16.251C10.684 16.434 10.628 16.583 10.518 16.7C10.407 16.817 10.254 16.876 10.059 16.876C9.876 16.876 9.727 16.817 9.609 16.7C9.492 16.583 9.433 16.433 9.433 16.251V14.884L8.183 15.568C8.118 15.594 8.066 15.61 8.027 15.617C7.988 15.624 7.936 15.627 7.871 15.627C7.754 15.627 7.646 15.598 7.549 15.539C7.452 15.48 7.368 15.405 7.303 15.315Z"/>
</svg>
