<svg width="21" height="27" viewBox="0 0 21 27" fill="currentColor" xmlns="http://www.w3.org/2000/svg">
<path d="M0.625 1.875C0.807 1.875 0.956999 1.816 1.074 1.699C1.191 1.582 1.25 1.432 1.25 1.25V0.625C1.25 0.442 1.191 0.293 1.074 0.176C0.956999 0.0589996 0.807 0 0.625 0C0.442 0 0.293001 0.0589996 0.176001 0.176C0.0590006 0.293 0 0.443 0 0.625V1.25C0 1.433 0.0590006 1.582 0.176001 1.699C0.293001 1.816 0.442 1.875 0.625 1.875Z" transform="translate(12.502)"/>
<path d="M0.381001 1.631C0.452001 1.663 0.534 1.68 0.625 1.68C0.716 1.68 0.793999 1.663 0.858999 1.631C0.923999 1.599 0.989001 1.556 1.054 1.504L1.503 1.055C1.62 0.938 1.679 0.794 1.679 0.625C1.679 0.456 1.622 0.306 1.504 0.176C1.374 0.0589996 1.224 0 1.055 0C0.886 0 0.742 0.0589996 0.625 0.176L0.176001 0.625C0.0590006 0.742 0 0.886 0 1.055C0 1.224 0.0590006 1.374 0.176001 1.504C0.241001 1.556 0.309001 1.599 0.381001 1.631Z" transform="translate(16.505 1.81599)"/>
<path d="M0.175999 1.074C0.292999 1.191 0.443 1.25 0.625 1.25H1.25C1.432 1.25 1.582 1.191 1.699 1.074C1.816 0.956999 1.875 0.807 1.875 0.625C1.875 0.443 1.816 0.293 1.699 0.176C1.582 0.0589996 1.432 0 1.25 0H0.625C0.442 0 0.292999 0.0589996 0.175999 0.176C0.0589987 0.293 0 0.443 0 0.625C0 0.807 0.0589987 0.956999 0.175999 1.074Z" transform="translate(18.126 6.25)"/>
<path d="M0.625 1.504C0.69 1.556 0.762 1.599 0.84 1.631C0.918 1.663 0.989 1.68 1.055 1.68C1.12 1.68 1.195 1.663 1.28 1.631C1.364 1.599 1.439 1.556 1.505 1.504C1.622 1.374 1.681 1.224 1.681 1.055C1.681 0.886 1.622 0.742 1.505 0.625L1.055 0.176C0.938 0.0589996 0.794 0 0.625 0C0.456 0 0.306001 0.0589996 0.176001 0.176C0.0590006 0.306 0 0.456 0 0.625C0 0.794 0.0590006 0.938 0.176001 1.055L0.625 1.504Z" transform="translate(8.06799 1.81599)"/>
<path d="M17.248 5.88C17.339 5.633 17.404 5.382 17.443 5.128C17.482 4.874 17.502 4.623 17.502 4.376C17.502 3.764 17.388 3.194 17.16 2.667C16.932 2.14 16.623 1.678 16.232 1.28C15.841 0.882001 15.379 0.57 14.845 0.342C14.311 0.114 13.738 0 13.126 0C12.123 0 11.234 0.296 10.46 0.889C9.685 1.482 9.154 2.246 8.868 3.184C8.06 3.275 7.305 3.555 6.602 4.024C5.899 4.493 5.345 5.091 4.942 5.821C4.786 5.782 4.629 5.75 4.473 5.723C4.317 5.696 4.16 5.684 4.004 5.684C3.457 5.684 2.94 5.791 2.451 6.006C1.962 6.221 1.536 6.511 1.172 6.875C0.807 7.239 0.521 7.663 0.313 8.145C0.105 8.626 0 9.141 0 9.688C0 10.248 0.107 10.775 0.322001 11.27C0.537001 11.765 0.826 12.195 1.191 12.559C1.555 12.923 1.985 13.213 2.48 13.428C2.975 13.643 3.502 13.75 4.062 13.75H4.375C4.557 13.75 4.707 13.691 4.824 13.574C4.941 13.457 5 13.307 5 13.125C5 12.943 4.941 12.793 4.824 12.676C4.707 12.559 4.557 12.5 4.375 12.5H4.062C3.281 12.5 2.617 12.227 2.07 11.68C1.523 11.133 1.25 10.469 1.25 9.688C1.25 8.907 1.523 8.243 2.07 7.696C2.617 7.149 3.281 6.876 4.062 6.876C4.218 6.876 4.384 6.893 4.56 6.925C4.736 6.957 4.902 7.006 5.058 7.071C5.214 7.123 5.373 7.123 5.537 7.071C5.7 7.019 5.813 6.915 5.879 6.758C6.192 6.003 6.69 5.407 7.373 4.971C8.056 4.535 8.789 4.317 9.57 4.317C10.442 4.317 11.233 4.571 11.943 5.079C12.652 5.587 13.131 6.251 13.379 7.071C13.405 7.162 13.45 7.237 13.516 7.296C13.581 7.355 13.659 7.403 13.75 7.442C13.841 7.468 13.936 7.471 14.033 7.452C14.13 7.433 14.225 7.41 14.316 7.384C14.563 7.228 14.817 7.104 15.078 7.013C15.338 6.922 15.625 6.876 15.937 6.876C16.718 6.876 17.382 7.149 17.929 7.696C18.476 8.243 18.749 8.907 18.749 9.688C18.749 10.469 18.476 11.133 17.929 11.68C17.382 12.227 16.718 12.5 15.937 12.5H15.624C15.441 12.5 15.292 12.559 15.175 12.676C15.058 12.793 14.999 12.943 14.999 13.125C14.999 13.307 15.058 13.457 15.175 13.574C15.292 13.691 15.442 13.75 15.624 13.75H15.937C16.497 13.75 17.024 13.643 17.519 13.428C18.014 13.213 18.443 12.923 18.808 12.559C19.172 12.195 19.462 11.765 19.677 11.27C19.892 10.775 19.999 10.248 19.999 9.688C19.999 8.816 19.735 8.031 19.208 7.334C18.681 6.637 18.029 6.153 17.248 5.88ZM16.164 5.03C16.105 5.245 16.03 5.463 15.939 5.684C15.652 5.684 15.373 5.716 15.099 5.782C14.825 5.848 14.565 5.938 14.318 6.055C13.914 5.274 13.354 4.632 12.638 4.131C11.922 3.63 11.127 3.314 10.255 3.184C10.476 2.624 10.854 2.162 11.388 1.797C11.922 1.433 12.501 1.25 13.126 1.25C13.998 1.25 14.737 1.553 15.343 2.158C15.949 2.763 16.251 3.503 16.251 4.375C16.252 4.598 16.222 4.815 16.164 5.03Z" transform="translate(0 2.49899)"/>
<path d="M5.65321 4.141C5.60121 3.972 5.49721 3.841 5.34021 3.75L4.14921 3.125L5.39921 2.441C5.52921 2.35 5.61721 2.219 5.66321 2.05C5.70821 1.881 5.68521 1.718 5.59521 1.562C5.49121 1.406 5.35721 1.308 5.19521 1.269C5.03221 1.23 4.87321 1.243 4.71621 1.308L3.46621 1.992V0.625C3.46621 0.442 3.40721 0.293001 3.29021 0.176001C3.17321 0.0590006 3.02321 0 2.84121 0C2.64621 0 2.49221 0.0590006 2.38221 0.176001C2.27121 0.293001 2.21621 0.443 2.21621 0.625V2.07L0.966214 1.367C0.810214 1.276 0.647215 1.257 0.478215 1.308C0.309215 1.36 0.178214 1.464 0.0872139 1.621C-0.00378605 1.777 -0.0237861 1.94 0.0282139 2.109C0.0802139 2.278 0.184214 2.409 0.341214 2.5L1.59121 3.184L0.341214 3.868C0.185214 3.972 0.0872144 4.105 0.0482144 4.268C0.00921439 4.431 0.022214 4.59 0.0872139 4.747C0.152214 4.838 0.230213 4.913 0.321213 4.972C0.412213 5.031 0.523214 5.06 0.653214 5.06C0.718214 5.06 0.770214 5.057 0.809214 5.05C0.848214 5.043 0.900214 5.028 0.965214 5.001L2.21521 4.317V5.626C2.21521 5.809 2.27021 5.958 2.38121 6.075C2.49121 6.192 2.64521 6.251 2.84021 6.251C3.02221 6.251 3.17221 6.192 3.28921 6.075C3.40621 5.958 3.46521 5.808 3.46521 5.626V4.181L4.71521 4.884C4.78021 4.91 4.83221 4.926 4.87121 4.933C4.91021 4.94 4.96221 4.943 5.02721 4.943C5.11821 4.943 5.21921 4.914 5.33021 4.855C5.44021 4.796 5.52821 4.721 5.59421 4.63C5.68621 4.473 5.70521 4.31 5.65321 4.141Z" transform="translate(7.10178 12.5)"/>
<path d="M0.625 0C0.281 0 0 0.281 0 0.625V4.063C0 4.407 0.281 4.688 0.625 4.688C0.969 4.688 1.25 4.407 1.25 4.063V0.625C1.25 0.281 0.968 0 0.625 0Z" transform="translate(6.64801 20.167)"/>
<path d="M0.625 0C0.281 0 0 0.281 0 0.625V4.063C0 4.407 0.281 4.688 0.625 4.688C0.969 4.688 1.25 4.407 1.25 4.063V0.625C1.25 0.281 0.969 0 0.625 0Z" transform="translate(9.70999 21.917)"/>
<path d="M0.625 0C0.281 0 0 0.281 0 0.625V4.063C0 4.407 0.281 4.688 0.625 4.688C0.969 4.688 1.25 4.407 1.25 4.063V0.625C1.25 0.281 0.968 0 0.625 0Z" transform="translate(12.773 18.605)"/>
</svg>
