<svg width="31" height="26" viewBox="0 0 31 26" fill="currentColor" xmlns="http://www.w3.org/2000/svg">
<path d="M4.03147 12.306L8.03547 10.001L4.09047 7.696L0.848466 8.555C0.822466 8.555 0.792466 8.555 0.760466 8.555C0.727466 8.555 0.692466 8.555 0.653466 8.555C0.497466 8.555 0.363466 8.516 0.253466 8.438C0.142466 8.36 0.0674659 8.255 0.0284659 8.125C-0.0235341 7.969 -0.00453407 7.812 0.0874659 7.656C0.178466 7.5 0.289466 7.409 0.419466 7.383L2.47047 6.817L0.849466 5.879C0.693466 5.788 0.595466 5.657 0.556466 5.488C0.517466 5.319 0.530466 5.156 0.595466 5C0.686466 4.844 0.816466 4.746 0.986466 4.707C1.15547 4.668 1.31847 4.681 1.47447 4.746L3.15447 5.742L2.60747 3.691C2.54247 3.535 2.55147 3.378 2.63647 3.222C2.72047 3.066 2.85447 2.968 3.03647 2.929C3.19247 2.877 3.34947 2.89 3.50547 2.968C3.66147 3.046 3.75247 3.183 3.77847 3.378L4.65747 6.62L8.66047 8.944V4.315L6.27847 1.874C6.16147 1.744 6.10247 1.598 6.10247 1.435C6.10247 1.272 6.16147 1.125 6.27847 0.996C6.40847 0.879 6.55847 0.820001 6.72747 0.820001C6.89647 0.820001 7.04047 0.879 7.15747 0.996L8.66047 2.5V0.625C8.66047 0.442 8.71947 0.293001 8.83647 0.176001C8.95347 0.0590006 9.10347 0 9.28547 0C9.46747 0 9.61747 0.0590006 9.73447 0.176001C9.85147 0.293001 9.91047 0.443 9.91047 0.625V2.5L11.4145 1.055C11.5315 0.938 11.6755 0.879001 11.8445 0.879001C12.0135 0.879001 12.1635 0.938 12.2935 1.055C12.4105 1.185 12.4695 1.335 12.4695 1.504C12.4695 1.673 12.4105 1.817 12.2935 1.934L9.91047 4.317V8.946L13.9735 6.563L14.8525 3.321C14.8785 3.165 14.9695 3.045 15.1255 2.96C15.2815 2.875 15.4385 2.846 15.5945 2.872C15.7505 2.911 15.8705 3.009 15.9555 3.165C16.0405 3.321 16.0695 3.478 16.0435 3.634L15.4775 5.685L17.0985 4.747C17.2545 4.682 17.4175 4.669 17.5865 4.708C17.7555 4.747 17.8865 4.845 17.9775 5.001C18.0425 5.157 18.0555 5.32 18.0165 5.489C17.9775 5.658 17.8795 5.789 17.7235 5.88L16.1025 6.818L18.1535 7.384C18.3095 7.41 18.4295 7.501 18.5145 7.657C18.5995 7.813 18.6285 7.97 18.6025 8.126C18.5375 8.256 18.4465 8.36 18.3295 8.439C18.2125 8.518 18.0955 8.556 17.9775 8.556C17.9385 8.556 17.9065 8.556 17.8795 8.556C17.8525 8.556 17.8205 8.556 17.7815 8.556L14.5395 7.697L10.5355 10.002L14.5985 12.248L17.8405 11.369C17.9965 11.343 18.1535 11.372 18.3095 11.457C18.4655 11.542 18.5635 11.662 18.6025 11.818C18.6285 11.974 18.5995 12.131 18.5145 12.287C18.4295 12.443 18.3095 12.534 18.1535 12.56L16.1025 13.126L17.7235 14.064C17.8795 14.155 17.9845 14.286 18.0365 14.455C18.0885 14.624 18.0685 14.787 17.9775 14.943C17.9125 15.034 17.8245 15.109 17.7135 15.168C17.6025 15.227 17.5015 15.256 17.4105 15.256C17.3455 15.256 17.2935 15.253 17.2545 15.246C17.2155 15.239 17.1635 15.224 17.0985 15.197L15.4775 14.259L16.0435 16.31C16.0695 16.466 16.0405 16.623 15.9555 16.779C15.8705 16.935 15.7505 17.033 15.5945 17.072C15.5685 17.072 15.5385 17.072 15.5065 17.072C15.4745 17.072 15.4445 17.072 15.4185 17.072C15.2625 17.072 15.1255 17.03 15.0085 16.945C14.8915 16.86 14.8205 16.753 14.7935 16.623L13.9145 13.381L9.91047 11.057V15.686L12.2935 18.127C12.4105 18.257 12.4695 18.403 12.4695 18.566C12.4695 18.729 12.4105 18.876 12.2935 19.005C12.2285 19.07 12.1535 19.115 12.0685 19.142C11.9835 19.169 11.9095 19.181 11.8435 19.181C11.7775 19.181 11.7065 19.168 11.6285 19.142C11.5505 19.116 11.4795 19.071 11.4135 19.005L9.90947 17.501V19.376C9.90947 19.559 9.85047 19.708 9.73347 19.825C9.61647 19.942 9.46647 20.001 9.28447 20.001C9.10247 20.001 8.95247 19.942 8.83547 19.825C8.71847 19.708 8.65947 19.558 8.65947 19.376V17.501L7.15647 19.005C7.03947 19.122 6.89547 19.181 6.72647 19.181C6.55747 19.181 6.40747 19.122 6.27747 19.005C6.16047 18.875 6.10147 18.729 6.10147 18.566C6.10147 18.403 6.16047 18.256 6.27747 18.127L8.65947 15.744V11.135L4.65647 13.44L3.77747 16.682C3.72547 16.812 3.64047 16.919 3.52347 17.004C3.40647 17.089 3.28247 17.131 3.15247 17.131C3.12647 17.131 3.09647 17.131 3.06447 17.131C3.03147 17.131 3.00247 17.131 2.97647 17.131C2.82047 17.092 2.69947 16.994 2.61547 16.838C2.53047 16.682 2.50147 16.525 2.52747 16.369L3.09347 14.318L1.47247 15.256C1.40747 15.282 1.35547 15.298 1.31647 15.305C1.27747 15.312 1.22547 15.315 1.16047 15.315C1.03047 15.315 0.919466 15.286 0.828466 15.227C0.737466 15.168 0.659466 15.093 0.594466 15.002C0.529466 14.846 0.519466 14.683 0.565466 14.514C0.610466 14.345 0.724466 14.214 0.907466 14.123L2.52847 13.185L0.476466 12.618C0.320466 12.592 0.199466 12.501 0.115466 12.345C0.0304658 12.189 0.00146646 12.032 0.0274665 11.876C0.0664665 11.72 0.164466 11.6 0.320466 11.515C0.476466 11.43 0.633466 11.408 0.789466 11.447L4.03147 12.306Z" transform="translate(6.40002 5.74899)"/>
<path d="M5.34147 3.75L4.15047 3.125L5.40047 2.441C5.52947 2.35 5.61747 2.22 5.66447 2.05C5.70947 1.881 5.68547 1.718 5.59647 1.562C5.49147 1.406 5.35847 1.308 5.19647 1.269C5.03247 1.23 4.87446 1.243 4.71746 1.308L3.46747 1.992V0.625C3.46747 0.443 3.40847 0.293 3.29147 0.176C3.17447 0.0589996 3.02347 0 2.84247 0C2.64747 0 2.49247 0.0589996 2.38347 0.176C2.27147 0.293 2.21647 0.443 2.21647 0.625V2.07L0.966466 1.367C0.810466 1.276 0.646467 1.257 0.478467 1.308C0.308467 1.36 0.177466 1.464 0.0874659 1.621C-0.00453407 1.777 -0.0235341 1.94 0.0284659 2.109C0.0794659 2.278 0.184466 2.409 0.341466 2.5L1.59147 3.184L0.341466 3.868C0.185466 3.972 0.0874664 4.106 0.0484664 4.268C0.00946637 4.431 0.0214659 4.59 0.0874659 4.747C0.151466 4.838 0.230465 4.913 0.321465 4.972C0.411465 5.031 0.522466 5.06 0.653466 5.06C0.717466 5.06 0.770466 5.057 0.809466 5.05C0.848466 5.044 0.899466 5.028 0.965466 5.001L2.21547 4.317V5.626C2.21547 5.808 2.27047 5.958 2.38147 6.075C2.49047 6.192 2.64547 6.251 2.84047 6.251C3.02247 6.251 3.17247 6.192 3.28947 6.075C3.40647 5.958 3.46547 5.808 3.46547 5.626V4.181L4.71547 4.884C4.77947 4.91 4.83246 4.926 4.87146 4.933C4.91046 4.94 4.96147 4.943 5.02747 4.943C5.11747 4.943 5.21846 4.914 5.33046 4.855C5.43946 4.796 5.52747 4.722 5.59447 4.63C5.68447 4.474 5.70347 4.311 5.65347 4.142C5.60147 3.972 5.49847 3.842 5.34147 3.75Z" transform="translate(24.747)"/>
<path d="M5.34047 3.75L4.14947 3.125L5.39947 2.441C5.52847 2.35 5.61647 2.22 5.66347 2.05C5.70847 1.881 5.68447 1.718 5.59547 1.562C5.49047 1.406 5.35747 1.308 5.19547 1.269C5.03147 1.23 4.87347 1.243 4.71647 1.308L3.46647 1.992V0.625C3.46647 0.443 3.40747 0.293 3.29047 0.176C3.17347 0.0589996 3.02247 0 2.84147 0C2.64647 0 2.49147 0.0589996 2.38247 0.176C2.27147 0.293 2.21647 0.443 2.21647 0.625V2.07L0.966466 1.367C0.810466 1.276 0.646466 1.257 0.478466 1.308C0.308466 1.36 0.177466 1.464 0.0874656 1.621C-0.0045344 1.777 -0.0235339 1.94 0.0284661 2.109C0.0794661 2.278 0.184466 2.409 0.341466 2.5L1.59147 3.184L0.341466 3.868C0.185466 3.972 0.087466 4.106 0.048466 4.268C0.00946604 4.431 0.0214656 4.59 0.0874656 4.747C0.151466 4.838 0.230466 4.913 0.321466 4.972C0.411466 5.031 0.522466 5.06 0.653466 5.06C0.717466 5.06 0.770466 5.057 0.809466 5.05C0.848466 5.044 0.899466 5.028 0.965466 5.001L2.21547 4.317V5.626C2.21547 5.808 2.27047 5.958 2.38147 6.075C2.49047 6.192 2.64547 6.251 2.84047 6.251C3.02247 6.251 3.17247 6.192 3.28947 6.075C3.40647 5.958 3.46547 5.808 3.46547 5.626V4.181L4.71547 4.884C4.77947 4.91 4.83247 4.926 4.87147 4.933C4.91047 4.94 4.96147 4.943 5.02747 4.943C5.11747 4.943 5.21847 4.914 5.33047 4.855C5.43947 4.796 5.52747 4.722 5.59447 4.63C5.68447 4.474 5.70347 4.311 5.65347 4.142C5.60047 3.972 5.49647 3.842 5.34047 3.75Z" transform="translate(0 3.125)"/>
</svg>
