<svg width="21" height="20" viewBox="0 0 21 20" fill="currentColor" xmlns="http://www.w3.org/2000/svg">
<path d="M17.519 12.256C18.014 12.471 18.447 12.761 18.818 13.125C19.189 13.489 19.485 13.913 19.707 14.395C19.929 14.877 20.046 15.391 20.059 15.938C20.059 16.498 19.955 17.025 19.746 17.52C19.537 18.015 19.248 18.445 18.877 18.809C18.506 19.173 18.073 19.463 17.578 19.678C17.083 19.893 16.556 20 15.996 20H4.062C3.502 20 2.975 19.893 2.48 19.678C1.985 19.463 1.555 19.173 1.191 18.809C0.826 18.445 0.537001 18.015 0.322001 17.52C0.107 17.025 0 16.498 0 15.938C0 15.391 0.107 14.876 0.322001 14.395C0.537001 13.914 0.823 13.49 1.181 13.125C1.539 12.761 1.962 12.471 2.451 12.256C2.94 12.041 3.457 11.934 4.004 11.934C4.03 11.934 4.049 11.934 4.063 11.934C3.972 11.621 3.897 11.306 3.838 10.987C3.779 10.668 3.75 10.34 3.75 10.001C3.75 9.142 3.916 8.331 4.248 7.569C4.58 6.807 5.029 6.143 5.596 5.577C6.163 5.011 6.823 4.564 7.578 4.239C8.333 3.914 9.141 3.751 10 3.751C10.859 3.751 11.669 3.917 12.431 4.249C13.193 4.581 13.857 5.03 14.423 5.597C14.989 6.164 15.436 6.825 15.761 7.579C16.086 8.333 16.249 9.142 16.249 10.001C16.249 10.34 16.22 10.668 16.161 10.987C16.102 11.306 16.027 11.622 15.936 11.934C16.496 11.934 17.023 12.041 17.519 12.256ZM0.625 10.625C0.442 10.625 0.293001 10.566 0.176001 10.449C0.0590006 10.332 0 10.182 0 10C0 9.818 0.0590006 9.668 0.176001 9.551C0.293001 9.434 0.443 9.375 0.625 9.375H1.875C2.057 9.375 2.207 9.434 2.324 9.551C2.441 9.668 2.5 9.818 2.5 10C2.5 10.182 2.441 10.332 2.324 10.449C2.207 10.566 2.057 10.625 1.875 10.625H0.625ZM15.937 18.75C16.718 18.75 17.382 18.477 17.929 17.93C18.476 17.383 18.749 16.719 18.749 15.938C18.749 15.157 18.476 14.493 17.929 13.946C17.382 13.399 16.718 13.126 15.937 13.126C15.624 13.126 15.338 13.172 15.078 13.263C14.818 13.354 14.563 13.478 14.316 13.634C14.225 13.66 14.13 13.683 14.033 13.702C13.936 13.721 13.841 13.719 13.75 13.692C13.659 13.653 13.581 13.604 13.516 13.546C13.451 13.488 13.406 13.412 13.379 13.321C13.132 12.501 12.653 11.837 11.943 11.329C11.233 10.821 10.442 10.567 9.57 10.567C8.789 10.567 8.056 10.785 7.373 11.221C6.69 11.657 6.191 12.253 5.879 13.008C5.814 13.164 5.7 13.269 5.537 13.321C5.374 13.373 5.215 13.373 5.058 13.321C4.902 13.256 4.736 13.207 4.56 13.175C4.384 13.143 4.218 13.126 4.062 13.126C3.281 13.126 2.617 13.399 2.07 13.946C1.523 14.493 1.25 15.157 1.25 15.938C1.25 16.719 1.523 17.383 2.07 17.93C2.617 18.477 3.281 18.75 4.062 18.75H15.937V18.75ZM2.929 2.93C3.059 2.813 3.209 2.754 3.378 2.754C3.547 2.754 3.691 2.813 3.808 2.93L4.687 3.809C4.817 3.939 4.882 4.085 4.882 4.248C4.882 4.411 4.817 4.558 4.687 4.687C4.622 4.752 4.547 4.801 4.462 4.833C4.377 4.865 4.309 4.882 4.257 4.882C4.192 4.882 4.117 4.865 4.032 4.833C3.947 4.801 3.872 4.752 3.807 4.687L2.928 3.808C2.811 3.691 2.752 3.547 2.752 3.378C2.752 3.209 2.812 3.06 2.929 2.93ZM10 5C9.31 5 8.662 5.13 8.057 5.391C7.452 5.652 6.921 6.009 6.465 6.465C6.009 6.921 5.651 7.451 5.391 8.057C5.13 8.662 5 9.31 5 10C5 10.286 5.026 10.557 5.078 10.811C5.13 11.065 5.188 11.316 5.254 11.563C5.749 10.912 6.37 10.384 7.119 9.981C7.868 9.578 8.684 9.376 9.57 9.376C10.598 9.376 11.535 9.647 12.382 10.187C13.229 10.727 13.873 11.434 14.316 12.306C14.368 12.267 14.407 12.247 14.433 12.247C14.628 11.908 14.772 11.544 14.863 11.153C14.954 10.762 15 10.379 15 10.001C15 9.311 14.87 8.663 14.609 8.058C14.348 7.453 13.991 6.922 13.535 6.466C13.079 6.01 12.549 5.653 11.943 5.392C11.337 5.131 10.689 5 10 5ZM9.55 0.176C9.667 0.0589996 9.817 0 9.999 0C10.181 0 10.331 0.0589996 10.448 0.176C10.565 0.293 10.624 0.443 10.624 0.625V1.875C10.624 2.058 10.565 2.207 10.448 2.324C10.331 2.441 10.181 2.5 9.999 2.5C9.816 2.5 9.667 2.441 9.55 2.324C9.433 2.207 9.374 2.057 9.374 1.875V0.625C9.375 0.442 9.433 0.293 9.55 0.176ZM16.62 2.754C16.789 2.754 16.939 2.813 17.069 2.93C17.186 3.06 17.245 3.21 17.245 3.379C17.245 3.548 17.186 3.692 17.069 3.809L16.19 4.688C16.125 4.753 16.05 4.802 15.965 4.834C15.88 4.866 15.806 4.883 15.74 4.883C15.688 4.883 15.62 4.866 15.535 4.834C15.45 4.802 15.376 4.753 15.31 4.688C15.18 4.558 15.115 4.412 15.115 4.249C15.115 4.086 15.18 3.939 15.31 3.81L16.189 2.931C16.308 2.813 16.451 2.754 16.62 2.754ZM19.823 9.551C19.94 9.668 19.999 9.818 19.999 10C19.999 10.182 19.94 10.332 19.823 10.449C19.706 10.566 19.556 10.625 19.374 10.625H18.124C17.941 10.625 17.792 10.566 17.675 10.449C17.558 10.332 17.499 10.182 17.499 10C17.499 9.818 17.558 9.668 17.675 9.551C17.792 9.434 17.942 9.375 18.124 9.375H19.374C19.557 9.375 19.706 9.434 19.823 9.551Z"/>
</svg>
