<svg width="20" height="19" viewBox="0 0 20 19" fill="currentColor" xmlns="http://www.w3.org/2000/svg">
<path d="M16.815 5.686C17.753 5.908 18.517 6.389 19.11 7.131C19.702 7.873 19.999 8.726 19.999 9.69C19.999 10.211 19.907 10.703 19.726 11.165C19.543 11.627 19.287 12.041 18.955 12.405C18.623 12.769 18.232 13.069 17.783 13.303C17.334 13.537 16.842 13.687 16.308 13.752H16.249C16.093 13.752 15.956 13.696 15.839 13.586C15.722 13.476 15.65 13.342 15.624 13.186C15.624 13.03 15.679 12.883 15.79 12.747C15.9 12.61 16.034 12.529 16.19 12.503C16.906 12.438 17.511 12.132 18.006 11.585C18.5 11.038 18.748 10.406 18.748 9.69C18.748 8.974 18.5 8.349 18.006 7.815C17.511 7.281 16.905 6.968 16.19 6.877C16.034 6.851 15.9 6.789 15.79 6.691C15.679 6.593 15.624 6.466 15.624 6.31C15.559 5.594 15.366 4.926 15.048 4.308C14.729 3.69 14.319 3.156 13.818 2.706C13.316 2.257 12.737 1.902 12.08 1.642C11.422 1.381 10.728 1.251 10 1.251C9.375 1.251 8.779 1.349 8.212 1.544C7.645 1.739 7.128 2.013 6.659 2.364C6.19 2.715 5.78 3.135 5.429 3.624C5.078 4.113 4.81 4.656 4.628 5.255C4.563 5.372 4.484 5.467 4.394 5.538C4.303 5.609 4.211 5.658 4.121 5.684C3.313 5.814 2.633 6.199 2.08 6.836C1.526 7.474 1.25 8.216 1.25 9.063C1.25 9.974 1.556 10.752 2.168 11.397C2.78 12.042 3.535 12.41 4.434 12.501C4.59 12.527 4.73 12.608 4.854 12.745C4.978 12.882 5.026 13.028 5 13.184C4.974 13.34 4.899 13.474 4.775 13.584C4.651 13.694 4.498 13.75 4.316 13.75C3.704 13.685 3.134 13.519 2.607 13.252C2.08 12.985 1.624 12.644 1.24 12.227C0.856 11.81 0.553 11.331 0.332 10.791C0.11 10.251 0 9.675 0 9.062C0 8.528 0.0879999 8.017 0.264 7.529C0.44 7.041 0.684 6.594 0.996 6.191C1.308 5.788 1.68 5.439 2.109 5.146C2.538 4.853 3.001 4.635 3.496 4.492C3.769 3.828 4.124 3.22 4.56 2.666C4.996 2.112 5.498 1.638 6.064 1.24C6.63 0.842 7.249 0.537 7.919 0.322C8.589 0.107 9.283 0 10 0C10.859 0 11.67 0.143999 12.432 0.429999C13.194 0.715999 13.877 1.114 14.483 1.621C15.089 2.128 15.592 2.731 15.997 3.428C16.398 4.126 16.672 4.878 16.815 5.686ZM10.995 8.869C11.125 8.973 11.206 9.106 11.239 9.269C11.271 9.432 11.255 9.591 11.19 9.748L9.315 12.502H11.874C12.004 12.502 12.114 12.531 12.206 12.59C12.297 12.649 12.375 12.724 12.44 12.815C12.504 12.906 12.538 13.01 12.538 13.128C12.538 13.246 12.505 13.35 12.44 13.441L9.94 17.816C9.875 17.907 9.787 17.982 9.676 18.041C9.565 18.1 9.464 18.129 9.373 18.129C9.308 18.129 9.259 18.126 9.227 18.119C9.194 18.112 9.178 18.097 9.178 18.07C9.022 17.979 8.917 17.848 8.865 17.679C8.813 17.51 8.839 17.347 8.943 17.191L10.877 13.753H8.181C8.064 13.753 7.956 13.724 7.859 13.665C7.762 13.606 7.68 13.531 7.615 13.44C7.563 13.349 7.537 13.245 7.537 13.127C7.537 13.009 7.563 12.905 7.615 12.814L10.115 9.064C10.219 8.908 10.352 8.813 10.515 8.781C10.679 8.749 10.839 8.778 10.995 8.869Z"/>
</svg>
