<svg width="20" height="20" viewBox="0 0 20 20" fill="currentColor" xmlns="http://www.w3.org/2000/svg">
<path d="M19.209 9.834C19.736 10.53 20 11.315 20 12.188C20 12.748 19.893 13.275 19.678 13.77C19.463 14.265 19.173 14.695 18.809 15.059C18.444 15.423 18.014 15.713 17.52 15.928C17.025 16.143 16.498 16.25 15.938 16.25H14.375C14.192 16.25 14.043 16.191 13.926 16.074C13.809 15.957 13.75 15.807 13.75 15.625C13.75 15.443 13.809 15.293 13.926 15.176C14.043 15.059 14.193 15 14.375 15H15.938C16.719 15 17.383 14.727 17.93 14.18C18.477 13.633 18.75 12.969 18.75 12.188C18.75 11.407 18.477 10.743 17.93 10.196C17.383 9.649 16.719 9.376 15.938 9.376C15.625 9.376 15.338 9.422 15.079 9.513C14.818 9.604 14.564 9.728 14.317 9.884C14.225 9.91 14.131 9.933 14.034 9.952C13.937 9.971 13.842 9.969 13.751 9.942C13.659 9.903 13.581 9.854 13.517 9.796C13.452 9.737 13.406 9.662 13.38 9.571C13.132 8.751 12.653 8.087 11.944 7.579C11.234 7.071 10.443 6.817 9.57 6.817C8.789 6.817 8.056 7.035 7.373 7.471C6.69 7.907 6.191 8.503 5.879 9.258C5.814 9.414 5.7 9.519 5.537 9.571C5.374 9.623 5.215 9.623 5.058 9.571C4.902 9.506 4.736 9.457 4.56 9.425C4.384 9.393 4.218 9.376 4.062 9.376C3.281 9.376 2.617 9.649 2.07 10.196C1.523 10.743 1.25 11.407 1.25 12.188C1.25 12.969 1.523 13.633 2.07 14.18C2.617 14.727 3.281 15 4.062 15H5.625C5.807 15 5.957 15.059 6.074 15.176C6.191 15.293 6.25 15.443 6.25 15.625C6.25 15.807 6.191 15.957 6.074 16.074C5.957 16.191 5.807 16.25 5.625 16.25H4.062C3.502 16.25 2.975 16.143 2.48 15.928C1.985 15.713 1.555 15.423 1.191 15.059C0.826 14.695 0.537001 14.265 0.322001 13.77C0.107 13.275 0 12.748 0 12.188C0 11.641 0.104001 11.126 0.313001 10.645C0.521001 10.164 0.808 9.74 1.172 9.375C1.536 9.011 1.963 8.721 2.451 8.506C2.939 8.291 3.457 8.184 4.004 8.184C4.16 8.184 4.317 8.197 4.473 8.223C4.629 8.249 4.786 8.282 4.942 8.321C5.345 7.592 5.899 6.993 6.602 6.524C7.305 6.055 8.06 5.775 8.868 5.684C9.154 4.746 9.685 3.982 10.46 3.389C11.234 2.796 12.123 2.5 13.126 2.5C13.737 2.5 14.311 2.614 14.845 2.842C15.378 3.07 15.841 3.382 16.232 3.78C16.623 4.178 16.931 4.639 17.16 5.167C17.388 5.694 17.502 6.264 17.502 6.876C17.502 7.123 17.482 7.374 17.443 7.628C17.404 7.882 17.339 8.133 17.248 8.38C18.027 8.652 18.682 9.138 19.209 9.834ZM8.242 1.992C8.372 1.875 8.522 1.816 8.691 1.816C8.86 1.816 9.004 1.875 9.121 1.992L9.57 2.441C9.688 2.558 9.746 2.702 9.746 2.871C9.746 3.04 9.687 3.19 9.57 3.32C9.505 3.372 9.43 3.415 9.345 3.447C9.26 3.479 9.185 3.496 9.12 3.496C9.055 3.496 8.983 3.479 8.905 3.447C8.827 3.415 8.755 3.372 8.69 3.32L8.241 2.871C8.124 2.754 8.065 2.61 8.065 2.441C8.065 2.272 8.124 2.122 8.242 1.992ZM10.937 11.934C11.093 12.025 11.191 12.156 11.23 12.325C11.269 12.494 11.255 12.657 11.191 12.813L9.882 15.001H11.249C11.379 15.001 11.489 15.03 11.581 15.089C11.672 15.148 11.75 15.223 11.815 15.314C11.879 15.405 11.913 15.509 11.913 15.627C11.913 15.745 11.88 15.849 11.815 15.94L9.94 19.065C9.875 19.156 9.787 19.231 9.676 19.29C9.565 19.349 9.464 19.378 9.373 19.378C9.308 19.378 9.246 19.371 9.187 19.358C9.128 19.345 9.066 19.312 9.001 19.26C8.871 19.156 8.783 19.023 8.737 18.86C8.691 18.697 8.714 18.538 8.805 18.381L10.114 16.193H8.746C8.616 16.193 8.505 16.164 8.414 16.105C8.323 16.046 8.245 15.971 8.18 15.88C8.115 15.789 8.082 15.685 8.082 15.567C8.082 15.449 8.114 15.345 8.18 15.254L10.055 12.129C10.146 11.999 10.276 11.911 10.446 11.865C10.618 11.819 10.781 11.843 10.937 11.934ZM15.098 8.281C15.371 8.216 15.651 8.183 15.938 8.183C16.029 7.961 16.104 7.744 16.163 7.529C16.222 7.314 16.251 7.096 16.251 6.875C16.251 6.003 15.948 5.264 15.343 4.658C14.738 4.052 13.998 3.75 13.126 3.75C12.501 3.75 11.921 3.933 11.388 4.297C10.854 4.661 10.476 5.124 10.255 5.684C11.127 5.814 11.921 6.13 12.638 6.631C13.354 7.132 13.913 7.774 14.318 8.555C14.563 8.438 14.824 8.347 15.098 8.281ZM12.676 0.176C12.793 0.0589996 12.943 0 13.125 0C13.307 0 13.457 0.0589996 13.574 0.176C13.691 0.293 13.75 0.443 13.75 0.625V1.25C13.75 1.433 13.691 1.582 13.574 1.699C13.457 1.816 13.306 1.875 13.125 1.875C12.942 1.875 12.793 1.816 12.676 1.699C12.559 1.582 12.5 1.432 12.5 1.25V0.625C12.5 0.442 12.559 0.293 12.676 0.176ZM17.559 3.32C17.494 3.372 17.422 3.415 17.344 3.447C17.266 3.479 17.194 3.496 17.129 3.496C17.064 3.496 16.988 3.479 16.904 3.447C16.819 3.415 16.744 3.372 16.679 3.32C16.562 3.19 16.503 3.04 16.503 2.871C16.503 2.702 16.562 2.558 16.679 2.441L17.128 1.992C17.245 1.875 17.388 1.816 17.558 1.816C17.727 1.816 17.876 1.875 18.007 1.992C18.124 2.122 18.183 2.272 18.183 2.441C18.183 2.61 18.124 2.754 18.007 2.871L17.559 3.32ZM19.824 6.426C19.941 6.543 20 6.693 20 6.875C20 7.057 19.941 7.207 19.824 7.324C19.707 7.441 19.556 7.5 19.375 7.5H18.75C18.567 7.5 18.418 7.441 18.301 7.324C18.184 7.207 18.125 7.057 18.125 6.875C18.125 6.693 18.184 6.543 18.301 6.426C18.418 6.309 18.568 6.25 18.75 6.25H19.375C19.557 6.25 19.707 6.309 19.824 6.426Z"/>
</svg>
