<svg width="20" height="20" viewBox="0 0 20 20" fill="currentColor" xmlns="http://www.w3.org/2000/svg">
<path transform="translate(9.187491416931152,13.249987602233887) scale(0.800000011920929) " d="m5.82006,7.306236c0.026576,0.004761 0.06133,0.006801 0.106306,0.006801c0.06133,0 0.130156,-0.019725 0.206478,-0.059855c0.074278,-0.04013 0.134245,-0.090463 0.179902,-0.153039c0.06133,-0.106107 0.074277,-0.216975 0.040205,-0.331924c-0.036117,-0.114949 -0.106306,-0.203372 -0.213293,-0.265948l-0.811602,-0.425108l0.851808,-0.465238c0.087906,-0.061895 0.147874,-0.150318 0.179902,-0.265947c0.030665,-0.114949 0.01431,-0.225817 -0.046339,-0.331924c-0.071552,-0.106107 -0.162184,-0.172764 -0.272578,-0.199291c-0.111758,-0.026527 -0.219426,-0.017685 -0.326413,0.026527l-0.851808,0.465238l0,-0.929796c0,-0.123792 -0.040205,-0.225818 -0.119935,-0.305398c-0.079729,-0.07958 -0.183309,-0.11971 -0.307332,-0.11971c-0.132882,0 -0.238506,0.04013 -0.312784,0.11971c-0.07564,0.07958 -0.11312,0.181606 -0.11312,0.305398l0,0.982849l-0.851808,-0.478161c-0.106305,-0.061896 -0.218063,-0.074819 -0.332545,-0.04013c-0.115846,0.036049 -0.205116,0.106787 -0.266446,0.212894c-0.062693,0.106107 -0.075641,0.216975 -0.040205,0.331924c0.034753,0.114949 0.106305,0.204052 0.213292,0.265948l0.851808,0.465238l-0.851808,0.465238c-0.106305,0.070738 -0.173087,0.161881 -0.199663,0.272069c-0.026577,0.110868 -0.018399,0.219015 0.026576,0.325803c0.043613,0.061895 0.097447,0.112908 0.159458,0.153038c0.061331,0.040131 0.136971,0.059856 0.226241,0.059856c0.043612,0 0.079729,-0.002041 0.106305,-0.006802c0.026577,-0.004081 0.06133,-0.014964 0.106306,-0.033329l0.851808,-0.465238l0,0.890346c0,0.123792 0.037479,0.225818 0.11312,0.305398c0.074277,0.07958 0.179902,0.11971 0.312784,0.11971c0.124023,0 0.22624,-0.04013 0.305969,-0.11971c0.079729,-0.07958 0.119935,-0.181606 0.119935,-0.305398l0,-0.982849l0.851808,0.478161c0.044975,0.017005 0.081092,0.027887 0.107668,0.032649z"/>
<path transform="translate(7.5,15.5) scale(0.800000011920929) " d="m5,0.298613c0,-0.117 -0.033,-0.221 -0.098,-0.313c-0.065,-0.091 -0.144,-0.166 -0.234,-0.225c-0.092,-0.059 -0.202,-0.088 -0.332,-0.088l-2.559,0l1.875,-2.753999c0.064,-0.156 0.081,-0.314998 0.049,-0.478998c-0.033,-0.163 -0.114,-0.296001 -0.244,-0.400001c-0.156,-0.091 -0.316,-0.12 -0.479,-0.088c-0.163,0.033 -0.297,0.126999 -0.4,0.282999l-2.5,3.749999c-0.053,0.091 -0.078,0.195 -0.078,0.313c0,0.118 0.025,0.222 0.078,0.313c0.064,0.091 0.146001,0.166 0.244001,0.225c0.098,0.059 0.204999,0.088 0.321999,0.088l2.695,0l-1.934,3.438c-0.104,0.156 -0.131,0.319 -0.078,0.488c0.052,0.169 0.156,0.3 0.313,0.391c0,0.026 0.016,0.042 0.049,0.049c0.032,0.007 0.081,0.01 0.146,0.01c0.091,0 0.191,-0.029 0.303,-0.088c0.11,-0.059 0.198,-0.133 0.264,-0.225l2.5,-4.375c0.065,-0.091 0.098,-0.195 0.098,-0.313z"/>
<path d="m19.209,9.834c0.527,0.696 0.791,1.481 0.791,2.354c0,0.56 -0.107,1.087 -0.322,1.582c-0.215,0.495 -0.505,0.925 -0.869,1.289c-0.365,0.364 -0.795,0.654 -1.289,0.869c-0.495,0.215 -1.022,0.322 -1.582,0.322l-1.563,0c-0.183,0 -0.332,-0.059 -0.449,-0.176c-0.117,-0.117 -0.176,-0.267 -0.176,-0.449c0,-0.182 0.059,-0.332 0.176,-0.449c0.117,-0.117 0.267,-0.176 0.449,-0.176l1.563,0c0.781,0 1.445,-0.273 1.992,-0.82c0.547,-0.547 0.82,-1.211 0.82,-1.992c0,-0.781 -0.273,-1.445 -0.82,-1.992c-0.547,-0.547 -1.211,-0.82 -1.992,-0.82c-0.313,0 -0.6,0.046 -0.859,0.137c-0.261,0.091 -0.515,0.215 -0.762,0.371c-0.092,0.026 -0.186,0.049 -0.283,0.068c-0.097,0.019 -0.192,0.017 -0.283,-0.01c-0.092,-0.039 -0.17,-0.088 -0.234,-0.146c-0.065,-0.059 -0.111,-0.134 -0.137,-0.225c-0.248,-0.82 -0.727,-1.484 -1.436,-1.992c-0.71,-0.508 -1.501,-0.762 -2.374,-0.762c-0.781,0 -1.514,0.218 -2.197,0.654c-0.683,0.436 -1.182,1.032 -1.494,1.787c-0.065,0.156 -0.179,0.261 -0.342,0.313c-0.163,0.052 -0.322,0.052 -0.479,0c-0.156,-0.065 -0.322,-0.114 -0.498,-0.146c-0.176,-0.032 -0.342,-0.049 -0.498,-0.049c-0.781,0 -1.445,0.273 -1.992,0.82c-0.547,0.547 -0.82,1.211 -0.82,1.992c0,0.781 0.273,1.445 0.82,1.992c0.547,0.547 1.211,0.82 1.992,0.82l1.563,0c0.182,0 0.332,0.059 0.449,0.176c0.117,0.117 0.176,0.267 0.176,0.449c0,0.182 -0.059,0.332 -0.176,0.449c-0.117,0.117 -0.267,0.176 -0.449,0.176l-1.563,0c-0.56,0 -1.087,-0.107 -1.582,-0.322c-0.495,-0.215 -0.925,-0.505 -1.289,-0.869c-0.365,-0.364 -0.654,-0.794 -0.869,-1.289c-0.215,-0.495 -0.322,-1.022 -0.322,-1.582c0,-0.547 0.104,-1.062 0.313,-1.543c0.208,-0.481 0.495,-0.905 0.859,-1.27c0.364,-0.364 0.791,-0.654 1.279,-0.869c0.488,-0.215 1.006,-0.322 1.553,-0.322c0.156,0 0.313,0.013 0.469,0.039c0.156,0.026 0.313,0.059 0.469,0.098c0.403,-0.729 0.957,-1.328 1.66,-1.797c0.703,-0.469 1.458,-0.749 2.266,-0.84c0.286,-0.938 0.817,-1.702 1.592,-2.295c0.774,-0.593 1.663,-0.889 2.666,-0.889c0.611,0 1.185,0.114 1.719,0.342c0.533,0.228 0.996,0.54 1.387,0.938c0.391,0.398 0.699,0.859 0.928,1.387c0.228,0.527 0.342,1.097 0.342,1.709c0,0.247 -0.02,0.498 -0.059,0.752c-0.039,0.254 -0.104,0.505 -0.195,0.752c0.779,0.272 1.434,0.758 1.961,1.454zm-10.967,-7.842c0.13,-0.117 0.28,-0.176 0.449,-0.176c0.169,0 0.313,0.059 0.43,0.176l0.449,0.449c0.118,0.117 0.176,0.261 0.176,0.43c0,0.169 -0.059,0.319 -0.176,0.449c-0.065,0.052 -0.14,0.095 -0.225,0.127c-0.085,0.032 -0.16,0.049 -0.225,0.049c-0.065,0 -0.137,-0.017 -0.215,-0.049c-0.078,-0.032 -0.15,-0.075 -0.215,-0.127l-0.449,-0.449c-0.117,-0.117 -0.176,-0.261 -0.176,-0.43c0,-0.169 0.059,-0.319 0.177,-0.449zm6.856,6.289c0.273,-0.065 0.553,-0.098 0.84,-0.098c0.091,-0.222 0.166,-0.439 0.225,-0.654c0.059,-0.215 0.088,-0.433 0.088,-0.654c0,-0.872 -0.303,-1.611 -0.908,-2.217c-0.605,-0.606 -1.345,-0.908 -2.217,-0.908c-0.625,0 -1.205,0.183 -1.738,0.547c-0.534,0.364 -0.912,0.827 -1.133,1.387c0.872,0.13 1.666,0.446 2.383,0.947c0.716,0.501 1.275,1.143 1.68,1.924c0.245,-0.117 0.506,-0.208 0.78,-0.274zm-2.422,-8.105c0.117,-0.117 0.267,-0.176 0.449,-0.176c0.182,0 0.332,0.059 0.449,0.176c0.117,0.117 0.176,0.267 0.176,0.449l0,0.625c0,0.183 -0.059,0.332 -0.176,0.449c-0.117,0.117 -0.268,0.176 -0.449,0.176c-0.183,0 -0.332,-0.059 -0.449,-0.176c-0.117,-0.117 -0.176,-0.267 -0.176,-0.449l0,-0.625c0,-0.183 0.059,-0.332 0.176,-0.449zm4.883,3.144c-0.065,0.052 -0.137,0.095 -0.215,0.127c-0.078,0.032 -0.15,0.049 -0.215,0.049c-0.065,0 -0.141,-0.017 -0.225,-0.049c-0.085,-0.032 -0.16,-0.075 -0.225,-0.127c-0.117,-0.13 -0.176,-0.28 -0.176,-0.449c0,-0.169 0.059,-0.313 0.176,-0.43l0.449,-0.449c0.117,-0.117 0.26,-0.176 0.43,-0.176c0.169,0 0.318,0.059 0.449,0.176c0.117,0.13 0.176,0.28 0.176,0.449c0,0.169 -0.059,0.313 -0.176,0.43l-0.448,0.449zm2.265,3.106c0.117,0.117 0.176,0.267 0.176,0.449c0,0.182 -0.059,0.332 -0.176,0.449c-0.117,0.117 -0.268,0.176 -0.449,0.176l-0.625,0c-0.183,0 -0.332,-0.059 -0.449,-0.176c-0.117,-0.117 -0.176,-0.267 -0.176,-0.449c0,-0.182 0.059,-0.332 0.176,-0.449c0.117,-0.117 0.267,-0.176 0.449,-0.176l0.625,0c0.182,0 0.332,0.059 0.449,0.176z"/>
</svg>