<svg width="20" height="19" viewBox="0 0 20 19" fill="currentColor" xmlns="http://www.w3.org/2000/svg">
<path d="M4.87347 4.932C4.91247 4.939 4.96347 4.942 5.02947 4.942C5.11947 4.942 5.22047 4.913 5.33247 4.854C5.44147 4.795 5.52947 4.721 5.59647 4.629C5.68647 4.473 5.70547 4.31 5.65547 4.141C5.60247 3.972 5.49947 3.842 5.34247 3.75L4.15147 3.125L5.40147 2.441C5.53047 2.35 5.61847 2.22 5.66547 2.05C5.71047 1.881 5.68647 1.718 5.59747 1.562C5.49247 1.406 5.35947 1.308 5.19747 1.269C5.03347 1.23 4.87547 1.243 4.71847 1.308L3.46847 1.992V0.625C3.46847 0.443 3.40947 0.293 3.29247 0.176C3.17547 0.0589996 3.02347 0 2.84147 0C2.64647 0 2.49147 0.0589996 2.38247 0.176C2.27147 0.293 2.21647 0.443 2.21647 0.625V2.07L0.966466 1.367C0.810466 1.276 0.646466 1.257 0.478466 1.308C0.308466 1.361 0.177466 1.465 0.0874659 1.621C-0.00453407 1.777 -0.0235341 1.94 0.0284659 2.109C0.0794659 2.278 0.184466 2.409 0.341466 2.5L1.59147 3.184L0.341466 3.868C0.185466 3.972 0.0874659 4.106 0.0484659 4.268C0.0094659 4.431 0.0214659 4.59 0.0874659 4.747C0.151466 4.838 0.230466 4.913 0.321466 4.972C0.411466 5.031 0.522466 5.06 0.653466 5.06C0.717466 5.06 0.770466 5.057 0.809466 5.05C0.848466 5.044 0.899466 5.028 0.965466 5.001L2.21547 4.317V5.626C2.21547 5.808 2.27047 5.958 2.38147 6.075C2.49047 6.192 2.64547 6.251 2.84047 6.251C3.02247 6.251 3.17247 6.192 3.28947 6.075C3.40647 5.958 3.46547 5.808 3.46547 5.626V4.181L4.71547 4.884C4.78147 4.909 4.83447 4.925 4.87347 4.932Z" transform="scale(0.8) translate(13.5 13.4461)"/>
<path d="M5 4.35957C5 4.24257 4.967 4.13857 4.902 4.04657C4.837 3.95557 4.758 3.88057 4.668 3.82157C4.576 3.76257 4.466 3.73357 4.336 3.73357H1.777L3.652 0.979571C3.716 0.823571 3.733 0.664573 3.701 0.500573C3.668 0.337573 3.587 0.204572 3.457 0.100572C3.301 0.00957163 3.141 -0.0194277 2.978 0.0125723C2.815 0.0455723 2.681 0.139571 2.578 0.295571L0.0780001 4.04557C0.0250001 4.13657 0 4.24057 0 4.35857C0 4.47657 0.0250001 4.58057 0.0780001 4.67157C0.142 4.76257 0.224001 4.83757 0.322001 4.89657C0.420001 4.95557 0.527 4.98457 0.644 4.98457H3.339L1.405 8.42257C1.301 8.57857 1.274 8.74157 1.327 8.91057C1.379 9.07957 1.483 9.21057 1.64 9.30157C1.64 9.32757 1.656 9.34357 1.689 9.35057C1.721 9.35757 1.77 9.36057 1.835 9.36057C1.926 9.36057 2.026 9.33157 2.138 9.27257C2.248 9.21357 2.336 9.13957 2.402 9.04757L4.902 4.67257C4.967 4.58157 5 4.47757 5 4.35957Z" transform="translate(5.539 8.76543)"/>
<path d="M19.111 7.129C18.518 6.387 17.754 5.905 16.816 5.684C16.672 4.877 16.399 4.125 15.996 3.428C15.592 2.732 15.088 2.129 14.482 1.621C13.876 1.113 13.193 0.715999 12.431 0.429999C11.669 0.143999 10.859 0 9.999 0C9.282 0 8.589 0.107 7.919 0.322C7.248 0.537 6.63 0.843 6.064 1.24C5.498 1.637 4.996 2.113 4.56 2.666C4.123 3.22 3.769 3.828 3.496 4.492C3.001 4.636 2.539 4.853 2.109 5.146C1.679 5.439 1.308 5.788 0.995999 6.191C0.683999 6.596 0.439 7.042 0.264 7.53C0.0889999 8.018 0 8.53 0 9.063C0 9.675 0.11 10.251 0.332 10.792C0.553 11.333 0.855 11.811 1.24 12.228C1.624 12.645 2.08 12.987 2.607 13.253C3.134 13.52 3.704 13.686 4.316 13.751C4.498 13.751 4.651 13.696 4.775 13.585C4.898 13.475 4.973 13.341 5 13.185C5.025 13.029 4.977 12.882 4.854 12.746C4.73 12.609 4.59 12.528 4.434 12.502C3.536 12.411 2.78 12.043 2.168 11.398C1.556 10.753 1.25 9.976 1.25 9.064C1.25 8.218 1.526 7.476 2.08 6.837C2.633 6.199 3.313 5.815 4.121 5.685C4.212 5.659 4.303 5.61 4.394 5.539C4.485 5.468 4.563 5.373 4.628 5.256C4.81 4.657 5.077 4.113 5.429 3.625C5.781 3.137 6.191 2.717 6.659 2.365C7.128 2.013 7.645 1.74 8.212 1.545C8.779 1.35 9.374 1.252 9.999 1.252C10.728 1.252 11.421 1.382 12.079 1.643C12.736 1.904 13.315 2.258 13.817 2.707C14.318 3.156 14.728 3.69 15.047 4.309C15.365 4.928 15.558 5.595 15.623 6.311C15.623 6.467 15.678 6.594 15.789 6.692C15.899 6.79 16.033 6.852 16.189 6.878C16.905 6.969 17.51 7.282 18.005 7.816C18.499 8.35 18.747 8.975 18.747 9.691C18.747 10.407 18.499 11.039 18.005 11.586C17.51 12.133 16.904 12.439 16.189 12.504C16.033 12.53 15.899 12.611 15.789 12.748C15.678 12.885 15.623 13.031 15.623 13.187C15.648 13.343 15.721 13.477 15.838 13.587C15.955 13.698 16.092 13.753 16.248 13.753H16.307C16.84 13.688 17.332 13.538 17.782 13.304C18.232 13.07 18.622 12.77 18.954 12.406C19.286 12.042 19.543 11.628 19.725 11.166C19.907 10.704 19.998 10.212 19.998 9.691C20 8.725 19.703 7.872 19.111 7.129Z"/>
</svg>
