<svg width="25" height="23" viewBox="0 0 25 23" fill="currentColor" xmlns="http://www.w3.org/2000/svg">
<path d="M9.57 2.071C9.687 1.941 9.83 1.876 10 1.876C10.17 1.876 10.313 1.941 10.43 2.071C10.56 2.188 10.625 2.332 10.625 2.501C10.625 2.67 10.56 2.814 10.43 2.931L1.055 12.306C1.003 12.371 0.941 12.42 0.869 12.452C0.797 12.484 0.716 12.501 0.625 12.501C0.534 12.501 0.452001 12.484 0.381001 12.452C0.309001 12.42 0.247001 12.371 0.195001 12.306C0.0650007 12.189 0 12.045 0 11.876C0 11.707 0.0650007 11.563 0.195001 11.446L9.57 2.071ZM18.75 0.625C18.75 0.794 18.685 0.937999 18.555 1.055L9.18 10.43C9.128 10.495 9.059 10.544 8.975 10.576C8.89 10.608 8.815 10.625 8.75 10.625C8.685 10.625 8.61 10.608 8.525 10.576C8.44 10.544 8.372 10.495 8.32 10.43C8.19 10.313 8.125 10.169 8.125 10C8.125 9.831 8.19 9.687 8.32 9.57L17.695 0.195C17.812 0.0649997 17.955 0 18.125 0C18.294 0 18.438 0.0649997 18.555 0.195C18.685 0.313 18.75 0.457 18.75 0.625ZM17.695 6.446C17.812 6.316 17.955 6.251 18.125 6.251C18.294 6.251 18.438 6.316 18.555 6.446C18.685 6.563 18.75 6.707 18.75 6.876C18.75 7.045 18.685 7.189 18.555 7.306L9.18 16.681C9.128 16.746 9.059 16.795 8.975 16.827C8.89 16.859 8.815 16.876 8.75 16.876C8.685 16.876 8.61 16.859 8.525 16.827C8.44 16.795 8.372 16.746 8.32 16.681C8.19 16.564 8.125 16.42 8.125 16.251C8.125 16.082 8.19 15.938 8.32 15.821L17.695 6.446Z" transform="translate(1.71246 2.83)"/>
<path d="M5.66347 2.05C5.70847 1.881 5.68447 1.718 5.59547 1.562C5.49047 1.406 5.35747 1.308 5.19547 1.269C5.03147 1.23 4.87347 1.243 4.71647 1.308L3.46647 1.992V0.625C3.46647 0.443 3.40747 0.293 3.29047 0.176C3.17347 0.0589996 3.02247 0 2.84147 0C2.64647 0 2.49147 0.0589996 2.38247 0.176C2.27147 0.293 2.21647 0.443 2.21647 0.625V2.07L0.966467 1.367C0.810467 1.276 0.646467 1.257 0.478467 1.308C0.308467 1.36 0.177466 1.464 0.0874659 1.621C-0.00453407 1.777 -0.0235341 1.94 0.0284659 2.109C0.0794659 2.278 0.184467 2.409 0.341467 2.5L1.59147 3.184L0.341467 3.868C0.185467 3.972 0.0874664 4.106 0.0484664 4.268C0.00946637 4.431 0.0214659 4.59 0.0874659 4.747C0.151466 4.838 0.230466 4.913 0.321466 4.972C0.411466 5.031 0.522466 5.06 0.653466 5.06C0.717466 5.06 0.770466 5.057 0.809466 5.05C0.848466 5.044 0.899466 5.028 0.965466 5.001L2.21547 4.317V5.626C2.21547 5.808 2.27047 5.958 2.38147 6.075C2.49047 6.192 2.64547 6.251 2.84047 6.251C3.02247 6.251 3.17247 6.192 3.28947 6.075C3.40647 5.958 3.46547 5.808 3.46547 5.626V4.181L4.71547 4.884C4.77947 4.91 4.83247 4.926 4.87147 4.933C4.91047 4.94 4.96147 4.943 5.02747 4.943C5.11747 4.943 5.21847 4.914 5.33047 4.855C5.43947 4.796 5.52747 4.722 5.59447 4.63C5.68447 4.474 5.70347 4.311 5.65347 4.142C5.60047 3.973 5.49747 3.843 5.34047 3.751L4.14947 3.126L5.39947 2.442C5.52847 2.35 5.61647 2.219 5.66347 2.05Z"/>
<path d="M5.34047 3.75L4.14947 3.125L5.39947 2.441C5.52847 2.35 5.61647 2.22 5.66347 2.05C5.70847 1.881 5.68447 1.718 5.59547 1.562C5.49047 1.406 5.35747 1.308 5.19547 1.269C5.03147 1.23 4.87347 1.243 4.71647 1.308L3.46647 1.992V0.625C3.46647 0.443 3.40747 0.292999 3.29047 0.175999C3.17347 0.0589987 3.02247 0 2.84147 0C2.64647 0 2.49147 0.0589987 2.38247 0.175999C2.27147 0.292999 2.21647 0.443 2.21647 0.625V2.07L0.966468 1.367C0.810468 1.276 0.646467 1.257 0.478467 1.308C0.308467 1.36 0.177466 1.464 0.0874659 1.621C-0.00453407 1.777 -0.0235341 1.94 0.0284659 2.109C0.0794659 2.278 0.184468 2.409 0.341468 2.5L1.59147 3.184L0.341468 3.868C0.185468 3.972 0.0874664 4.106 0.0484664 4.268C0.00946637 4.431 0.0214659 4.59 0.0874659 4.747C0.151466 4.838 0.230467 4.913 0.321467 4.972C0.411467 5.031 0.522466 5.06 0.653466 5.06C0.717466 5.06 0.770466 5.057 0.809466 5.05C0.848466 5.044 0.899466 5.028 0.965466 5.001L2.21547 4.317V5.626C2.21547 5.808 2.27047 5.958 2.38147 6.075C2.49047 6.192 2.64547 6.251 2.84047 6.251C3.02247 6.251 3.17247 6.192 3.28947 6.075C3.40647 5.958 3.46547 5.808 3.46547 5.626V4.181L4.71547 4.884C4.77947 4.91 4.83247 4.926 4.87147 4.933C4.91047 4.94 4.96147 4.943 5.02747 4.943C5.11747 4.943 5.21847 4.914 5.33047 4.855C5.43947 4.796 5.52747 4.722 5.59447 4.63C5.68447 4.474 5.70347 4.311 5.65347 4.142C5.60047 3.971 5.49647 3.841 5.34047 3.75Z" transform="translate(18.501 16.187)"/>
</svg>
