<svg width="25" height="23" viewBox="0 0 25 23" fill="currentColor" xmlns="http://www.w3.org/2000/svg">
<path d="M1.25 0C1.081 0 0.937 0.0649997 0.82 0.195L0.195 0.82C0.0649997 0.937 0 1.081 0 1.25C0 1.419 0.0649997 1.563 0.195 1.68C0.247 1.745 0.315 1.794 0.4 1.826C0.484 1.859 0.559 1.875 0.625 1.875C0.69 1.875 0.765 1.859 0.85 1.826C0.934 1.794 1.003 1.745 1.055 1.68L1.68 1.055C1.81 0.938 1.875 0.795 1.875 0.625C1.875 0.456 1.81 0.312 1.68 0.195C1.562 0.0659997 1.418 0 1.25 0Z" transform="translate(9.59344 18.718)"/>
<path d="M1.25 0C1.081 0 0.937 0.0649997 0.82 0.195L0.195 0.82C0.0649997 0.937 0 1.081 0 1.25C0 1.419 0.0649997 1.563 0.195 1.68C0.247 1.745 0.315 1.794 0.4 1.826C0.484 1.859 0.559 1.875 0.625 1.875C0.69 1.875 0.765 1.859 0.85 1.826C0.934 1.794 1.003 1.745 1.055 1.68L1.68 1.055C1.81 0.938 1.875 0.795 1.875 0.625C1.875 0.456 1.81 0.312 1.68 0.195C1.562 0.0659997 1.418 0 1.25 0Z" transform="translate(9.59344 12.468)"/>
<path d="M1.25 0C1.081 0 0.937001 0.0649997 0.820001 0.195L0.195001 0.82C0.0650007 0.937 0 1.081 0 1.25C0 1.419 0.0650007 1.563 0.195001 1.68C0.247001 1.745 0.309001 1.794 0.381001 1.826C0.452001 1.859 0.534 1.875 0.625 1.875C0.716 1.875 0.797 1.859 0.869 1.826C0.94 1.794 1.002 1.745 1.055 1.68L1.68 1.055C1.81 0.938 1.875 0.795 1.875 0.625C1.875 0.456 1.81 0.312 1.68 0.195C1.562 0.0659997 1.418 0 1.25 0Z" transform="translate(1.46844 14.343)"/>
<path d="M0.4 7.451C0.484 7.484 0.559 7.5 0.625 7.5C0.69 7.5 0.765 7.484 0.85 7.451C0.934 7.419 1.003 7.37 1.055 7.305L7.305 1.055C7.435 0.938 7.5 0.795 7.5 0.625C7.5 0.456 7.435 0.312001 7.305 0.195001C7.188 0.0650007 7.044 0 6.875 0C6.706 0 6.562 0.0650007 6.445 0.195001L0.195 6.445C0.0649997 6.562 0 6.706 0 6.875C0 7.044 0.0649997 7.188 0.195 7.305C0.247 7.37 0.315 7.418 0.4 7.451Z" transform="translate(12.7184 3.71899)"/>
<path d="M7.5 0.625C7.5 0.456 7.435 0.312 7.305 0.195C7.188 0.0649997 7.044 0 6.875 0C6.706 0 6.562 0.0649997 6.445 0.195L0.195 6.445C0.0649997 6.562 0 6.706 0 6.875C0 7.044 0.0649997 7.188 0.195 7.305C0.247 7.37 0.315 7.419 0.4 7.451C0.484 7.484 0.559 7.5 0.625 7.5C0.69 7.5 0.765 7.484 0.85 7.451C0.934 7.419 1.003 7.37 1.055 7.305L7.305 1.055C7.434 0.938 7.5 0.795 7.5 0.625Z" transform="translate(12.7184 9.96799)"/>
<path d="M6.875 0C6.706 0 6.562 0.0649997 6.445 0.195L0.195001 6.445C0.0650007 6.562 0 6.706 0 6.875C0 7.044 0.0650007 7.188 0.195001 7.305C0.247001 7.37 0.309001 7.419 0.381001 7.451C0.452001 7.484 0.534 7.5 0.625 7.5C0.716 7.5 0.797 7.484 0.869 7.451C0.94 7.419 1.002 7.37 1.055 7.305L7.305 1.055C7.435 0.937999 7.5 0.795 7.5 0.625C7.5 0.456 7.435 0.312 7.305 0.195C7.187 0.0659997 7.043 0 6.875 0Z" transform="translate(4.59344 5.59299)"/>
<path d="M4.87247 4.931C4.91147 4.938 4.96247 4.941 5.02847 4.941C5.11847 4.941 5.21947 4.912 5.33147 4.853C5.44047 4.794 5.52847 4.72 5.59547 4.628C5.68547 4.472 5.70447 4.309 5.65447 4.14C5.60147 3.971 5.49847 3.841 5.34147 3.749L4.15047 3.124L5.40047 2.44C5.52947 2.349 5.61747 2.219 5.66447 2.049C5.70947 1.88 5.68547 1.717 5.59647 1.561C5.49147 1.405 5.35847 1.307 5.19647 1.268C5.03247 1.229 4.87447 1.242 4.71747 1.307L3.46747 1.991V0.625C3.46747 0.443 3.40847 0.293001 3.29147 0.176001C3.17447 0.0590006 3.02347 0 2.84247 0C2.64747 0 2.49247 0.0590006 2.38347 0.176001C2.27147 0.293001 2.21647 0.442 2.21647 0.625V2.07L0.966466 1.367C0.810466 1.276 0.646466 1.257 0.478466 1.308C0.308466 1.36 0.177466 1.464 0.0874656 1.621C-0.0045344 1.777 -0.0235339 1.94 0.0284661 2.109C0.0794661 2.278 0.184466 2.409 0.341466 2.5L1.59147 3.184L0.341466 3.868C0.185466 3.972 0.087466 4.106 0.048466 4.268C0.00946604 4.431 0.0214656 4.59 0.0874656 4.747C0.151466 4.838 0.230466 4.913 0.321466 4.972C0.411466 5.031 0.522466 5.06 0.653466 5.06C0.717466 5.06 0.770466 5.057 0.809466 5.05C0.848466 5.044 0.899465 5.028 0.965465 5.001L2.21547 4.317V5.626C2.21547 5.808 2.27047 5.958 2.38147 6.075C2.49047 6.192 2.64547 6.251 2.84047 6.251C3.02247 6.251 3.17247 6.192 3.28947 6.075C3.40647 5.958 3.46547 5.808 3.46547 5.626V4.181L4.71547 4.884C4.78047 4.909 4.83347 4.925 4.87247 4.931Z"/>
<path d="M5.34047 3.75L4.14947 3.125L5.39947 2.441C5.52847 2.35 5.61647 2.22 5.66347 2.05C5.70847 1.881 5.68447 1.718 5.59547 1.562C5.49047 1.406 5.35747 1.308 5.19547 1.269C5.03147 1.23 4.87347 1.243 4.71647 1.308L3.46647 1.992V0.625C3.46647 0.443 3.40747 0.293001 3.29047 0.176001C3.17347 0.0590006 3.02247 0 2.84147 0C2.64647 0 2.49147 0.0590006 2.38247 0.176001C2.27147 0.293001 2.21647 0.443 2.21647 0.625V2.07L0.966466 1.367C0.810466 1.276 0.646465 1.257 0.478465 1.308C0.308465 1.36 0.177466 1.464 0.0874659 1.621C-0.00453407 1.777 -0.0235341 1.94 0.0284659 2.109C0.0794659 2.278 0.184466 2.409 0.341466 2.5L1.59147 3.184L0.341466 3.868C0.185466 3.972 0.0874645 4.106 0.0484645 4.268C0.00946447 4.431 0.0214659 4.59 0.0874659 4.747C0.151466 4.838 0.230465 4.913 0.321465 4.972C0.411465 5.031 0.522466 5.06 0.653466 5.06C0.717466 5.06 0.770466 5.057 0.809466 5.05C0.848466 5.044 0.899466 5.028 0.965466 5.001L2.21547 4.317V5.626C2.21547 5.808 2.27046 5.958 2.38146 6.075C2.49046 6.192 2.64547 6.251 2.84047 6.251C3.02247 6.251 3.17247 6.192 3.28947 6.075C3.40647 5.958 3.46547 5.808 3.46547 5.626V4.181L4.71547 4.884C4.77947 4.91 4.83246 4.926 4.87146 4.933C4.91046 4.94 4.96146 4.943 5.02746 4.943C5.11746 4.943 5.21847 4.914 5.33047 4.855C5.43947 4.796 5.52747 4.722 5.59447 4.63C5.68447 4.474 5.70347 4.311 5.65347 4.142C5.60047 3.972 5.49647 3.842 5.34047 3.75Z" transform="translate(18.501 16.187)"/>
</svg>
