<svg width="19" height="20" viewBox="0 0 19 20" fill="currentColor" xmlns="http://www.w3.org/2000/svg">
<path d="M4.03147 12.303L8.03547 9.998L4.09047 7.694L0.848467 8.553C0.822467 8.553 0.792466 8.553 0.760466 8.553C0.727466 8.553 0.692466 8.553 0.653466 8.553C0.497466 8.553 0.363466 8.514 0.253466 8.436C0.142466 8.358 0.0674659 8.253 0.0284659 8.123C-0.0235341 7.967 -0.00453407 7.81 0.0874659 7.654C0.178466 7.498 0.289467 7.407 0.419467 7.381L2.47047 6.815L0.849466 5.877C0.693466 5.786 0.595466 5.655 0.556466 5.486C0.517466 5.317 0.530466 5.154 0.595466 4.998C0.686466 4.842 0.816466 4.744 0.986466 4.705C1.15547 4.666 1.31847 4.679 1.47447 4.744L3.15447 5.74L2.60747 3.689C2.54247 3.533 2.55147 3.376 2.63647 3.22C2.72047 3.064 2.85447 2.966 3.03647 2.927C3.19247 2.875 3.34947 2.888 3.50547 2.966C3.66147 3.044 3.75247 3.181 3.77847 3.376L4.65747 6.618L8.66147 8.942V4.315L6.27847 1.874C6.16147 1.744 6.10247 1.598 6.10247 1.435C6.10247 1.272 6.16147 1.125 6.27847 0.996C6.40847 0.879 6.55847 0.82 6.72747 0.82C6.89647 0.82 7.04047 0.879 7.15747 0.996L8.66147 2.5V0.625C8.66147 0.442 8.72047 0.293 8.83747 0.176C8.95547 0.0589996 9.10447 0 9.28747 0C9.46947 0 9.61947 0.0589996 9.73647 0.176C9.85347 0.293 9.91247 0.443 9.91247 0.625V2.5L11.4165 1.055C11.5335 0.938 11.6765 0.879 11.8465 0.879C12.0155 0.879 12.1645 0.938 12.2955 1.055C12.4125 1.185 12.4715 1.335 12.4715 1.504C12.4715 1.673 12.4125 1.817 12.2955 1.934L9.91047 4.315V8.944L13.9735 6.561L14.8525 3.319C14.8775 3.163 14.9695 3.043 15.1255 2.958C15.2815 2.873 15.4385 2.844 15.5945 2.87C15.7505 2.909 15.8705 3.007 15.9555 3.163C16.0395 3.319 16.0685 3.476 16.0435 3.632L15.4775 5.683L17.0985 4.745C17.2545 4.68 17.4165 4.667 17.5865 4.706C17.7555 4.745 17.8855 4.843 17.9775 4.999C18.0415 5.155 18.0555 5.318 18.0165 5.487C17.9775 5.656 17.8795 5.787 17.7235 5.878L16.1015 6.815L18.1525 7.381C18.3085 7.407 18.4285 7.498 18.5135 7.654C18.5975 7.81 18.6265 7.967 18.6015 8.123C18.5365 8.253 18.4455 8.357 18.3285 8.436C18.2115 8.515 18.0945 8.553 17.9765 8.553C17.9375 8.553 17.9045 8.553 17.8785 8.553C17.8525 8.553 17.8195 8.553 17.7805 8.553L14.5385 7.694L10.5345 9.998L14.5975 12.244L17.8395 11.365C17.9955 11.339 18.1525 11.368 18.3085 11.453C18.4645 11.538 18.5625 11.658 18.6015 11.814C18.6265 11.97 18.5975 12.127 18.5135 12.283C18.4285 12.439 18.3085 12.53 18.1525 12.556L16.1015 13.122L17.7225 14.06C17.8785 14.151 17.9825 14.282 18.0355 14.451C18.0875 14.62 18.0675 14.783 17.9765 14.939C17.9115 15.03 17.8235 15.105 17.7125 15.164C17.6015 15.223 17.5005 15.252 17.4095 15.252C17.3445 15.252 17.2925 15.249 17.2535 15.242C17.2145 15.235 17.1615 15.22 17.0975 15.193L15.4765 14.255L16.0425 16.306C16.0675 16.462 16.0385 16.619 15.9545 16.775C15.8695 16.931 15.7495 17.029 15.5935 17.068C15.5675 17.068 15.5375 17.068 15.5055 17.068C15.4725 17.068 15.4425 17.068 15.4175 17.068C15.2615 17.068 15.1245 17.026 15.0075 16.941C14.8905 16.856 14.8185 16.749 14.7925 16.619L13.9135 13.377L9.90947 11.053V15.682L12.2925 18.123C12.4095 18.253 12.4685 18.399 12.4685 18.562C12.4685 18.725 12.4095 18.872 12.2925 19.001C12.2275 19.066 12.1515 19.111 12.0675 19.138C11.9825 19.164 11.9075 19.177 11.8425 19.177C11.7775 19.177 11.7055 19.164 11.6275 19.138C11.5495 19.112 11.4775 19.067 11.4125 19.001L9.90847 17.497V19.372C9.90847 19.555 9.84947 19.704 9.73247 19.821C9.61547 19.938 9.46447 19.997 9.28347 19.997C9.10047 19.997 8.95147 19.938 8.83347 19.821C8.71647 19.704 8.65747 19.554 8.65747 19.372V17.497L7.15347 19.001C7.03647 19.118 6.89247 19.177 6.72347 19.177C6.55447 19.177 6.40447 19.118 6.27447 19.001C6.15747 18.871 6.09847 18.725 6.09847 18.562C6.09847 18.399 6.15747 18.252 6.27447 18.123L8.65747 15.74V11.131L4.65347 13.436L3.77447 16.678C3.72247 16.808 3.63747 16.915 3.52047 17C3.40347 17.085 3.27947 17.127 3.14947 17.127C3.12347 17.127 3.09347 17.127 3.06147 17.127C3.02847 17.127 2.99947 17.127 2.97347 17.127C2.81747 17.088 2.69647 16.99 2.61247 16.834C2.52747 16.678 2.49847 16.521 2.52447 16.365L3.09047 14.314L1.46947 15.252C1.40447 15.278 1.35247 15.294 1.31347 15.301C1.27447 15.308 1.22247 15.311 1.15747 15.311C1.02747 15.311 0.916466 15.282 0.825466 15.223C0.734466 15.164 0.656467 15.089 0.591467 14.998C0.526467 14.842 0.516466 14.679 0.562466 14.51C0.607466 14.341 0.721466 14.21 0.904466 14.119L2.52547 13.181L0.476466 12.615C0.320466 12.589 0.199466 12.498 0.115466 12.342C0.0304658 12.186 0.00146646 12.029 0.0274665 11.873C0.0664665 11.717 0.164467 11.597 0.320467 11.512C0.476467 11.427 0.633467 11.405 0.789467 11.444L4.03147 12.303Z"/>
</svg>
