<svg width="24" height="23" viewBox="0 0 24 23" fill="currentColor" xmlns="http://www.w3.org/2000/svg">
<path d="M16.814 5.686C17.752 5.908 18.516 6.389 19.109 7.131C19.701 7.873 19.998 8.726 19.998 9.69C19.998 10.211 19.907 10.703 19.725 11.165C19.542 11.627 19.286 12.041 18.954 12.405C18.622 12.77 18.231 13.069 17.782 13.303C17.333 13.537 16.841 13.687 16.307 13.752H16.248C16.092 13.752 15.955 13.697 15.838 13.586C15.721 13.476 15.649 13.342 15.623 13.186C15.623 13.03 15.678 12.883 15.789 12.747C15.899 12.61 16.033 12.529 16.189 12.503C16.905 12.438 17.51 12.132 18.005 11.585C18.5 11.038 18.747 10.407 18.747 9.69C18.747 8.974 18.499 8.349 18.005 7.815C17.51 7.281 16.904 6.969 16.189 6.877C16.033 6.851 15.899 6.789 15.789 6.691C15.678 6.593 15.623 6.466 15.623 6.31C15.558 5.594 15.366 4.927 15.047 4.308C14.728 3.69 14.318 3.156 13.817 2.706C13.316 2.257 12.736 1.902 12.079 1.642C11.421 1.382 10.728 1.251 9.999 1.251C9.374 1.251 8.778 1.349 8.212 1.544C7.646 1.739 7.128 2.013 6.659 2.364C6.19 2.715 5.78 3.135 5.429 3.624C5.078 4.113 4.81 4.656 4.628 5.255C4.563 5.372 4.484 5.467 4.394 5.538C4.303 5.61 4.211 5.659 4.121 5.684C3.313 5.814 2.633 6.199 2.08 6.836C1.526 7.474 1.25 8.216 1.25 9.063C1.25 9.975 1.556 10.752 2.168 11.397C2.78 12.042 3.535 12.41 4.434 12.501C4.59 12.527 4.724 12.608 4.834 12.745C4.944 12.882 5 13.028 5 13.184C4.974 13.34 4.899 13.48 4.775 13.604C4.651 13.728 4.498 13.777 4.316 13.75C3.704 13.685 3.134 13.519 2.607 13.252C2.08 12.985 1.624 12.644 1.24 12.227C0.856001 11.81 0.553001 11.332 0.332001 10.791C0.110001 10.251 0 9.675 0 9.062C0 8.528 0.0879999 8.017 0.264 7.529C0.44 7.041 0.684 6.595 0.996 6.191C1.309 5.788 1.68 5.439 2.109 5.146C2.538 4.853 3.001 4.635 3.496 4.492C3.769 3.828 4.124 3.22 4.56 2.666C4.996 2.113 5.498 1.638 6.064 1.24C6.63 0.843 7.249 0.537 7.919 0.322C8.589 0.107 9.283 0 9.999 0C10.858 0 11.669 0.143999 12.431 0.429999C13.193 0.716999 13.876 1.114 14.482 1.621C15.088 2.128 15.592 2.731 15.996 3.428C16.397 4.127 16.67 4.879 16.814 5.686ZM6.423 13.577C6.306 13.46 6.247 13.31 6.247 13.128V12.503C6.247 12.321 6.306 12.171 6.423 12.054C6.54 11.937 6.69 11.878 6.872 11.878C7.054 11.878 7.204 11.937 7.321 12.054C7.438 12.171 7.497 12.321 7.497 12.503V13.128C7.497 13.311 7.438 13.46 7.321 13.577C7.204 13.694 7.054 13.753 6.872 13.753C6.69 13.752 6.54 13.694 6.423 13.577ZM6.248 15.627C6.248 15.445 6.307 15.295 6.424 15.178C6.541 15.061 6.691 15.002 6.873 15.002C7.055 15.002 7.205 15.061 7.322 15.178C7.439 15.295 7.498 15.445 7.498 15.627V16.252C7.498 16.435 7.439 16.584 7.322 16.701C7.205 16.818 7.055 16.877 6.873 16.877C6.69 16.877 6.541 16.818 6.424 16.701C6.307 16.584 6.248 16.434 6.248 16.252V15.627ZM9.548 15.452C9.431 15.335 9.372 15.185 9.372 15.003V14.378C9.372 14.196 9.431 14.046 9.548 13.929C9.665 13.812 9.815 13.753 9.997 13.753C10.179 13.753 10.329 13.812 10.446 13.929C10.563 14.046 10.622 14.196 10.622 14.378V15.003C10.622 15.186 10.563 15.335 10.446 15.452C10.329 15.569 10.179 15.628 9.997 15.628C9.815 15.627 9.665 15.569 9.548 15.452ZM9.373 17.502C9.373 17.32 9.432 17.17 9.549 17.053C9.666 16.936 9.816 16.877 9.998 16.877C10.18 16.877 10.33 16.936 10.447 17.053C10.564 17.17 10.623 17.32 10.623 17.502V18.127C10.623 18.309 10.564 18.459 10.447 18.576C10.33 18.693 10.18 18.752 9.998 18.752C9.815 18.752 9.666 18.693 9.549 18.576C9.432 18.459 9.373 18.309 9.373 18.127V17.502ZM12.673 13.577C12.556 13.46 12.497 13.31 12.497 13.128V12.503C12.497 12.321 12.556 12.171 12.673 12.054C12.79 11.937 12.94 11.878 13.122 11.878C13.304 11.878 13.454 11.937 13.571 12.054C13.688 12.171 13.747 12.321 13.747 12.503V13.128C13.747 13.311 13.688 13.46 13.571 13.577C13.454 13.694 13.304 13.753 13.122 13.753C12.94 13.752 12.79 13.694 12.673 13.577ZM12.498 15.627C12.498 15.445 12.557 15.295 12.674 15.178C12.791 15.061 12.941 15.002 13.123 15.002C13.305 15.002 13.455 15.061 13.572 15.178C13.689 15.295 13.748 15.445 13.748 15.627V16.252C13.748 16.435 13.689 16.584 13.572 16.701C13.455 16.818 13.305 16.877 13.123 16.877C12.94 16.877 12.791 16.818 12.674 16.701C12.557 16.584 12.498 16.434 12.498 16.252V15.627Z" transform="translate(3.84647 3.40399)"/>
<path d="M5.34147 3.75L4.15047 3.125L5.40047 2.441C5.52947 2.35 5.61747 2.22 5.66447 2.05C5.70947 1.881 5.68547 1.718 5.59647 1.562C5.49147 1.406 5.35847 1.308 5.19647 1.269C5.03247 1.23 4.87447 1.243 4.71747 1.308L3.46747 1.992V0.625C3.46747 0.443 3.40847 0.293 3.29147 0.176C3.17447 0.0589996 3.02347 0 2.84247 0C2.64747 0 2.49247 0.0589996 2.38347 0.176C2.27247 0.293 2.21747 0.443 2.21747 0.625V2.07L0.967466 1.367C0.811466 1.276 0.647466 1.257 0.479466 1.308C0.308466 1.361 0.177466 1.465 0.0874659 1.621C-0.00453407 1.777 -0.0235341 1.94 0.0284659 2.109C0.0794659 2.278 0.184466 2.409 0.341466 2.5L1.59147 3.184L0.341466 3.868C0.185466 3.972 0.0874659 4.106 0.0484659 4.268C0.0094659 4.431 0.0214659 4.59 0.0874659 4.747C0.151466 4.838 0.230466 4.913 0.321466 4.972C0.411466 5.031 0.522466 5.06 0.653466 5.06C0.717466 5.06 0.770466 5.057 0.809466 5.05C0.848466 5.044 0.899466 5.028 0.965466 5.001L2.21547 4.317V5.626C2.21547 5.808 2.27047 5.958 2.38147 6.075C2.49047 6.192 2.64547 6.251 2.84047 6.251C3.02247 6.251 3.17247 6.192 3.28947 6.075C3.40647 5.958 3.46547 5.808 3.46547 5.626V4.181L4.71547 4.884C4.77947 4.91 4.83247 4.926 4.87147 4.933C4.91047 4.94 4.96147 4.943 5.02747 4.943C5.11747 4.943 5.21847 4.914 5.33047 4.855C5.43947 4.796 5.52747 4.722 5.59447 4.63C5.68447 4.474 5.70347 4.311 5.65347 4.142C5.60147 3.972 5.49847 3.842 5.34147 3.75Z"/>
</svg>
