<svg width="20" height="20" viewBox="0 0 20 20" fill="currentColor" xmlns="http://www.w3.org/2000/svg">
<path d="M6.248 4.492C6.248 4.089 6.127 3.659 5.887 3.203C5.646 2.747 5.372 2.314 5.067 1.904C4.76 1.494 4.462 1.133 4.169 0.820001C3.876 0.507001 3.671 0.299001 3.554 0.195001C3.437 0.0650007 3.293 0 3.124 0C2.954 0 2.811 0.0650007 2.694 0.195001C2.577 0.299001 2.372 0.508001 2.079 0.820001C1.786 1.132 1.486 1.494 1.181 1.904C0.874 2.314 0.600999 2.747 0.360999 3.203C0.119999 3.659 0 4.089 0 4.492C0 5.43 0.324999 6.165 0.976999 6.699C1.627 7.233 2.344 7.5 3.125 7.5C3.906 7.5 4.622 7.233 5.273 6.699C5.922 6.165 6.248 5.429 6.248 4.492ZM4.412 5.8C4.021 6.1 3.592 6.249 3.123 6.249C2.654 6.249 2.225 6.1 1.834 5.8C1.443 5.501 1.248 5.065 1.248 4.491C1.248 4.153 1.449 3.687 1.853 3.095C2.256 2.503 2.679 1.972 3.123 1.503C3.565 1.972 3.988 2.496 4.393 3.075C4.796 3.655 4.998 4.127 4.998 4.491C4.998 5.065 4.803 5.501 4.412 5.8Z" transform="translate(0 0.501007)"/>
<path d="M9.688 3.633C8.971 2.695 8.307 1.902 7.696 1.25C7.084 0.599 6.745 0.241001 6.68 0.176001C6.563 0.0590006 6.419 0 6.25 0C6.08 0 5.937 0.0590006 5.82 0.176001C5.755 0.254001 5.416 0.622001 4.804 1.28C4.192 1.938 3.528 2.729 2.812 3.653C2.095 4.578 1.448 5.57 0.868999 6.632C0.288999 7.694 0 8.667 0 9.552C0 10.516 0.182 11.375 0.547 12.13C0.911 12.885 1.387 13.526 1.973 14.054C2.559 14.582 3.226 14.985 3.975 15.265C4.723 15.545 5.482 15.685 6.25 15.685C7.018 15.685 7.773 15.545 8.516 15.265C9.258 14.985 9.925 14.581 10.518 14.054C11.11 13.527 11.588 12.886 11.954 12.13C12.318 11.375 12.501 10.516 12.501 9.552C12.501 8.667 12.211 7.694 11.632 6.632C11.052 5.57 10.404 4.57 9.688 3.633ZM10.812 11.67C10.519 12.275 10.138 12.783 9.669 13.193C9.2 13.603 8.666 13.913 8.067 14.121C7.467 14.329 6.862 14.434 6.251 14.434C5.639 14.434 5.036 14.33 4.444 14.121C3.851 13.913 3.317 13.603 2.842 13.193C2.366 12.783 1.983 12.275 1.69 11.67C1.397 11.065 1.251 10.358 1.251 9.551C1.251 8.978 1.43 8.324 1.788 7.588C2.145 6.853 2.582 6.113 3.097 5.371C3.611 4.629 4.155 3.923 4.728 3.252C5.3 2.582 5.808 2.019 6.251 1.563C6.693 2.019 7.201 2.582 7.774 3.252C8.346 3.923 8.89 4.629 9.405 5.371C9.919 6.113 10.355 6.852 10.714 7.588C11.071 8.324 11.251 8.978 11.251 9.551C11.251 10.358 11.105 11.064 10.812 11.67Z" transform="translate(3.747 4.19199)"/>
<path d="M5.34047 3.75L4.14947 3.125L5.39947 2.441C5.52847 2.35 5.61647 2.22 5.66347 2.05C5.70847 1.881 5.68447 1.718 5.59547 1.562C5.49047 1.406 5.35747 1.308 5.19547 1.269C5.03147 1.23 4.87347 1.243 4.71647 1.308L3.46647 1.992V0.625C3.46647 0.443 3.40747 0.293 3.29047 0.176C3.17347 0.0589996 3.02247 0 2.84147 0C2.64647 0 2.49147 0.0589996 2.38247 0.176C2.27147 0.293 2.21647 0.443 2.21647 0.625V2.07L0.966466 1.367C0.810466 1.276 0.646465 1.257 0.478465 1.308C0.308465 1.36 0.177466 1.464 0.0874659 1.621C-0.00453407 1.777 -0.0235341 1.94 0.0284659 2.109C0.0794659 2.278 0.184466 2.409 0.341466 2.5L1.59147 3.184L0.341466 3.868C0.185466 3.972 0.0874664 4.106 0.0484664 4.268C0.00946637 4.431 0.0214659 4.59 0.0874659 4.747C0.151466 4.838 0.230465 4.913 0.321465 4.972C0.411465 5.031 0.522466 5.06 0.653466 5.06C0.717466 5.06 0.770466 5.057 0.809466 5.05C0.848466 5.044 0.899466 5.028 0.965466 5.001L2.21547 4.317V5.626C2.21547 5.808 2.27046 5.958 2.38146 6.075C2.49046 6.192 2.64547 6.251 2.84047 6.251C3.02247 6.251 3.17247 6.192 3.28947 6.075C3.40647 5.958 3.46547 5.808 3.46547 5.626V4.181L4.71547 4.884C4.77947 4.91 4.83247 4.926 4.87147 4.933C4.91047 4.94 4.96146 4.943 5.02746 4.943C5.11746 4.943 5.21847 4.914 5.33047 4.855C5.43947 4.796 5.52747 4.722 5.59447 4.63C5.68447 4.474 5.70347 4.311 5.65347 4.142C5.60047 3.972 5.49747 3.842 5.34047 3.75Z" transform="translate(13.4055)"/>
</svg>
