<svg width="60" height="59" viewBox="0 0 60 59" fill="currentColor" xmlns="http://www.w3.org/2000/svg">
<path d="M48.75 39.7266C48.75 37.0703 47.8711 34.1602 46.1133 30.9961C44.3945 27.793 42.4609 24.7852 40.3125 21.9727C38.1641 19.1602 36.1719 16.7773 34.3359 14.8242C32.5 12.8711 31.4844 11.7969 31.2891 11.6016C30.9375 11.25 30.5078 11.0742 30 11.0742C29.4922 11.0742 29.0625 11.25 28.7109 11.6016C28.5156 11.8359 27.5 12.9492 25.6641 14.9414C23.8281 16.8945 21.8359 19.2578 19.6875 22.0312C17.5391 24.8047 15.5859 27.793 13.8281 30.9961C12.1094 34.1602 11.25 37.0703 11.25 39.7266C11.25 42.6172 11.7969 45.1953 12.8906 47.4609C13.9844 49.7266 15.4102 51.6602 17.168 53.2617C18.9258 54.8242 20.918 56.0156 23.1445 56.8359C25.4102 57.6953 27.6953 58.125 30 58.125C32.3047 58.125 34.5703 57.6953 36.7969 56.8359C39.0234 56.0156 41.0156 54.8242 42.7734 53.2617C44.5703 51.6602 46.0156 49.7266 47.1094 47.4609C48.2031 45.1953 48.75 42.6172 48.75 39.7266ZM30 54.375C28.1641 54.375 26.3477 54.0625 24.5508 53.4375C22.793 52.8125 21.1914 51.8945 19.7461 50.6836C18.3398 49.4336 17.1875 47.9102 16.2891 46.1133C15.4297 44.2773 15 42.1484 15 39.7266C15 38.0078 15.5273 36.0547 16.582 33.8672C17.6758 31.6406 18.9844 29.4141 20.5078 27.1875C22.0703 24.9609 23.7109 22.8516 25.4297 20.8594C27.1484 18.8281 28.6719 17.1289 30 15.7617C31.3281 17.1289 32.8516 18.8281 34.5703 20.8594C36.2891 22.8516 37.9102 24.9609 39.4336 27.1875C40.9961 29.4141 42.3047 31.6406 43.3594 33.8672C44.4531 36.0547 45 38.0078 45 39.7266C45 42.1484 44.5508 44.2773 43.6523 46.1133C42.793 47.9102 41.6602 49.4336 40.2539 50.6836C38.8477 51.8945 37.2461 52.8125 35.4492 53.4375C33.6523 54.0625 31.8359 54.375 30 54.375ZM51.9141 0.585938C51.5625 0.195312 51.1328 0 50.625 0C50.1172 0 49.6875 0.195312 49.3359 0.585938C48.9844 0.898438 48.3594 1.52344 47.4609 2.46094C46.6016 3.39844 45.7031 4.49219 44.7656 5.74219C43.8672 6.95312 43.0469 8.24219 42.3047 9.60938C41.6016 10.9766 41.25 12.2656 41.25 13.4766C41.25 16.2891 42.2266 18.4961 44.1797 20.0977C46.1328 21.6992 48.2812 22.5 50.625 22.5C52.9688 22.5 55.1172 21.6992 57.0703 20.0977C59.0234 18.4961 60 16.2891 60 13.4766C60 12.2656 59.6289 10.9766 58.8867 9.60938C58.1836 8.24219 57.3633 6.95312 56.4258 5.74219C55.5273 4.49219 54.6289 3.39844 53.7305 2.46094C52.8711 1.52344 52.2656 0.898438 51.9141 0.585938ZM50.625 18.75C49.2188 18.75 47.9297 18.3008 46.7578 17.4023C45.5859 16.5039 45 15.1953 45 13.4766C45 12.4609 45.6055 11.0938 46.8164 9.375C48.0273 7.61719 49.2969 5.99609 50.625 4.51172C51.9531 5.91797 53.2227 7.5 54.4336 9.25781C55.6445 10.9766 56.25 12.3828 56.25 13.4766C56.25 15.1953 55.6641 16.5039 54.4922 17.4023C53.3203 18.3008 52.0312 18.75 50.625 18.75ZM9.375 22.5C11.7188 22.5 13.8672 21.6992 15.8203 20.0977C17.7734 18.4961 18.75 16.2891 18.75 13.4766C18.75 12.2656 18.3789 10.9766 17.6367 9.60938C16.9336 8.24219 16.1133 6.95312 15.1758 5.74219C14.2773 4.49219 13.3789 3.39844 12.4805 2.46094C11.6211 1.52344 11.0156 0.898438 10.6641 0.585938C10.3125 0.195312 9.88281 0 9.375 0C8.86719 0 8.4375 0.195312 8.08594 0.585938C7.73438 0.898438 7.10938 1.52344 6.21094 2.46094C5.35156 3.39844 4.45312 4.49219 3.51562 5.74219C2.61719 6.95312 1.79688 8.24219 1.05469 9.60938C0.351562 10.9766 0 12.2656 0 13.4766C0 16.2891 0.976562 18.4961 2.92969 20.0977C4.88281 21.6992 7.03125 22.5 9.375 22.5ZM9.375 4.51172C10.7031 5.91797 11.9727 7.5 13.1836 9.25781C14.3945 10.9766 15 12.3828 15 13.4766C15 15.1953 14.4141 16.5039 13.2422 17.4023C12.0703 18.3008 10.7812 18.75 9.375 18.75C7.96875 18.75 6.67969 18.3008 5.50781 17.4023C4.33594 16.5039 3.75 15.1953 3.75 13.4766C3.75 12.4609 4.35547 11.0742 5.56641 9.31641C6.77734 7.51953 8.04688 5.91797 9.375 4.51172Z" transform="translate(0 0.875)"/>
</svg>
