<svg width="60" height="60" viewBox="0 0 60 60" fill="currentColor" xmlns="http://www.w3.org/2000/svg">
<path d="M50.4492 17.0508C50.0195 14.6289 49.1992 12.3828 47.9883 10.3125C46.7773 8.20312 45.2539 6.38672 43.418 4.86328C41.6211 3.33984 39.5703 2.14844 37.2656 1.28906C35 0.429688 32.5781 0 30 0C27.8516 0 25.7617 0.332031 23.7305 0.996094C21.7383 1.62109 19.8828 2.53906 18.1641 3.75C16.4844 4.92188 14.9805 6.34766 13.6523 8.02734C12.3633 9.66797 11.3086 11.4844 10.4883 13.4766C9.00391 13.9062 7.61719 14.5703 6.32812 15.4688C5.03906 16.3281 3.92578 17.3633 2.98828 18.5742C2.05078 19.7852 1.30859 21.1328 0.761719 22.6172C0.253906 24.0625 0 25.5859 0 27.1875C0 29.0234 0.332031 30.7617 0.996094 32.4023C1.66016 34.0039 2.55859 35.4297 3.69141 36.6797C4.86328 37.9297 6.23047 38.9648 7.79297 39.7852C9.39453 40.5664 11.1133 41.0547 12.9492 41.25C13.4961 41.3281 13.9453 41.1914 14.2969 40.8398C14.6875 40.4492 14.9219 40.0195 15 39.5508C15.0781 39.082 14.9219 38.6523 14.5312 38.2617C14.1797 37.832 13.7695 37.5781 13.3008 37.5C10.6055 37.2266 8.33984 36.1328 6.50391 34.2188C4.66797 32.2656 3.75 29.9219 3.75 27.1875C3.75 24.6484 4.57031 22.4219 6.21094 20.5078C7.89062 18.5938 9.94141 17.4414 12.3633 17.0508C12.6367 16.9727 12.9102 16.8359 13.1836 16.6406C13.457 16.4062 13.6914 16.1133 13.8867 15.7617C14.4336 13.9648 15.2344 12.3438 16.2891 10.8984C17.3438 9.41406 18.5742 8.14453 19.9805 7.08984C21.3867 6.03516 22.9297 5.21484 24.6094 4.62891C26.3281 4.04297 28.125 3.75 30 3.75C32.1875 3.75 34.2578 4.14062 36.2109 4.92188C38.2031 5.70312 39.9414 6.77734 41.4258 8.14453C42.9492 9.47266 44.1797 11.0742 45.1172 12.9492C46.0938 14.7852 46.6797 16.7773 46.875 18.9258C46.875 19.3945 47.0312 19.7852 47.3438 20.0977C47.6953 20.3711 48.1055 20.5469 48.5742 20.625C50.7227 20.8984 52.5391 21.8359 54.0234 23.4375C55.5078 25.0391 56.25 26.9141 56.25 29.0625C56.25 31.2109 55.5078 33.1055 54.0234 34.7461C52.5391 36.3867 50.7227 37.3047 48.5742 37.5C48.1055 37.5781 47.6953 37.832 47.3438 38.2617C47.0312 38.6523 46.875 39.082 46.875 39.5508C46.9531 40.0195 47.168 40.4297 47.5195 40.7812C47.8711 41.0938 48.2812 41.25 48.75 41.25C48.75 41.25 48.7695 41.25 48.8086 41.25C48.8867 41.25 48.9258 41.25 48.9258 41.25C50.5273 41.0547 51.9922 40.6055 53.3203 39.9023C54.6875 39.1992 55.8594 38.3008 56.8359 37.207C57.8516 36.1133 58.6328 34.8828 59.1797 33.5156C59.7266 32.1094 60 30.625 60 29.0625C60 26.1719 59.1016 23.6133 57.3047 21.3867C55.5469 19.1602 53.2617 17.7148 50.4492 17.0508Z" transform="translate(0 0.875)"/><path d="M29.2803 56.5539C29.2803 57.6585 30.1757 58.5539 31.2803 58.5539C32.3848 58.5539 33.2803 57.6585 33.2803 56.5539V20.5539C33.2803 19.4494 32.3848 18.5539 31.2803 18.5539C30.1757 18.5539 29.2803 19.4494 29.2803 20.5539V56.5539Z" transform="translate(0 0.875)"/>
<path d="M25.4142 29.2476C24.6332 30.0286 23.3668 30.0286 22.5858 29.2476C21.8047 28.4665 21.8047 27.2002 22.5858 26.4191L29.9363 19.0686C30.7173 18.2876 31.9837 18.2876 32.7647 19.0686C33.5458 19.8497 33.5458 21.116 32.7647 21.8971L25.4142 29.2476Z" transform="translate(0 0.875)"/>
<path d="M37.0457 29.1397C37.8268 29.9208 39.0931 29.9208 39.8742 29.1397C40.6552 28.3587 40.6552 27.0923 39.8742 26.3113L32.5237 18.9608C31.7426 18.1797 30.4763 18.1797 29.6952 18.9608C28.9142 19.7418 28.9142 21.0082 29.6952 21.7892L37.0457 29.1397Z" transform="translate(0 0.875)"/>
</svg>
