<svg width="81" height="60" viewBox="0 0 81 60" fill="currentColor" xmlns="http://www.w3.org/2000/svg">
<path d="M1.875 31.875H5.625C6.17188 31.875 6.62109 31.6992 6.97266 31.3477C7.32422 30.9961 7.5 30.5469 7.5 30C7.5 29.4531 7.32422 29.0039 6.97266 28.6523C6.62109 28.3008 6.17188 28.125 5.625 28.125H1.875C1.32812 28.125 0.878906 28.3008 0.527344 28.6523C0.175781 29.0039 0 29.4531 0 30C0 30.5469 0.175781 30.9961 0.527344 31.3477C0.878906 31.6992 1.32812 31.875 1.875 31.875ZM11.4258 14.0625C11.6211 14.2578 11.8359 14.4141 12.0703 14.5312C12.3438 14.6094 12.5781 14.6484 12.7734 14.6484C12.9297 14.6484 13.125 14.6094 13.3594 14.5312C13.6328 14.4141 13.8672 14.2578 14.0625 14.0625C14.4531 13.6719 14.6484 13.2422 14.6484 12.7734C14.6484 12.2656 14.4531 11.8164 14.0625 11.4258L11.4258 8.78906C11.0742 8.4375 10.6445 8.26172 10.1367 8.26172C9.62891 8.26172 9.17969 8.4375 8.78906 8.78906C8.4375 9.17969 8.26172 9.62891 8.26172 10.1367C8.26172 10.6445 8.4375 11.0742 8.78906 11.4258L11.4258 14.0625ZM30 7.5C30.5469 7.5 30.9961 7.32422 31.3477 6.97266C31.6992 6.62109 31.875 6.17188 31.875 5.625V1.875C31.875 1.32812 31.6992 0.878906 31.3477 0.527344C30.9961 0.175781 30.5469 0 30 0C29.4531 0 29.0039 0.175781 28.6523 0.527344C28.3008 0.878906 28.125 1.32812 28.125 1.875V5.625C28.125 6.17188 28.3008 6.62109 28.6523 6.97266C29.0039 7.32422 29.4531 7.5 30 7.5ZM47.2266 14.6484C47.5391 14.6484 47.793 14.6094 47.9883 14.5312C48.1836 14.4141 48.3789 14.2578 48.5742 14.0625L51.2109 11.4258C51.5625 11.0742 51.7383 10.6445 51.7383 10.1367C51.7383 9.62891 51.5625 9.17969 51.2109 8.78906C50.8203 8.4375 50.3711 8.26172 49.8633 8.26172C49.3555 8.26172 48.9258 8.4375 48.5742 8.78906L45.9375 11.4258C45.5469 11.8164 45.3516 12.2656 45.3516 12.7734C45.3516 13.2422 45.5469 13.6719 45.9375 14.0625C46.1328 14.2578 46.3281 14.4141 46.5234 14.5312C46.7188 14.6094 46.9531 14.6484 47.2266 14.6484ZM58.125 28.125H54.375C53.8281 28.125 53.3789 28.3008 53.0273 28.6523C52.6758 29.0039 52.5 29.4531 52.5 30C52.5 30.5469 52.6758 30.9961 53.0273 31.3477C53.3789 31.6992 53.8281 31.875 54.375 31.875H58.125C58.6719 31.875 59.1211 31.6992 59.4727 31.3477C59.8242 30.9961 60 30.5469 60 30C60 29.4531 59.8242 29.0039 59.4727 28.6523C59.1211 28.3008 58.6719 28.125 58.125 28.125ZM48.5742 45.9375C48.1836 45.5469 47.7344 45.3516 47.2266 45.3516C46.7578 45.3516 46.3281 45.5469 45.9375 45.9375C45.5469 46.3281 45.3516 46.7773 45.3516 47.2852C45.3516 47.7539 45.5469 48.1836 45.9375 48.5742L48.5742 51.2109C48.7695 51.3672 48.9844 51.5039 49.2188 51.6211C49.4531 51.6992 49.668 51.7383 49.8633 51.7383C50.0586 51.7383 50.2734 51.6992 50.5078 51.6211C50.7812 51.5039 51.0156 51.3672 51.2109 51.2109C51.5625 50.8203 51.7383 50.3711 51.7383 49.8633C51.7383 49.3555 51.5625 48.9258 51.2109 48.5742L48.5742 45.9375ZM28.125 54.375V58.125C28.125 58.6719 28.3008 59.1211 28.6523 59.4727C29.0039 59.8242 29.4531 60 30 60C30.5469 60 30.9961 59.8242 31.3477 59.4727C31.6992 59.1211 31.875 58.6719 31.875 58.125V54.375C31.875 53.8281 31.6992 53.3789 31.3477 53.0273C30.9961 52.6758 30.5469 52.5 30 52.5C29.4531 52.5 29.0039 52.6758 28.6523 53.0273C28.3008 53.3789 28.125 53.8281 28.125 54.375ZM10.1367 51.7383C10.4102 51.7383 10.6445 51.6992 10.8398 51.6211C11.0352 51.5039 11.2305 51.3672 11.4258 51.2109L14.0625 48.5742C14.4531 48.1836 14.6484 47.7539 14.6484 47.2852C14.6484 46.7773 14.4531 46.3281 14.0625 45.9375C13.6719 45.5469 13.2227 45.3516 12.7148 45.3516C12.2461 45.3516 11.8164 45.5469 11.4258 45.9375L8.78906 48.5742C8.4375 48.9258 8.26172 49.3555 8.26172 49.8633C8.26172 50.3711 8.4375 50.8203 8.78906 51.2109C8.98438 51.3672 9.17969 51.5039 9.375 51.6211C9.60938 51.6992 9.86328 51.7383 10.1367 51.7383ZM30 46.875C32.3438 46.875 34.5312 46.4453 36.5625 45.5859C38.6328 44.6875 40.4297 43.4766 41.9531 41.9531C43.4766 40.4297 44.668 38.6523 45.5273 36.6211C46.4258 34.5508 46.875 32.3438 46.875 30C46.875 27.6562 46.4258 25.4688 45.5273 23.4375C44.668 21.3672 43.4766 19.5703 41.9531 18.0469C40.4297 16.5234 38.6328 15.332 36.5625 14.4727C34.5312 13.5742 32.3438 13.125 30 13.125C27.6562 13.125 25.4492 13.5742 23.3789 14.4727C21.3477 15.332 19.5703 16.5234 18.0469 18.0469C16.5234 19.5703 15.3125 21.3672 14.4141 23.4375C13.5547 25.4688 13.125 27.6562 13.125 30C13.125 32.3438 13.5547 34.5508 14.4141 36.6211C15.3125 38.6523 16.5234 40.4297 18.0469 41.9531C19.5703 43.4766 21.3477 44.6875 23.3789 45.5859C25.4492 46.4453 27.6562 46.875 30 46.875ZM30 16.875C31.8359 16.875 33.5352 17.2266 35.0977 17.9297C36.6992 18.5938 38.0859 19.5117 39.2578 20.6836C40.4688 21.8555 41.4062 23.2422 42.0703 24.8438C42.7734 26.4453 43.125 28.1641 43.125 30C43.125 31.8359 42.7734 33.5547 42.0703 35.1562C41.4062 36.7188 40.4883 38.1055 39.3164 39.3164C38.1445 40.4883 36.7578 41.4258 35.1562 42.1289C33.5547 42.793 31.8359 43.125 30 43.125C28.1641 43.125 26.4453 42.793 24.8438 42.1289C23.2812 41.4258 21.8945 40.4883 20.6836 39.3164C19.5117 38.1445 18.5742 36.7578 17.8711 35.1562C17.207 33.5547 16.875 31.8359 16.875 30C16.875 28.1641 17.207 26.4648 17.8711 24.9023C18.5742 23.3008 19.5117 21.9141 20.6836 20.7422C21.8555 19.5312 23.2422 18.5938 24.8438 17.9297C26.4453 17.2266 28.1641 16.875 30 16.875Z"/>
<path d="M69 48.429C69 49.5335 69.8954 50.429 71 50.429C72.1046 50.429 73 49.5335 73 48.429V12.429C73 11.3244 72.1046 10.429 71 10.429C69.8954 10.429 69 11.3244 69 12.429V48.429Z"/>
<path d="M65.1339 21.1226C64.3529 21.9036 63.0866 21.9036 62.3055 21.1226C61.5245 20.3415 61.5245 19.0752 62.3055 18.2942L69.656 10.9437C70.4371 10.1626 71.7034 10.1626 72.4845 10.9437C73.2655 11.7247 73.2655 12.991 72.4845 13.7721L65.1339 21.1226Z"/>
<path d="M76.7655 21.0147C77.5465 21.7958 78.8129 21.7958 79.5939 21.0147C80.375 20.2337 80.375 18.9674 79.5939 18.1863L72.2434 10.8358C71.4623 10.0548 70.196 10.0548 69.415 10.8358C68.6339 11.6169 68.6339 12.8832 69.415 13.6642L76.7655 21.0147Z"/>
</svg>
