<svg width="60" height="54" viewBox="0 0 60 54" fill="currentColor" xmlns="http://www.w3.org/2000/svg">
<path d="M0 17.2266C0 17.7734 0.175781 18.2227 0.527344 18.5742C0.878906 18.9258 1.32812 19.1016 1.875 19.1016H34.6875C37.3047 19.1016 39.5508 18.1641 41.4258 16.2891C43.3008 14.4141 44.2383 12.168 44.2383 9.55078C44.2383 6.93359 43.3008 4.6875 41.4258 2.8125C39.5508 0.9375 37.3047 0 34.6875 0C32.6172 0 30.7617 0.585938 29.1211 1.75781C27.4805 2.92969 26.3281 4.45312 25.6641 6.32812C25.5078 6.79688 25.5469 7.28516 25.7812 7.79297C26.0156 8.26172 26.3672 8.59375 26.8359 8.78906C27.3047 8.98438 27.7734 8.96484 28.2422 8.73047C28.7109 8.49609 29.043 8.14453 29.2383 7.67578C29.6289 6.54297 30.332 5.60547 31.3477 4.86328C32.3633 4.12109 33.4766 3.75 34.6875 3.75C36.2891 3.75 37.6562 4.31641 38.7891 5.44922C39.9219 6.58203 40.4883 7.94922 40.4883 9.55078C40.4883 11.1523 39.9219 12.5195 38.7891 13.6523C37.6562 14.7852 36.2891 15.3516 34.6875 15.3516H1.875C1.32812 15.3516 0.878906 15.5273 0.527344 15.8789C0.175781 16.2305 0 16.6797 0 17.2266ZM19.3359 34.1016H1.875C1.32812 34.1016 0.878906 34.2773 0.527344 34.6289C0.175781 34.9805 0 35.4297 0 35.9766C0 36.5234 0.175781 36.9727 0.527344 37.3242C0.878906 37.6758 1.32812 37.8516 1.875 37.8516H19.3359C20.8984 37.8516 22.2461 38.418 23.3789 39.5508C24.5508 40.6836 25.1367 42.0508 25.1367 43.6523C25.1367 45.2539 24.5508 46.6211 23.3789 47.7539C22.2461 48.8867 20.8984 49.4531 19.3359 49.4531C18.0859 49.4531 16.9531 49.1016 15.9375 48.3984C14.9219 47.6953 14.2383 46.7383 13.8867 45.5273C13.6914 45.0586 13.3398 44.707 12.832 44.4727C12.3633 44.2383 11.8945 44.2188 11.4258 44.4141C10.957 44.6094 10.6055 44.9609 10.3711 45.4688C10.1367 45.9375 10.1172 46.4062 10.3125 46.875C10.9766 48.75 12.1289 50.2734 13.7695 51.4453C15.4102 52.6172 17.2656 53.2031 19.3359 53.2031C21.9531 53.2031 24.1992 52.2656 26.0742 50.3906C27.9492 48.5156 28.8867 46.2695 28.8867 43.6523C28.8867 41.0352 27.9492 38.7891 26.0742 36.9141C24.1992 35.0391 21.9531 34.1016 19.3359 34.1016ZM50.4492 24.7266H1.875C1.32812 24.7266 0.878906 24.9023 0.527344 25.2539C0.175781 25.6055 0 26.0547 0 26.6016C0 27.1484 0.175781 27.5977 0.527344 27.9492C0.878906 28.3008 1.32812 28.4766 1.875 28.4766H50.4492C52.0508 28.4766 53.418 29.043 54.5508 30.1758C55.6836 31.3086 56.25 32.6758 56.25 34.2773C56.25 35.8789 55.6836 37.2461 54.5508 38.3789C53.418 39.5117 52.0508 40.0781 50.4492 40.0781C49.2383 40.0781 48.125 39.7266 47.1094 39.0234C46.0938 38.3203 45.3906 37.3633 45 36.1523C44.8047 35.6836 44.4531 35.332 43.9453 35.0977C43.4766 34.8633 43.0078 34.8438 42.5391 35.0391C42.0703 35.2344 41.7188 35.5859 41.4844 36.0938C41.25 36.5625 41.2305 37.0312 41.4258 37.5C42.0898 39.375 43.2422 40.8984 44.8828 42.0703C46.5234 43.2422 48.3789 43.8281 50.4492 43.8281C53.0664 43.8281 55.3125 42.8906 57.1875 41.0156C59.0625 39.1406 60 36.8945 60 34.2773C60 31.6602 59.0625 29.4141 57.1875 27.5391C55.3125 25.6641 53.0664 24.7266 50.4492 24.7266Z" transform="translate(0 0.398438)"/>
</svg>
