<svg enable-background="new 0 0 483.719 483.719" version="1.1" viewBox="0 0 483.719 483.719" xml:space="preserve" xmlns="http://www.w3.org/2000/svg">
	<path fill="currentColor" d="m441.76 451l-153-194.43c-6.461 4.764-14.325 7.427-22.477 7.427-3.488 0-6.952-0.481-10.326-1.438l-17.934-5.081 171.96 218.53c3.993 5.072 9.917 7.715 15.902 7.715 4.38 0 8.782-1.414 12.499-4.327 8.762-6.913 10.283-19.62 3.376-28.393z"/>
	<path fill="currentColor" d="m282.49 164.19l1.961 4.943 6.3 15.899 51.397-2.399c4.948-0.244 9.035-4.14 9.511-8.917 0.554-4.912-2.619-9.582-7.395-10.852l-51.615-13.836-9.511 14.207-0.648 0.955z"/>
	<path fill="currentColor" d="m207.97 248.96l-1.624-0.458-4.343 3.603-13.177 10.907 19.063 50.513c1.488 3.872 5.264 6.469 9.398 6.469l2.054-0.213c4.885-1.011 8.25-5.362 7.997-10.377l-2.926-55.781-16.442-4.663z"/>
		<path fill="currentColor" d="m223.62 62.903l2.208 2.817 2.59-0.165 17.061-1.091 14.366-52.222c2.915-10.599-11.341-17.028-17.354-7.826l-29.438 45.049 10.567 13.438z"/>
		<path fill="currentColor" d="m102.8 206.58l-0.173-4.449-2.623-1.665-14.458-9.152-44.231 35.364c-8.574 6.856-0.844 20.421 9.425 16.536l52.69-19.93-0.63-16.704z"/>
		<path fill="currentColor" d="m93.34 97.02l16.047-5.898 5.294-1.946 0.297-1.183 4.235-16.578-47.447-31.203c-9.18-6.036-19.688 5.531-12.8 14.09l34.374 42.718z"/>
	<path fill="currentColor" d="m264.77 231.43c0.508 0.143 1.01 0.214 1.516 0.214 1.551 0 3.049-0.648 4.105-1.824 1.424-1.575 1.818-3.8 1.044-5.767l-25.289-63.743 38.167-56.967c1.178-1.753 1.248-4.019 0.202-5.852-0.995-1.723-2.814-2.779-4.787-2.779-0.122 0-0.253 5e-3 -0.376 0.016l-68.447 4.358-42.376-53.911c-1.075-1.348-2.683-2.116-4.379-2.116-0.376 0-0.753 0.041-1.138 0.119-2.054 0.442-3.689 2.006-4.215 4.054l-16.993 66.432-64.373 23.665c-1.985 0.726-3.376 2.517-3.599 4.619-0.234 2.093 0.762 4.136 2.542 5.268l57.94 36.694 2.602 68.527c0.081 2.109 1.349 3.988 3.273 4.85 0.728 0.326 1.503 0.483 2.257 0.483 1.281 0 2.549-0.436 3.555-1.279l52.791-43.748 65.978 18.687z"/>
</svg>
